%TF.GenerationSoftware,KiCad,Pcbnew,(5.1.6)-1*%
%TF.CreationDate,2020-10-09T01:51:47-07:00*%
%TF.ProjectId,Joystick_Follower_Hat,4a6f7973-7469-4636-9b5f-466f6c6c6f77,A*%
%TF.SameCoordinates,Original*%
%TF.FileFunction,Legend,Top*%
%TF.FilePolarity,Positive*%
%FSLAX46Y46*%
G04 Gerber Fmt 4.6, Leading zero omitted, Abs format (unit mm)*
G04 Created by KiCad (PCBNEW (5.1.6)-1) date 2020-10-09 01:51:47*
%MOMM*%
%LPD*%
G01*
G04 APERTURE LIST*
%ADD10C,0.150000*%
%ADD11C,0.127000*%
%ADD12C,0.200000*%
%ADD13C,0.120000*%
%ADD14C,0.015000*%
G04 APERTURE END LIST*
D10*
X119493309Y-127533380D02*
X119493309Y-128247666D01*
X119445690Y-128390523D01*
X119350452Y-128485761D01*
X119207595Y-128533380D01*
X119112357Y-128533380D01*
X120112357Y-128533380D02*
X120017119Y-128485761D01*
X119969500Y-128438142D01*
X119921880Y-128342904D01*
X119921880Y-128057190D01*
X119969500Y-127961952D01*
X120017119Y-127914333D01*
X120112357Y-127866714D01*
X120255214Y-127866714D01*
X120350452Y-127914333D01*
X120398071Y-127961952D01*
X120445690Y-128057190D01*
X120445690Y-128342904D01*
X120398071Y-128438142D01*
X120350452Y-128485761D01*
X120255214Y-128533380D01*
X120112357Y-128533380D01*
X120779023Y-127866714D02*
X121017119Y-128533380D01*
X121255214Y-127866714D02*
X121017119Y-128533380D01*
X120921880Y-128771476D01*
X120874261Y-128819095D01*
X120779023Y-128866714D01*
X121588547Y-128485761D02*
X121683785Y-128533380D01*
X121874261Y-128533380D01*
X121969500Y-128485761D01*
X122017119Y-128390523D01*
X122017119Y-128342904D01*
X121969500Y-128247666D01*
X121874261Y-128200047D01*
X121731404Y-128200047D01*
X121636166Y-128152428D01*
X121588547Y-128057190D01*
X121588547Y-128009571D01*
X121636166Y-127914333D01*
X121731404Y-127866714D01*
X121874261Y-127866714D01*
X121969500Y-127914333D01*
X122302833Y-127866714D02*
X122683785Y-127866714D01*
X122445690Y-127533380D02*
X122445690Y-128390523D01*
X122493309Y-128485761D01*
X122588547Y-128533380D01*
X122683785Y-128533380D01*
X123017119Y-128533380D02*
X123017119Y-127866714D01*
X123017119Y-127533380D02*
X122969500Y-127581000D01*
X123017119Y-127628619D01*
X123064738Y-127581000D01*
X123017119Y-127533380D01*
X123017119Y-127628619D01*
X123921880Y-128485761D02*
X123826642Y-128533380D01*
X123636166Y-128533380D01*
X123540928Y-128485761D01*
X123493309Y-128438142D01*
X123445690Y-128342904D01*
X123445690Y-128057190D01*
X123493309Y-127961952D01*
X123540928Y-127914333D01*
X123636166Y-127866714D01*
X123826642Y-127866714D01*
X123921880Y-127914333D01*
X124350452Y-128533380D02*
X124350452Y-127533380D01*
X124445690Y-128152428D02*
X124731404Y-128533380D01*
X124731404Y-127866714D02*
X124350452Y-128247666D01*
X126255214Y-128009571D02*
X125921880Y-128009571D01*
X125921880Y-128533380D02*
X125921880Y-127533380D01*
X126398071Y-127533380D01*
X126921880Y-128533380D02*
X126826642Y-128485761D01*
X126779023Y-128438142D01*
X126731404Y-128342904D01*
X126731404Y-128057190D01*
X126779023Y-127961952D01*
X126826642Y-127914333D01*
X126921880Y-127866714D01*
X127064738Y-127866714D01*
X127159976Y-127914333D01*
X127207595Y-127961952D01*
X127255214Y-128057190D01*
X127255214Y-128342904D01*
X127207595Y-128438142D01*
X127159976Y-128485761D01*
X127064738Y-128533380D01*
X126921880Y-128533380D01*
X127826642Y-128533380D02*
X127731404Y-128485761D01*
X127683785Y-128390523D01*
X127683785Y-127533380D01*
X128350452Y-128533380D02*
X128255214Y-128485761D01*
X128207595Y-128390523D01*
X128207595Y-127533380D01*
X128874261Y-128533380D02*
X128779023Y-128485761D01*
X128731404Y-128438142D01*
X128683785Y-128342904D01*
X128683785Y-128057190D01*
X128731404Y-127961952D01*
X128779023Y-127914333D01*
X128874261Y-127866714D01*
X129017119Y-127866714D01*
X129112357Y-127914333D01*
X129159976Y-127961952D01*
X129207595Y-128057190D01*
X129207595Y-128342904D01*
X129159976Y-128438142D01*
X129112357Y-128485761D01*
X129017119Y-128533380D01*
X128874261Y-128533380D01*
X129540928Y-127866714D02*
X129731404Y-128533380D01*
X129921880Y-128057190D01*
X130112357Y-128533380D01*
X130302833Y-127866714D01*
X131064738Y-128485761D02*
X130969500Y-128533380D01*
X130779023Y-128533380D01*
X130683785Y-128485761D01*
X130636166Y-128390523D01*
X130636166Y-128009571D01*
X130683785Y-127914333D01*
X130779023Y-127866714D01*
X130969500Y-127866714D01*
X131064738Y-127914333D01*
X131112357Y-128009571D01*
X131112357Y-128104809D01*
X130636166Y-128200047D01*
X131540928Y-128533380D02*
X131540928Y-127866714D01*
X131540928Y-128057190D02*
X131588547Y-127961952D01*
X131636166Y-127914333D01*
X131731404Y-127866714D01*
X131826642Y-127866714D01*
X133493309Y-128533380D02*
X133159976Y-128057190D01*
X132921880Y-128533380D02*
X132921880Y-127533380D01*
X133302833Y-127533380D01*
X133398071Y-127581000D01*
X133445690Y-127628619D01*
X133493309Y-127723857D01*
X133493309Y-127866714D01*
X133445690Y-127961952D01*
X133398071Y-128009571D01*
X133302833Y-128057190D01*
X132921880Y-128057190D01*
X133921880Y-128009571D02*
X134255214Y-128009571D01*
X134398071Y-128533380D02*
X133921880Y-128533380D01*
X133921880Y-127533380D01*
X134398071Y-127533380D01*
X134683785Y-127533380D02*
X135017119Y-128533380D01*
X135350452Y-127533380D01*
X136398071Y-128247666D02*
X136874261Y-128247666D01*
X136302833Y-128533380D02*
X136636166Y-127533380D01*
X136969500Y-128533380D01*
X119159976Y-130135761D02*
X119302833Y-130183380D01*
X119540928Y-130183380D01*
X119636166Y-130135761D01*
X119683785Y-130088142D01*
X119731404Y-129992904D01*
X119731404Y-129897666D01*
X119683785Y-129802428D01*
X119636166Y-129754809D01*
X119540928Y-129707190D01*
X119350452Y-129659571D01*
X119255214Y-129611952D01*
X119207595Y-129564333D01*
X119159976Y-129469095D01*
X119159976Y-129373857D01*
X119207595Y-129278619D01*
X119255214Y-129231000D01*
X119350452Y-129183380D01*
X119588547Y-129183380D01*
X119731404Y-129231000D01*
X120159976Y-130183380D02*
X120159976Y-129183380D01*
X120398071Y-129183380D01*
X120540928Y-129231000D01*
X120636166Y-129326238D01*
X120683785Y-129421476D01*
X120731404Y-129611952D01*
X120731404Y-129754809D01*
X120683785Y-129945285D01*
X120636166Y-130040523D01*
X120540928Y-130135761D01*
X120398071Y-130183380D01*
X120159976Y-130183380D01*
X121112357Y-130135761D02*
X121255214Y-130183380D01*
X121493309Y-130183380D01*
X121588547Y-130135761D01*
X121636166Y-130088142D01*
X121683785Y-129992904D01*
X121683785Y-129897666D01*
X121636166Y-129802428D01*
X121588547Y-129754809D01*
X121493309Y-129707190D01*
X121302833Y-129659571D01*
X121207595Y-129611952D01*
X121159976Y-129564333D01*
X121112357Y-129469095D01*
X121112357Y-129373857D01*
X121159976Y-129278619D01*
X121207595Y-129231000D01*
X121302833Y-129183380D01*
X121540928Y-129183380D01*
X121683785Y-129231000D01*
X122112357Y-129183380D02*
X122112357Y-129992904D01*
X122159976Y-130088142D01*
X122207595Y-130135761D01*
X122302833Y-130183380D01*
X122493309Y-130183380D01*
X122588547Y-130135761D01*
X122636166Y-130088142D01*
X122683785Y-129992904D01*
X122683785Y-129183380D01*
X123921880Y-130183380D02*
X123921880Y-129183380D01*
X124255214Y-129897666D01*
X124588547Y-129183380D01*
X124588547Y-130183380D01*
X125445690Y-130135761D02*
X125350452Y-130183380D01*
X125159976Y-130183380D01*
X125064738Y-130135761D01*
X125017119Y-130040523D01*
X125017119Y-129659571D01*
X125064738Y-129564333D01*
X125159976Y-129516714D01*
X125350452Y-129516714D01*
X125445690Y-129564333D01*
X125493309Y-129659571D01*
X125493309Y-129754809D01*
X125017119Y-129850047D01*
X126350452Y-130135761D02*
X126255214Y-130183380D01*
X126064738Y-130183380D01*
X125969500Y-130135761D01*
X125921880Y-130088142D01*
X125874261Y-129992904D01*
X125874261Y-129707190D01*
X125921880Y-129611952D01*
X125969500Y-129564333D01*
X126064738Y-129516714D01*
X126255214Y-129516714D01*
X126350452Y-129564333D01*
X126779023Y-130183380D02*
X126779023Y-129183380D01*
X127207595Y-130183380D02*
X127207595Y-129659571D01*
X127159976Y-129564333D01*
X127064738Y-129516714D01*
X126921880Y-129516714D01*
X126826642Y-129564333D01*
X126779023Y-129611952D01*
X128112357Y-130183380D02*
X128112357Y-129659571D01*
X128064738Y-129564333D01*
X127969500Y-129516714D01*
X127779023Y-129516714D01*
X127683785Y-129564333D01*
X128112357Y-130135761D02*
X128017119Y-130183380D01*
X127779023Y-130183380D01*
X127683785Y-130135761D01*
X127636166Y-130040523D01*
X127636166Y-129945285D01*
X127683785Y-129850047D01*
X127779023Y-129802428D01*
X128017119Y-129802428D01*
X128112357Y-129754809D01*
X128445690Y-129516714D02*
X128826642Y-129516714D01*
X128588547Y-129183380D02*
X128588547Y-130040523D01*
X128636166Y-130135761D01*
X128731404Y-130183380D01*
X128826642Y-130183380D01*
X129159976Y-130183380D02*
X129159976Y-129516714D01*
X129159976Y-129707190D02*
X129207595Y-129611952D01*
X129255214Y-129564333D01*
X129350452Y-129516714D01*
X129445690Y-129516714D01*
X129921880Y-130183380D02*
X129826642Y-130135761D01*
X129779023Y-130088142D01*
X129731404Y-129992904D01*
X129731404Y-129707190D01*
X129779023Y-129611952D01*
X129826642Y-129564333D01*
X129921880Y-129516714D01*
X130064738Y-129516714D01*
X130159976Y-129564333D01*
X130207595Y-129611952D01*
X130255214Y-129707190D01*
X130255214Y-129992904D01*
X130207595Y-130088142D01*
X130159976Y-130135761D01*
X130064738Y-130183380D01*
X129921880Y-130183380D01*
X130683785Y-129516714D02*
X130683785Y-130183380D01*
X130683785Y-129611952D02*
X130731404Y-129564333D01*
X130826642Y-129516714D01*
X130969500Y-129516714D01*
X131064738Y-129564333D01*
X131112357Y-129659571D01*
X131112357Y-130183380D01*
X131588547Y-130183380D02*
X131588547Y-129516714D01*
X131588547Y-129183380D02*
X131540928Y-129231000D01*
X131588547Y-129278619D01*
X131636166Y-129231000D01*
X131588547Y-129183380D01*
X131588547Y-129278619D01*
X132493309Y-130135761D02*
X132398071Y-130183380D01*
X132207595Y-130183380D01*
X132112357Y-130135761D01*
X132064738Y-130088142D01*
X132017119Y-129992904D01*
X132017119Y-129707190D01*
X132064738Y-129611952D01*
X132112357Y-129564333D01*
X132207595Y-129516714D01*
X132398071Y-129516714D01*
X132493309Y-129564333D01*
X132874261Y-130135761D02*
X132969500Y-130183380D01*
X133159976Y-130183380D01*
X133255214Y-130135761D01*
X133302833Y-130040523D01*
X133302833Y-129992904D01*
X133255214Y-129897666D01*
X133159976Y-129850047D01*
X133017119Y-129850047D01*
X132921880Y-129802428D01*
X132874261Y-129707190D01*
X132874261Y-129659571D01*
X132921880Y-129564333D01*
X133017119Y-129516714D01*
X133159976Y-129516714D01*
X133255214Y-129564333D01*
X119207595Y-131833380D02*
X119207595Y-130833380D01*
X119445690Y-130833380D01*
X119588547Y-130881000D01*
X119683785Y-130976238D01*
X119731404Y-131071476D01*
X119779023Y-131261952D01*
X119779023Y-131404809D01*
X119731404Y-131595285D01*
X119683785Y-131690523D01*
X119588547Y-131785761D01*
X119445690Y-131833380D01*
X119207595Y-131833380D01*
X120588547Y-131785761D02*
X120493309Y-131833380D01*
X120302833Y-131833380D01*
X120207595Y-131785761D01*
X120159976Y-131690523D01*
X120159976Y-131309571D01*
X120207595Y-131214333D01*
X120302833Y-131166714D01*
X120493309Y-131166714D01*
X120588547Y-131214333D01*
X120636166Y-131309571D01*
X120636166Y-131404809D01*
X120159976Y-131500047D01*
X121017119Y-131785761D02*
X121112357Y-131833380D01*
X121302833Y-131833380D01*
X121398071Y-131785761D01*
X121445690Y-131690523D01*
X121445690Y-131642904D01*
X121398071Y-131547666D01*
X121302833Y-131500047D01*
X121159976Y-131500047D01*
X121064738Y-131452428D01*
X121017119Y-131357190D01*
X121017119Y-131309571D01*
X121064738Y-131214333D01*
X121159976Y-131166714D01*
X121302833Y-131166714D01*
X121398071Y-131214333D01*
X121874261Y-131833380D02*
X121874261Y-131166714D01*
X121874261Y-130833380D02*
X121826642Y-130881000D01*
X121874261Y-130928619D01*
X121921880Y-130881000D01*
X121874261Y-130833380D01*
X121874261Y-130928619D01*
X122779023Y-131166714D02*
X122779023Y-131976238D01*
X122731404Y-132071476D01*
X122683785Y-132119095D01*
X122588547Y-132166714D01*
X122445690Y-132166714D01*
X122350452Y-132119095D01*
X122779023Y-131785761D02*
X122683785Y-131833380D01*
X122493309Y-131833380D01*
X122398071Y-131785761D01*
X122350452Y-131738142D01*
X122302833Y-131642904D01*
X122302833Y-131357190D01*
X122350452Y-131261952D01*
X122398071Y-131214333D01*
X122493309Y-131166714D01*
X122683785Y-131166714D01*
X122779023Y-131214333D01*
X123255214Y-131166714D02*
X123255214Y-131833380D01*
X123255214Y-131261952D02*
X123302833Y-131214333D01*
X123398071Y-131166714D01*
X123540928Y-131166714D01*
X123636166Y-131214333D01*
X123683785Y-131309571D01*
X123683785Y-131833380D01*
X124540928Y-131785761D02*
X124445690Y-131833380D01*
X124255214Y-131833380D01*
X124159976Y-131785761D01*
X124112357Y-131690523D01*
X124112357Y-131309571D01*
X124159976Y-131214333D01*
X124255214Y-131166714D01*
X124445690Y-131166714D01*
X124540928Y-131214333D01*
X124588547Y-131309571D01*
X124588547Y-131404809D01*
X124112357Y-131500047D01*
X125445690Y-131833380D02*
X125445690Y-130833380D01*
X125445690Y-131785761D02*
X125350452Y-131833380D01*
X125159976Y-131833380D01*
X125064738Y-131785761D01*
X125017119Y-131738142D01*
X124969500Y-131642904D01*
X124969500Y-131357190D01*
X125017119Y-131261952D01*
X125064738Y-131214333D01*
X125159976Y-131166714D01*
X125350452Y-131166714D01*
X125445690Y-131214333D01*
X127017119Y-131309571D02*
X127159976Y-131357190D01*
X127207595Y-131404809D01*
X127255214Y-131500047D01*
X127255214Y-131642904D01*
X127207595Y-131738142D01*
X127159976Y-131785761D01*
X127064738Y-131833380D01*
X126683785Y-131833380D01*
X126683785Y-130833380D01*
X127017119Y-130833380D01*
X127112357Y-130881000D01*
X127159976Y-130928619D01*
X127207595Y-131023857D01*
X127207595Y-131119095D01*
X127159976Y-131214333D01*
X127112357Y-131261952D01*
X127017119Y-131309571D01*
X126683785Y-131309571D01*
X127588547Y-131166714D02*
X127826642Y-131833380D01*
X128064738Y-131166714D02*
X127826642Y-131833380D01*
X127731404Y-132071476D01*
X127683785Y-132119095D01*
X127588547Y-132166714D01*
X128445690Y-131738142D02*
X128493309Y-131785761D01*
X128445690Y-131833380D01*
X128398071Y-131785761D01*
X128445690Y-131738142D01*
X128445690Y-131833380D01*
X128445690Y-131214333D02*
X128493309Y-131261952D01*
X128445690Y-131309571D01*
X128398071Y-131261952D01*
X128445690Y-131214333D01*
X128445690Y-131309571D01*
X129540928Y-130833380D02*
X130112357Y-130833380D01*
X129826642Y-131833380D02*
X129826642Y-130833380D01*
X130445690Y-131833380D02*
X130445690Y-131166714D01*
X130445690Y-131357190D02*
X130493309Y-131261952D01*
X130540928Y-131214333D01*
X130636166Y-131166714D01*
X130731404Y-131166714D01*
X131064738Y-131833380D02*
X131064738Y-131166714D01*
X131064738Y-130833380D02*
X131017119Y-130881000D01*
X131064738Y-130928619D01*
X131112357Y-130881000D01*
X131064738Y-130833380D01*
X131064738Y-130928619D01*
X131493309Y-131785761D02*
X131588547Y-131833380D01*
X131779023Y-131833380D01*
X131874261Y-131785761D01*
X131921880Y-131690523D01*
X131921880Y-131642904D01*
X131874261Y-131547666D01*
X131779023Y-131500047D01*
X131636166Y-131500047D01*
X131540928Y-131452428D01*
X131493309Y-131357190D01*
X131493309Y-131309571D01*
X131540928Y-131214333D01*
X131636166Y-131166714D01*
X131779023Y-131166714D01*
X131874261Y-131214333D01*
X132207595Y-131166714D02*
X132588547Y-131166714D01*
X132350452Y-130833380D02*
X132350452Y-131690523D01*
X132398071Y-131785761D01*
X132493309Y-131833380D01*
X132588547Y-131833380D01*
X133350452Y-131833380D02*
X133350452Y-131309571D01*
X133302833Y-131214333D01*
X133207595Y-131166714D01*
X133017119Y-131166714D01*
X132921880Y-131214333D01*
X133350452Y-131785761D02*
X133255214Y-131833380D01*
X133017119Y-131833380D01*
X132921880Y-131785761D01*
X132874261Y-131690523D01*
X132874261Y-131595285D01*
X132921880Y-131500047D01*
X133017119Y-131452428D01*
X133255214Y-131452428D01*
X133350452Y-131404809D01*
X133826642Y-131166714D02*
X133826642Y-131833380D01*
X133826642Y-131261952D02*
X133874261Y-131214333D01*
X133969500Y-131166714D01*
X134112357Y-131166714D01*
X134207595Y-131214333D01*
X134255214Y-131309571D01*
X134255214Y-131833380D01*
X136064738Y-131833380D02*
X135731404Y-131357190D01*
X135493309Y-131833380D02*
X135493309Y-130833380D01*
X135874261Y-130833380D01*
X135969500Y-130881000D01*
X136017119Y-130928619D01*
X136064738Y-131023857D01*
X136064738Y-131166714D01*
X136017119Y-131261952D01*
X135969500Y-131309571D01*
X135874261Y-131357190D01*
X135493309Y-131357190D01*
X136493309Y-131833380D02*
X136493309Y-131166714D01*
X136493309Y-130833380D02*
X136445690Y-130881000D01*
X136493309Y-130928619D01*
X136540928Y-130881000D01*
X136493309Y-130833380D01*
X136493309Y-130928619D01*
X137398071Y-131785761D02*
X137302833Y-131833380D01*
X137112357Y-131833380D01*
X137017119Y-131785761D01*
X136969500Y-131738142D01*
X136921880Y-131642904D01*
X136921880Y-131357190D01*
X136969500Y-131261952D01*
X137017119Y-131214333D01*
X137112357Y-131166714D01*
X137302833Y-131166714D01*
X137398071Y-131214333D01*
X137826642Y-131833380D02*
X137826642Y-130833380D01*
X138255214Y-131833380D02*
X138255214Y-131309571D01*
X138207595Y-131214333D01*
X138112357Y-131166714D01*
X137969500Y-131166714D01*
X137874261Y-131214333D01*
X137826642Y-131261952D01*
X138731404Y-131833380D02*
X138731404Y-131166714D01*
X138731404Y-131261952D02*
X138779023Y-131214333D01*
X138874261Y-131166714D01*
X139017119Y-131166714D01*
X139112357Y-131214333D01*
X139159976Y-131309571D01*
X139159976Y-131833380D01*
X139159976Y-131309571D02*
X139207595Y-131214333D01*
X139302833Y-131166714D01*
X139445690Y-131166714D01*
X139540928Y-131214333D01*
X139588547Y-131309571D01*
X139588547Y-131833380D01*
X140207595Y-131833380D02*
X140112357Y-131785761D01*
X140064738Y-131738142D01*
X140017119Y-131642904D01*
X140017119Y-131357190D01*
X140064738Y-131261952D01*
X140112357Y-131214333D01*
X140207595Y-131166714D01*
X140350452Y-131166714D01*
X140445690Y-131214333D01*
X140493309Y-131261952D01*
X140540928Y-131357190D01*
X140540928Y-131642904D01*
X140493309Y-131738142D01*
X140445690Y-131785761D01*
X140350452Y-131833380D01*
X140207595Y-131833380D01*
X140969500Y-131166714D02*
X140969500Y-131833380D01*
X140969500Y-131261952D02*
X141017119Y-131214333D01*
X141112357Y-131166714D01*
X141255214Y-131166714D01*
X141350452Y-131214333D01*
X141398071Y-131309571D01*
X141398071Y-131833380D01*
X142302833Y-131833380D02*
X142302833Y-130833380D01*
X142302833Y-131785761D02*
X142207595Y-131833380D01*
X142017119Y-131833380D01*
X141921880Y-131785761D01*
X141874261Y-131738142D01*
X141826642Y-131642904D01*
X141826642Y-131357190D01*
X141874261Y-131261952D01*
X141921880Y-131214333D01*
X142017119Y-131166714D01*
X142207595Y-131166714D01*
X142302833Y-131214333D01*
X120017119Y-133483380D02*
X119969500Y-133483380D01*
X119874261Y-133435761D01*
X119731404Y-133292904D01*
X119493309Y-133007190D01*
X119398071Y-132864333D01*
X119350452Y-132721476D01*
X119350452Y-132626238D01*
X119398071Y-132531000D01*
X119493309Y-132483380D01*
X119540928Y-132483380D01*
X119636166Y-132531000D01*
X119683785Y-132626238D01*
X119683785Y-132673857D01*
X119636166Y-132769095D01*
X119588547Y-132816714D01*
X119302833Y-133007190D01*
X119255214Y-133054809D01*
X119207595Y-133150047D01*
X119207595Y-133292904D01*
X119255214Y-133388142D01*
X119302833Y-133435761D01*
X119398071Y-133483380D01*
X119540928Y-133483380D01*
X119636166Y-133435761D01*
X119683785Y-133388142D01*
X119826642Y-133197666D01*
X119874261Y-133054809D01*
X119874261Y-132959571D01*
X121207595Y-133483380D02*
X121207595Y-132483380D01*
X121445690Y-132483380D01*
X121588547Y-132531000D01*
X121683785Y-132626238D01*
X121731404Y-132721476D01*
X121779023Y-132911952D01*
X121779023Y-133054809D01*
X121731404Y-133245285D01*
X121683785Y-133340523D01*
X121588547Y-133435761D01*
X121445690Y-133483380D01*
X121207595Y-133483380D01*
X122636166Y-133483380D02*
X122636166Y-132959571D01*
X122588547Y-132864333D01*
X122493309Y-132816714D01*
X122302833Y-132816714D01*
X122207595Y-132864333D01*
X122636166Y-133435761D02*
X122540928Y-133483380D01*
X122302833Y-133483380D01*
X122207595Y-133435761D01*
X122159976Y-133340523D01*
X122159976Y-133245285D01*
X122207595Y-133150047D01*
X122302833Y-133102428D01*
X122540928Y-133102428D01*
X122636166Y-133054809D01*
X123017119Y-132816714D02*
X123255214Y-133483380D01*
X123493309Y-132816714D01*
X123874261Y-133483380D02*
X123874261Y-132816714D01*
X123874261Y-132483380D02*
X123826642Y-132531000D01*
X123874261Y-132578619D01*
X123921880Y-132531000D01*
X123874261Y-132483380D01*
X123874261Y-132578619D01*
X124779023Y-133483380D02*
X124779023Y-132483380D01*
X124779023Y-133435761D02*
X124683785Y-133483380D01*
X124493309Y-133483380D01*
X124398071Y-133435761D01*
X124350452Y-133388142D01*
X124302833Y-133292904D01*
X124302833Y-133007190D01*
X124350452Y-132911952D01*
X124398071Y-132864333D01*
X124493309Y-132816714D01*
X124683785Y-132816714D01*
X124779023Y-132864333D01*
X125921880Y-132483380D02*
X126159976Y-133483380D01*
X126350452Y-132769095D01*
X126540928Y-133483380D01*
X126779023Y-132483380D01*
X127588547Y-133483380D02*
X127588547Y-132959571D01*
X127540928Y-132864333D01*
X127445690Y-132816714D01*
X127255214Y-132816714D01*
X127159976Y-132864333D01*
X127588547Y-133435761D02*
X127493309Y-133483380D01*
X127255214Y-133483380D01*
X127159976Y-133435761D01*
X127112357Y-133340523D01*
X127112357Y-133245285D01*
X127159976Y-133150047D01*
X127255214Y-133102428D01*
X127493309Y-133102428D01*
X127588547Y-133054809D01*
X128207595Y-133483380D02*
X128112357Y-133435761D01*
X128064738Y-133340523D01*
X128064738Y-132483380D01*
X128588547Y-133483380D02*
X128588547Y-132483380D01*
X128683785Y-133102428D02*
X128969500Y-133483380D01*
X128969500Y-132816714D02*
X128588547Y-133197666D01*
X129779023Y-133435761D02*
X129683785Y-133483380D01*
X129493309Y-133483380D01*
X129398071Y-133435761D01*
X129350452Y-133340523D01*
X129350452Y-132959571D01*
X129398071Y-132864333D01*
X129493309Y-132816714D01*
X129683785Y-132816714D01*
X129779023Y-132864333D01*
X129826642Y-132959571D01*
X129826642Y-133054809D01*
X129350452Y-133150047D01*
X130255214Y-133483380D02*
X130255214Y-132816714D01*
X130255214Y-133007190D02*
X130302833Y-132911952D01*
X130350452Y-132864333D01*
X130445690Y-132816714D01*
X130540928Y-132816714D01*
X130874261Y-133102428D02*
X131636166Y-133102428D01*
X132112357Y-133483380D02*
X132112357Y-132483380D01*
X132112357Y-132959571D02*
X132683785Y-132959571D01*
X132683785Y-133483380D02*
X132683785Y-132483380D01*
X133302833Y-133483380D02*
X133207595Y-133435761D01*
X133159976Y-133388142D01*
X133112357Y-133292904D01*
X133112357Y-133007190D01*
X133159976Y-132911952D01*
X133207595Y-132864333D01*
X133302833Y-132816714D01*
X133445690Y-132816714D01*
X133540928Y-132864333D01*
X133588547Y-132911952D01*
X133636166Y-133007190D01*
X133636166Y-133292904D01*
X133588547Y-133388142D01*
X133540928Y-133435761D01*
X133445690Y-133483380D01*
X133302833Y-133483380D01*
X133969500Y-132816714D02*
X134159976Y-133483380D01*
X134350452Y-133007190D01*
X134540928Y-133483380D01*
X134731404Y-132816714D01*
X135493309Y-133435761D02*
X135398071Y-133483380D01*
X135207595Y-133483380D01*
X135112357Y-133435761D01*
X135064738Y-133340523D01*
X135064738Y-132959571D01*
X135112357Y-132864333D01*
X135207595Y-132816714D01*
X135398071Y-132816714D01*
X135493309Y-132864333D01*
X135540928Y-132959571D01*
X135540928Y-133054809D01*
X135064738Y-133150047D01*
X136112357Y-133483380D02*
X136017119Y-133435761D01*
X135969500Y-133340523D01*
X135969500Y-132483380D01*
X136636166Y-133483380D02*
X136540928Y-133435761D01*
X136493309Y-133340523D01*
X136493309Y-132483380D01*
D11*
%TO.C,U1*%
X139726000Y-101220000D02*
X140346000Y-101220000D01*
X140346000Y-101220000D02*
X140346000Y-94920000D01*
X140346000Y-94920000D02*
X151246000Y-94920000D01*
X151246000Y-94920000D02*
X151246000Y-101220000D01*
X151246000Y-101220000D02*
X151876000Y-101220000D01*
X153746000Y-105120000D02*
X155296000Y-105120000D01*
X155296000Y-105120000D02*
X155296000Y-113220000D01*
X155296000Y-113220000D02*
X153746000Y-113220000D01*
X153746000Y-113220000D02*
X153746000Y-114340000D01*
X151876000Y-117120000D02*
X150646000Y-117120000D01*
X150646000Y-117120000D02*
X150646000Y-120320000D01*
X140946000Y-120320000D02*
X140946000Y-117120000D01*
X140946000Y-117120000D02*
X139726000Y-117120000D01*
X137846000Y-114390000D02*
X137846000Y-114120000D01*
X137846000Y-114120000D02*
X134696000Y-114120000D01*
X134696000Y-114120000D02*
X134696000Y-104320000D01*
X134696000Y-104320000D02*
X137846000Y-104320000D01*
D12*
X139846000Y-95870000D02*
G75*
G03*
X139846000Y-95870000I-100000J0D01*
G01*
D13*
%TO.C,SW4*%
X184504000Y-116238000D02*
X196804000Y-116238000D01*
X196804000Y-120818000D02*
X196804000Y-123958000D01*
X196804000Y-128538000D02*
X184504000Y-128538000D01*
X184504000Y-118958000D02*
X184504000Y-116238000D01*
X195333050Y-122428000D02*
G75*
G03*
X195333050Y-122428000I-4579050J0D01*
G01*
X184504000Y-128538000D02*
X184504000Y-125818000D01*
X184504000Y-123958000D02*
X184504000Y-120818000D01*
X196804000Y-125818000D02*
X196804000Y-128538000D01*
X196804000Y-116238000D02*
X196804000Y-118958000D01*
%TO.C,SW3*%
X175360000Y-102094000D02*
X187660000Y-102094000D01*
X187660000Y-106674000D02*
X187660000Y-109814000D01*
X187660000Y-114394000D02*
X175360000Y-114394000D01*
X175360000Y-104814000D02*
X175360000Y-102094000D01*
X186189050Y-108284000D02*
G75*
G03*
X186189050Y-108284000I-4579050J0D01*
G01*
X175360000Y-114394000D02*
X175360000Y-111674000D01*
X175360000Y-109814000D02*
X175360000Y-106674000D01*
X187660000Y-111674000D02*
X187660000Y-114394000D01*
X187660000Y-102094000D02*
X187660000Y-104814000D01*
%TO.C,SW2*%
X193648000Y-102014000D02*
X205948000Y-102014000D01*
X205948000Y-106594000D02*
X205948000Y-109734000D01*
X205948000Y-114314000D02*
X193648000Y-114314000D01*
X193648000Y-104734000D02*
X193648000Y-102014000D01*
X204477050Y-108204000D02*
G75*
G03*
X204477050Y-108204000I-4579050J0D01*
G01*
X193648000Y-114314000D02*
X193648000Y-111594000D01*
X193648000Y-109734000D02*
X193648000Y-106594000D01*
X205948000Y-111594000D02*
X205948000Y-114314000D01*
X205948000Y-102014000D02*
X205948000Y-104734000D01*
%TO.C,SW1*%
X184504000Y-87790000D02*
X196804000Y-87790000D01*
X196804000Y-92370000D02*
X196804000Y-95510000D01*
X196804000Y-100090000D02*
X184504000Y-100090000D01*
X184504000Y-90510000D02*
X184504000Y-87790000D01*
X195333050Y-93980000D02*
G75*
G03*
X195333050Y-93980000I-4579050J0D01*
G01*
X184504000Y-100090000D02*
X184504000Y-97370000D01*
X184504000Y-95510000D02*
X184504000Y-92370000D01*
X196804000Y-97370000D02*
X196804000Y-100090000D01*
X196804000Y-87790000D02*
X196804000Y-90510000D01*
%TO.C,R10*%
X180186000Y-90202000D02*
X177446000Y-90202000D01*
X177446000Y-90202000D02*
X177446000Y-96742000D01*
X177446000Y-96742000D02*
X180186000Y-96742000D01*
X180186000Y-96742000D02*
X180186000Y-90202000D01*
X178816000Y-89432000D02*
X178816000Y-90202000D01*
X178816000Y-97512000D02*
X178816000Y-96742000D01*
%TO.C,R9*%
X173382000Y-96742000D02*
X176122000Y-96742000D01*
X176122000Y-96742000D02*
X176122000Y-90202000D01*
X176122000Y-90202000D02*
X173382000Y-90202000D01*
X173382000Y-90202000D02*
X173382000Y-96742000D01*
X174752000Y-97512000D02*
X174752000Y-96742000D01*
X174752000Y-89432000D02*
X174752000Y-90202000D01*
%TO.C,R8*%
X168942000Y-117502000D02*
X168942000Y-120242000D01*
X168942000Y-120242000D02*
X175482000Y-120242000D01*
X175482000Y-120242000D02*
X175482000Y-117502000D01*
X175482000Y-117502000D02*
X168942000Y-117502000D01*
X168172000Y-118872000D02*
X168942000Y-118872000D01*
X176252000Y-118872000D02*
X175482000Y-118872000D01*
%TO.C,R7*%
X160682000Y-126714000D02*
X163422000Y-126714000D01*
X163422000Y-126714000D02*
X163422000Y-120174000D01*
X163422000Y-120174000D02*
X160682000Y-120174000D01*
X160682000Y-120174000D02*
X160682000Y-126714000D01*
X162052000Y-127484000D02*
X162052000Y-126714000D01*
X162052000Y-119404000D02*
X162052000Y-120174000D01*
%TO.C,R6*%
X160374000Y-88170000D02*
X157634000Y-88170000D01*
X157634000Y-88170000D02*
X157634000Y-94710000D01*
X157634000Y-94710000D02*
X160374000Y-94710000D01*
X160374000Y-94710000D02*
X160374000Y-88170000D01*
X159004000Y-87400000D02*
X159004000Y-88170000D01*
X159004000Y-95480000D02*
X159004000Y-94710000D01*
%TO.C,R5*%
X156818000Y-88170000D02*
X154078000Y-88170000D01*
X154078000Y-88170000D02*
X154078000Y-94710000D01*
X154078000Y-94710000D02*
X156818000Y-94710000D01*
X156818000Y-94710000D02*
X156818000Y-88170000D01*
X155448000Y-87400000D02*
X155448000Y-88170000D01*
X155448000Y-95480000D02*
X155448000Y-94710000D01*
%TO.C,R4*%
X163930000Y-88170000D02*
X161190000Y-88170000D01*
X161190000Y-88170000D02*
X161190000Y-94710000D01*
X161190000Y-94710000D02*
X163930000Y-94710000D01*
X163930000Y-94710000D02*
X163930000Y-88170000D01*
X162560000Y-87400000D02*
X162560000Y-88170000D01*
X162560000Y-95480000D02*
X162560000Y-94710000D01*
%TO.C,R3*%
X167486000Y-88170000D02*
X164746000Y-88170000D01*
X164746000Y-88170000D02*
X164746000Y-94710000D01*
X164746000Y-94710000D02*
X167486000Y-94710000D01*
X167486000Y-94710000D02*
X167486000Y-88170000D01*
X166116000Y-87400000D02*
X166116000Y-88170000D01*
X166116000Y-95480000D02*
X166116000Y-94710000D01*
%TO.C,R2*%
X171042000Y-88170000D02*
X168302000Y-88170000D01*
X168302000Y-88170000D02*
X168302000Y-94710000D01*
X168302000Y-94710000D02*
X171042000Y-94710000D01*
X171042000Y-94710000D02*
X171042000Y-88170000D01*
X169672000Y-87400000D02*
X169672000Y-88170000D01*
X169672000Y-95480000D02*
X169672000Y-94710000D01*
%TO.C,R1*%
X168942000Y-123598000D02*
X168942000Y-126338000D01*
X168942000Y-126338000D02*
X175482000Y-126338000D01*
X175482000Y-126338000D02*
X175482000Y-123598000D01*
X175482000Y-123598000D02*
X168942000Y-123598000D01*
X168172000Y-124968000D02*
X168942000Y-124968000D01*
X176252000Y-124968000D02*
X175482000Y-124968000D01*
%TO.C,D5*%
X140404000Y-89407538D02*
G75*
G02*
X134854000Y-90952830I-2990000J-462D01*
G01*
X140404000Y-89408462D02*
G75*
G03*
X134854000Y-87863170I-2990000J462D01*
G01*
X139914000Y-89408000D02*
G75*
G03*
X139914000Y-89408000I-2500000J0D01*
G01*
X134854000Y-87863000D02*
X134854000Y-90953000D01*
%TO.C,D4*%
X130244000Y-109219538D02*
G75*
G02*
X124694000Y-110764830I-2990000J-462D01*
G01*
X130244000Y-109220462D02*
G75*
G03*
X124694000Y-107675170I-2990000J462D01*
G01*
X129754000Y-109220000D02*
G75*
G03*
X129754000Y-109220000I-2500000J0D01*
G01*
X124694000Y-107675000D02*
X124694000Y-110765000D01*
%TO.C,D3*%
X148532000Y-127507538D02*
G75*
G02*
X142982000Y-129052830I-2990000J-462D01*
G01*
X148532000Y-127508462D02*
G75*
G03*
X142982000Y-125963170I-2990000J462D01*
G01*
X148042000Y-127508000D02*
G75*
G03*
X148042000Y-127508000I-2500000J0D01*
G01*
X142982000Y-125963000D02*
X142982000Y-129053000D01*
%TO.C,D2*%
X167836000Y-108711538D02*
G75*
G02*
X162286000Y-110256830I-2990000J-462D01*
G01*
X167836000Y-108712462D02*
G75*
G03*
X162286000Y-107167170I-2990000J462D01*
G01*
X167346000Y-108712000D02*
G75*
G03*
X167346000Y-108712000I-2500000J0D01*
G01*
X162286000Y-107167000D02*
X162286000Y-110257000D01*
%TO.C,D1*%
X148532000Y-89407538D02*
G75*
G02*
X142982000Y-90952830I-2990000J-462D01*
G01*
X148532000Y-89408462D02*
G75*
G03*
X142982000Y-87863170I-2990000J462D01*
G01*
X148042000Y-89408000D02*
G75*
G03*
X148042000Y-89408000I-2500000J0D01*
G01*
X142982000Y-87863000D02*
X142982000Y-90953000D01*
%TO.C,U1*%
D14*
X142409095Y-93437380D02*
X142409095Y-94246904D01*
X142456714Y-94342142D01*
X142504333Y-94389761D01*
X142599571Y-94437380D01*
X142790047Y-94437380D01*
X142885285Y-94389761D01*
X142932904Y-94342142D01*
X142980523Y-94246904D01*
X142980523Y-93437380D01*
X143980523Y-94437380D02*
X143409095Y-94437380D01*
X143694809Y-94437380D02*
X143694809Y-93437380D01*
X143599571Y-93580238D01*
X143504333Y-93675476D01*
X143409095Y-93723095D01*
%TO.C,SW4*%
D10*
X189150666Y-115632761D02*
X189293523Y-115680380D01*
X189531619Y-115680380D01*
X189626857Y-115632761D01*
X189674476Y-115585142D01*
X189722095Y-115489904D01*
X189722095Y-115394666D01*
X189674476Y-115299428D01*
X189626857Y-115251809D01*
X189531619Y-115204190D01*
X189341142Y-115156571D01*
X189245904Y-115108952D01*
X189198285Y-115061333D01*
X189150666Y-114966095D01*
X189150666Y-114870857D01*
X189198285Y-114775619D01*
X189245904Y-114728000D01*
X189341142Y-114680380D01*
X189579238Y-114680380D01*
X189722095Y-114728000D01*
X190055428Y-114680380D02*
X190293523Y-115680380D01*
X190484000Y-114966095D01*
X190674476Y-115680380D01*
X190912571Y-114680380D01*
X191722095Y-115013714D02*
X191722095Y-115680380D01*
X191484000Y-114632761D02*
X191245904Y-115347047D01*
X191864952Y-115347047D01*
%TO.C,SW3*%
X180006666Y-101488761D02*
X180149523Y-101536380D01*
X180387619Y-101536380D01*
X180482857Y-101488761D01*
X180530476Y-101441142D01*
X180578095Y-101345904D01*
X180578095Y-101250666D01*
X180530476Y-101155428D01*
X180482857Y-101107809D01*
X180387619Y-101060190D01*
X180197142Y-101012571D01*
X180101904Y-100964952D01*
X180054285Y-100917333D01*
X180006666Y-100822095D01*
X180006666Y-100726857D01*
X180054285Y-100631619D01*
X180101904Y-100584000D01*
X180197142Y-100536380D01*
X180435238Y-100536380D01*
X180578095Y-100584000D01*
X180911428Y-100536380D02*
X181149523Y-101536380D01*
X181340000Y-100822095D01*
X181530476Y-101536380D01*
X181768571Y-100536380D01*
X182054285Y-100536380D02*
X182673333Y-100536380D01*
X182340000Y-100917333D01*
X182482857Y-100917333D01*
X182578095Y-100964952D01*
X182625714Y-101012571D01*
X182673333Y-101107809D01*
X182673333Y-101345904D01*
X182625714Y-101441142D01*
X182578095Y-101488761D01*
X182482857Y-101536380D01*
X182197142Y-101536380D01*
X182101904Y-101488761D01*
X182054285Y-101441142D01*
%TO.C,SW2*%
X198294666Y-101408761D02*
X198437523Y-101456380D01*
X198675619Y-101456380D01*
X198770857Y-101408761D01*
X198818476Y-101361142D01*
X198866095Y-101265904D01*
X198866095Y-101170666D01*
X198818476Y-101075428D01*
X198770857Y-101027809D01*
X198675619Y-100980190D01*
X198485142Y-100932571D01*
X198389904Y-100884952D01*
X198342285Y-100837333D01*
X198294666Y-100742095D01*
X198294666Y-100646857D01*
X198342285Y-100551619D01*
X198389904Y-100504000D01*
X198485142Y-100456380D01*
X198723238Y-100456380D01*
X198866095Y-100504000D01*
X199199428Y-100456380D02*
X199437523Y-101456380D01*
X199628000Y-100742095D01*
X199818476Y-101456380D01*
X200056571Y-100456380D01*
X200389904Y-100551619D02*
X200437523Y-100504000D01*
X200532761Y-100456380D01*
X200770857Y-100456380D01*
X200866095Y-100504000D01*
X200913714Y-100551619D01*
X200961333Y-100646857D01*
X200961333Y-100742095D01*
X200913714Y-100884952D01*
X200342285Y-101456380D01*
X200961333Y-101456380D01*
%TO.C,SW1*%
X189150666Y-87184761D02*
X189293523Y-87232380D01*
X189531619Y-87232380D01*
X189626857Y-87184761D01*
X189674476Y-87137142D01*
X189722095Y-87041904D01*
X189722095Y-86946666D01*
X189674476Y-86851428D01*
X189626857Y-86803809D01*
X189531619Y-86756190D01*
X189341142Y-86708571D01*
X189245904Y-86660952D01*
X189198285Y-86613333D01*
X189150666Y-86518095D01*
X189150666Y-86422857D01*
X189198285Y-86327619D01*
X189245904Y-86280000D01*
X189341142Y-86232380D01*
X189579238Y-86232380D01*
X189722095Y-86280000D01*
X190055428Y-86232380D02*
X190293523Y-87232380D01*
X190484000Y-86518095D01*
X190674476Y-87232380D01*
X190912571Y-86232380D01*
X191817333Y-87232380D02*
X191245904Y-87232380D01*
X191531619Y-87232380D02*
X191531619Y-86232380D01*
X191436380Y-86375238D01*
X191341142Y-86470476D01*
X191245904Y-86518095D01*
%TO.C,R10*%
X181638380Y-94114857D02*
X181162190Y-94448190D01*
X181638380Y-94686285D02*
X180638380Y-94686285D01*
X180638380Y-94305333D01*
X180686000Y-94210095D01*
X180733619Y-94162476D01*
X180828857Y-94114857D01*
X180971714Y-94114857D01*
X181066952Y-94162476D01*
X181114571Y-94210095D01*
X181162190Y-94305333D01*
X181162190Y-94686285D01*
X181638380Y-93162476D02*
X181638380Y-93733904D01*
X181638380Y-93448190D02*
X180638380Y-93448190D01*
X180781238Y-93543428D01*
X180876476Y-93638666D01*
X180924095Y-93733904D01*
X180638380Y-92543428D02*
X180638380Y-92448190D01*
X180686000Y-92352952D01*
X180733619Y-92305333D01*
X180828857Y-92257714D01*
X181019333Y-92210095D01*
X181257428Y-92210095D01*
X181447904Y-92257714D01*
X181543142Y-92305333D01*
X181590761Y-92352952D01*
X181638380Y-92448190D01*
X181638380Y-92543428D01*
X181590761Y-92638666D01*
X181543142Y-92686285D01*
X181447904Y-92733904D01*
X181257428Y-92781523D01*
X181019333Y-92781523D01*
X180828857Y-92733904D01*
X180733619Y-92686285D01*
X180686000Y-92638666D01*
X180638380Y-92543428D01*
%TO.C,R9*%
X172834380Y-93638666D02*
X172358190Y-93972000D01*
X172834380Y-94210095D02*
X171834380Y-94210095D01*
X171834380Y-93829142D01*
X171882000Y-93733904D01*
X171929619Y-93686285D01*
X172024857Y-93638666D01*
X172167714Y-93638666D01*
X172262952Y-93686285D01*
X172310571Y-93733904D01*
X172358190Y-93829142D01*
X172358190Y-94210095D01*
X172834380Y-93162476D02*
X172834380Y-92972000D01*
X172786761Y-92876761D01*
X172739142Y-92829142D01*
X172596285Y-92733904D01*
X172405809Y-92686285D01*
X172024857Y-92686285D01*
X171929619Y-92733904D01*
X171882000Y-92781523D01*
X171834380Y-92876761D01*
X171834380Y-93067238D01*
X171882000Y-93162476D01*
X171929619Y-93210095D01*
X172024857Y-93257714D01*
X172262952Y-93257714D01*
X172358190Y-93210095D01*
X172405809Y-93162476D01*
X172453428Y-93067238D01*
X172453428Y-92876761D01*
X172405809Y-92781523D01*
X172358190Y-92733904D01*
X172262952Y-92686285D01*
%TO.C,R8*%
X172045333Y-116954380D02*
X171712000Y-116478190D01*
X171473904Y-116954380D02*
X171473904Y-115954380D01*
X171854857Y-115954380D01*
X171950095Y-116002000D01*
X171997714Y-116049619D01*
X172045333Y-116144857D01*
X172045333Y-116287714D01*
X171997714Y-116382952D01*
X171950095Y-116430571D01*
X171854857Y-116478190D01*
X171473904Y-116478190D01*
X172616761Y-116382952D02*
X172521523Y-116335333D01*
X172473904Y-116287714D01*
X172426285Y-116192476D01*
X172426285Y-116144857D01*
X172473904Y-116049619D01*
X172521523Y-116002000D01*
X172616761Y-115954380D01*
X172807238Y-115954380D01*
X172902476Y-116002000D01*
X172950095Y-116049619D01*
X172997714Y-116144857D01*
X172997714Y-116192476D01*
X172950095Y-116287714D01*
X172902476Y-116335333D01*
X172807238Y-116382952D01*
X172616761Y-116382952D01*
X172521523Y-116430571D01*
X172473904Y-116478190D01*
X172426285Y-116573428D01*
X172426285Y-116763904D01*
X172473904Y-116859142D01*
X172521523Y-116906761D01*
X172616761Y-116954380D01*
X172807238Y-116954380D01*
X172902476Y-116906761D01*
X172950095Y-116859142D01*
X172997714Y-116763904D01*
X172997714Y-116573428D01*
X172950095Y-116478190D01*
X172902476Y-116430571D01*
X172807238Y-116382952D01*
%TO.C,R7*%
X160134380Y-123610666D02*
X159658190Y-123944000D01*
X160134380Y-124182095D02*
X159134380Y-124182095D01*
X159134380Y-123801142D01*
X159182000Y-123705904D01*
X159229619Y-123658285D01*
X159324857Y-123610666D01*
X159467714Y-123610666D01*
X159562952Y-123658285D01*
X159610571Y-123705904D01*
X159658190Y-123801142D01*
X159658190Y-124182095D01*
X159134380Y-123277333D02*
X159134380Y-122610666D01*
X160134380Y-123039238D01*
%TO.C,R6*%
X158837333Y-99004380D02*
X158504000Y-98528190D01*
X158265904Y-99004380D02*
X158265904Y-98004380D01*
X158646857Y-98004380D01*
X158742095Y-98052000D01*
X158789714Y-98099619D01*
X158837333Y-98194857D01*
X158837333Y-98337714D01*
X158789714Y-98432952D01*
X158742095Y-98480571D01*
X158646857Y-98528190D01*
X158265904Y-98528190D01*
X159694476Y-98004380D02*
X159504000Y-98004380D01*
X159408761Y-98052000D01*
X159361142Y-98099619D01*
X159265904Y-98242476D01*
X159218285Y-98432952D01*
X159218285Y-98813904D01*
X159265904Y-98909142D01*
X159313523Y-98956761D01*
X159408761Y-99004380D01*
X159599238Y-99004380D01*
X159694476Y-98956761D01*
X159742095Y-98909142D01*
X159789714Y-98813904D01*
X159789714Y-98575809D01*
X159742095Y-98480571D01*
X159694476Y-98432952D01*
X159599238Y-98385333D01*
X159408761Y-98385333D01*
X159313523Y-98432952D01*
X159265904Y-98480571D01*
X159218285Y-98575809D01*
%TO.C,R5*%
X155281333Y-99004380D02*
X154948000Y-98528190D01*
X154709904Y-99004380D02*
X154709904Y-98004380D01*
X155090857Y-98004380D01*
X155186095Y-98052000D01*
X155233714Y-98099619D01*
X155281333Y-98194857D01*
X155281333Y-98337714D01*
X155233714Y-98432952D01*
X155186095Y-98480571D01*
X155090857Y-98528190D01*
X154709904Y-98528190D01*
X156186095Y-98004380D02*
X155709904Y-98004380D01*
X155662285Y-98480571D01*
X155709904Y-98432952D01*
X155805142Y-98385333D01*
X156043238Y-98385333D01*
X156138476Y-98432952D01*
X156186095Y-98480571D01*
X156233714Y-98575809D01*
X156233714Y-98813904D01*
X156186095Y-98909142D01*
X156138476Y-98956761D01*
X156043238Y-99004380D01*
X155805142Y-99004380D01*
X155709904Y-98956761D01*
X155662285Y-98909142D01*
%TO.C,R4*%
X162393333Y-99004380D02*
X162060000Y-98528190D01*
X161821904Y-99004380D02*
X161821904Y-98004380D01*
X162202857Y-98004380D01*
X162298095Y-98052000D01*
X162345714Y-98099619D01*
X162393333Y-98194857D01*
X162393333Y-98337714D01*
X162345714Y-98432952D01*
X162298095Y-98480571D01*
X162202857Y-98528190D01*
X161821904Y-98528190D01*
X163250476Y-98337714D02*
X163250476Y-99004380D01*
X163012380Y-97956761D02*
X162774285Y-98671047D01*
X163393333Y-98671047D01*
%TO.C,R3*%
X165949333Y-99004380D02*
X165616000Y-98528190D01*
X165377904Y-99004380D02*
X165377904Y-98004380D01*
X165758857Y-98004380D01*
X165854095Y-98052000D01*
X165901714Y-98099619D01*
X165949333Y-98194857D01*
X165949333Y-98337714D01*
X165901714Y-98432952D01*
X165854095Y-98480571D01*
X165758857Y-98528190D01*
X165377904Y-98528190D01*
X166282666Y-98004380D02*
X166901714Y-98004380D01*
X166568380Y-98385333D01*
X166711238Y-98385333D01*
X166806476Y-98432952D01*
X166854095Y-98480571D01*
X166901714Y-98575809D01*
X166901714Y-98813904D01*
X166854095Y-98909142D01*
X166806476Y-98956761D01*
X166711238Y-99004380D01*
X166425523Y-99004380D01*
X166330285Y-98956761D01*
X166282666Y-98909142D01*
%TO.C,R2*%
X169505333Y-99004380D02*
X169172000Y-98528190D01*
X168933904Y-99004380D02*
X168933904Y-98004380D01*
X169314857Y-98004380D01*
X169410095Y-98052000D01*
X169457714Y-98099619D01*
X169505333Y-98194857D01*
X169505333Y-98337714D01*
X169457714Y-98432952D01*
X169410095Y-98480571D01*
X169314857Y-98528190D01*
X168933904Y-98528190D01*
X169886285Y-98099619D02*
X169933904Y-98052000D01*
X170029142Y-98004380D01*
X170267238Y-98004380D01*
X170362476Y-98052000D01*
X170410095Y-98099619D01*
X170457714Y-98194857D01*
X170457714Y-98290095D01*
X170410095Y-98432952D01*
X169838666Y-99004380D01*
X170457714Y-99004380D01*
%TO.C,R1*%
X172045333Y-123050380D02*
X171712000Y-122574190D01*
X171473904Y-123050380D02*
X171473904Y-122050380D01*
X171854857Y-122050380D01*
X171950095Y-122098000D01*
X171997714Y-122145619D01*
X172045333Y-122240857D01*
X172045333Y-122383714D01*
X171997714Y-122478952D01*
X171950095Y-122526571D01*
X171854857Y-122574190D01*
X171473904Y-122574190D01*
X172997714Y-123050380D02*
X172426285Y-123050380D01*
X172712000Y-123050380D02*
X172712000Y-122050380D01*
X172616761Y-122193238D01*
X172521523Y-122288476D01*
X172426285Y-122336095D01*
%TO.C,D5*%
X136675904Y-85900380D02*
X136675904Y-84900380D01*
X136914000Y-84900380D01*
X137056857Y-84948000D01*
X137152095Y-85043238D01*
X137199714Y-85138476D01*
X137247333Y-85328952D01*
X137247333Y-85471809D01*
X137199714Y-85662285D01*
X137152095Y-85757523D01*
X137056857Y-85852761D01*
X136914000Y-85900380D01*
X136675904Y-85900380D01*
X138152095Y-84900380D02*
X137675904Y-84900380D01*
X137628285Y-85376571D01*
X137675904Y-85328952D01*
X137771142Y-85281333D01*
X138009238Y-85281333D01*
X138104476Y-85328952D01*
X138152095Y-85376571D01*
X138199714Y-85471809D01*
X138199714Y-85709904D01*
X138152095Y-85805142D01*
X138104476Y-85852761D01*
X138009238Y-85900380D01*
X137771142Y-85900380D01*
X137675904Y-85852761D01*
X137628285Y-85805142D01*
%TO.C,D4*%
X126515904Y-105712380D02*
X126515904Y-104712380D01*
X126754000Y-104712380D01*
X126896857Y-104760000D01*
X126992095Y-104855238D01*
X127039714Y-104950476D01*
X127087333Y-105140952D01*
X127087333Y-105283809D01*
X127039714Y-105474285D01*
X126992095Y-105569523D01*
X126896857Y-105664761D01*
X126754000Y-105712380D01*
X126515904Y-105712380D01*
X127944476Y-105045714D02*
X127944476Y-105712380D01*
X127706380Y-104664761D02*
X127468285Y-105379047D01*
X128087333Y-105379047D01*
%TO.C,D3*%
X144803904Y-124000380D02*
X144803904Y-123000380D01*
X145042000Y-123000380D01*
X145184857Y-123048000D01*
X145280095Y-123143238D01*
X145327714Y-123238476D01*
X145375333Y-123428952D01*
X145375333Y-123571809D01*
X145327714Y-123762285D01*
X145280095Y-123857523D01*
X145184857Y-123952761D01*
X145042000Y-124000380D01*
X144803904Y-124000380D01*
X145708666Y-123000380D02*
X146327714Y-123000380D01*
X145994380Y-123381333D01*
X146137238Y-123381333D01*
X146232476Y-123428952D01*
X146280095Y-123476571D01*
X146327714Y-123571809D01*
X146327714Y-123809904D01*
X146280095Y-123905142D01*
X146232476Y-123952761D01*
X146137238Y-124000380D01*
X145851523Y-124000380D01*
X145756285Y-123952761D01*
X145708666Y-123905142D01*
%TO.C,D2*%
X164107904Y-105204380D02*
X164107904Y-104204380D01*
X164346000Y-104204380D01*
X164488857Y-104252000D01*
X164584095Y-104347238D01*
X164631714Y-104442476D01*
X164679333Y-104632952D01*
X164679333Y-104775809D01*
X164631714Y-104966285D01*
X164584095Y-105061523D01*
X164488857Y-105156761D01*
X164346000Y-105204380D01*
X164107904Y-105204380D01*
X165060285Y-104299619D02*
X165107904Y-104252000D01*
X165203142Y-104204380D01*
X165441238Y-104204380D01*
X165536476Y-104252000D01*
X165584095Y-104299619D01*
X165631714Y-104394857D01*
X165631714Y-104490095D01*
X165584095Y-104632952D01*
X165012666Y-105204380D01*
X165631714Y-105204380D01*
%TO.C,D1*%
X144803904Y-85900380D02*
X144803904Y-84900380D01*
X145042000Y-84900380D01*
X145184857Y-84948000D01*
X145280095Y-85043238D01*
X145327714Y-85138476D01*
X145375333Y-85328952D01*
X145375333Y-85471809D01*
X145327714Y-85662285D01*
X145280095Y-85757523D01*
X145184857Y-85852761D01*
X145042000Y-85900380D01*
X144803904Y-85900380D01*
X146327714Y-85900380D02*
X145756285Y-85900380D01*
X146042000Y-85900380D02*
X146042000Y-84900380D01*
X145946761Y-85043238D01*
X145851523Y-85138476D01*
X145756285Y-85186095D01*
%TD*%
M02*
