%TF.GenerationSoftware,KiCad,Pcbnew,(5.1.6)-1*%
%TF.CreationDate,2020-10-09T01:51:47-07:00*%
%TF.ProjectId,Joystick_Follower_Hat,4a6f7973-7469-4636-9b5f-466f6c6c6f77,A*%
%TF.SameCoordinates,Original*%
%TF.FileFunction,Legend,Bot*%
%TF.FilePolarity,Positive*%
%FSLAX46Y46*%
G04 Gerber Fmt 4.6, Leading zero omitted, Abs format (unit mm)*
G04 Created by KiCad (PCBNEW (5.1.6)-1) date 2020-10-09 01:51:47*
%MOMM*%
%LPD*%
G01*
G04 APERTURE LIST*
%ADD10C,0.120000*%
%ADD11C,0.150000*%
G04 APERTURE END LIST*
D10*
%TO.C,A1*%
X192662000Y-96770000D02*
X192662000Y-129540000D01*
X192662000Y-129540000D02*
X190122000Y-132080000D01*
X190122000Y-132080000D02*
X190122000Y-134750000D01*
X190122000Y-134750000D02*
X123822000Y-134750000D01*
X123822000Y-134750000D02*
X123822000Y-131570000D01*
X123822000Y-131570000D02*
X121922000Y-131570000D01*
X121922000Y-131570000D02*
X121922000Y-122430000D01*
X121922000Y-122430000D02*
X123822000Y-122430000D01*
X123822000Y-122430000D02*
X123822000Y-102360000D01*
X123822000Y-102360000D02*
X117472000Y-102360000D01*
X117472000Y-102360000D02*
X117472000Y-90680000D01*
X117472000Y-90680000D02*
X123822000Y-90680000D01*
X123822000Y-90680000D02*
X123822000Y-81150000D01*
X123822000Y-81150000D02*
X188472000Y-81150000D01*
X188472000Y-81150000D02*
X190122000Y-82800000D01*
X190122000Y-82800000D02*
X190122000Y-94230000D01*
X190122000Y-94230000D02*
X192662000Y-96770000D01*
D11*
X192230285Y-83478666D02*
X191754095Y-83478666D01*
X192325523Y-83764380D02*
X191992190Y-82764380D01*
X191658857Y-83764380D01*
X190801714Y-83764380D02*
X191373142Y-83764380D01*
X191087428Y-83764380D02*
X191087428Y-82764380D01*
X191182666Y-82907238D01*
X191277904Y-83002476D01*
X191373142Y-83050095D01*
%TD*%
M02*
