%TF.GenerationSoftware,KiCad,Pcbnew,(5.1.6)-1*%
%TF.CreationDate,2020-10-09T01:51:47-07:00*%
%TF.ProjectId,Joystick_Follower_Hat,4a6f7973-7469-4636-9b5f-466f6c6c6f77,A*%
%TF.SameCoordinates,Original*%
%TF.FileFunction,Copper,L1,Top*%
%TF.FilePolarity,Positive*%
%FSLAX46Y46*%
G04 Gerber Fmt 4.6, Leading zero omitted, Abs format (unit mm)*
G04 Created by KiCad (PCBNEW (5.1.6)-1) date 2020-10-09 01:51:47*
%MOMM*%
%LPD*%
G01*
G04 APERTURE LIST*
%TA.AperFunction,ComponentPad*%
%ADD10C,1.778000*%
%TD*%
%TA.AperFunction,ComponentPad*%
%ADD11C,2.286000*%
%TD*%
%TA.AperFunction,ComponentPad*%
%ADD12O,3.048000X1.850000*%
%TD*%
%TA.AperFunction,ComponentPad*%
%ADD13O,1.600000X1.600000*%
%TD*%
%TA.AperFunction,ComponentPad*%
%ADD14C,1.600000*%
%TD*%
%TA.AperFunction,ComponentPad*%
%ADD15C,1.800000*%
%TD*%
%TA.AperFunction,ComponentPad*%
%ADD16R,1.800000X1.800000*%
%TD*%
%TA.AperFunction,ComponentPad*%
%ADD17R,1.600000X1.600000*%
%TD*%
%TA.AperFunction,ViaPad*%
%ADD18C,0.800000*%
%TD*%
%TA.AperFunction,Conductor*%
%ADD19C,0.250000*%
%TD*%
%TA.AperFunction,Conductor*%
%ADD20C,0.254000*%
%TD*%
G04 APERTURE END LIST*
D10*
%TO.P,U1,V3*%
%TO.N,GND*%
X135636000Y-111760000D03*
%TO.P,U1,V2*%
%TO.N,Net-(A1-Pad9)*%
X135636000Y-109220000D03*
%TO.P,U1,V1*%
%TO.N,/5V*%
X135636000Y-106680000D03*
D11*
%TO.P,U1,S4*%
%TO.N,GND*%
X153416000Y-102552500D03*
%TO.P,U1,S3*%
X153416000Y-115887500D03*
%TO.P,U1,S2*%
X138176000Y-115887500D03*
%TO.P,U1,S1*%
X138176000Y-102552500D03*
D10*
%TO.P,U1,H3*%
X148336000Y-119380000D03*
%TO.P,U1,H2*%
%TO.N,Net-(A1-Pad10)*%
X145796000Y-119380000D03*
%TO.P,U1,H1*%
%TO.N,/5V*%
X143256000Y-119380000D03*
%TO.P,U1,B2B*%
%TO.N,N/C*%
X148971000Y-101600000D03*
%TO.P,U1,B2A*%
%TO.N,GND*%
X142621000Y-101600000D03*
%TO.P,U1,B1B*%
%TO.N,N/C*%
X148971000Y-96520000D03*
%TO.P,U1,B1A*%
%TO.N,B1*%
X142621000Y-96520000D03*
%TD*%
D12*
%TO.P,SW4,2*%
%TO.N,Net-(A1-Pad21)*%
X184404000Y-124888000D03*
%TO.P,SW4,1*%
%TO.N,GND*%
X184404000Y-119888000D03*
%TO.P,SW4,2*%
%TO.N,Net-(A1-Pad21)*%
X196904000Y-124888000D03*
%TO.P,SW4,1*%
%TO.N,GND*%
X196904000Y-119888000D03*
%TD*%
%TO.P,SW3,2*%
%TO.N,Net-(A1-Pad20)*%
X175260000Y-110744000D03*
%TO.P,SW3,1*%
%TO.N,GND*%
X175260000Y-105744000D03*
%TO.P,SW3,2*%
%TO.N,Net-(A1-Pad20)*%
X187760000Y-110744000D03*
%TO.P,SW3,1*%
%TO.N,GND*%
X187760000Y-105744000D03*
%TD*%
%TO.P,SW2,2*%
%TO.N,Net-(A1-Pad19)*%
X193548000Y-110664000D03*
%TO.P,SW2,1*%
%TO.N,GND*%
X193548000Y-105664000D03*
%TO.P,SW2,2*%
%TO.N,Net-(A1-Pad19)*%
X206048000Y-110664000D03*
%TO.P,SW2,1*%
%TO.N,GND*%
X206048000Y-105664000D03*
%TD*%
%TO.P,SW1,2*%
%TO.N,Net-(A1-Pad18)*%
X184404000Y-96440000D03*
%TO.P,SW1,1*%
%TO.N,GND*%
X184404000Y-91440000D03*
%TO.P,SW1,2*%
%TO.N,Net-(A1-Pad18)*%
X196904000Y-96440000D03*
%TO.P,SW1,1*%
%TO.N,GND*%
X196904000Y-91440000D03*
%TD*%
D13*
%TO.P,R10,2*%
%TO.N,/5V*%
X178816000Y-98552000D03*
D14*
%TO.P,R10,1*%
%TO.N,B1*%
X178816000Y-88392000D03*
%TD*%
D13*
%TO.P,R9,2*%
%TO.N,Net-(A1-Pad18)*%
X174752000Y-88392000D03*
D14*
%TO.P,R9,1*%
%TO.N,/5V*%
X174752000Y-98552000D03*
%TD*%
D13*
%TO.P,R8,2*%
%TO.N,Net-(A1-Pad19)*%
X177292000Y-118872000D03*
D14*
%TO.P,R8,1*%
%TO.N,/5V*%
X167132000Y-118872000D03*
%TD*%
D13*
%TO.P,R7,2*%
%TO.N,Net-(A1-Pad20)*%
X162052000Y-118364000D03*
D14*
%TO.P,R7,1*%
%TO.N,/5V*%
X162052000Y-128524000D03*
%TD*%
D13*
%TO.P,R6,2*%
%TO.N,Net-(D4-Pad2)*%
X159004000Y-96520000D03*
D14*
%TO.P,R6,1*%
%TO.N,Net-(A1-Pad25)*%
X159004000Y-86360000D03*
%TD*%
D13*
%TO.P,R5,2*%
%TO.N,Net-(D5-Pad2)*%
X155448000Y-96520000D03*
D14*
%TO.P,R5,1*%
%TO.N,Net-(A1-Pad26)*%
X155448000Y-86360000D03*
%TD*%
D13*
%TO.P,R4,2*%
%TO.N,Net-(D3-Pad2)*%
X162560000Y-96520000D03*
D14*
%TO.P,R4,1*%
%TO.N,Net-(A1-Pad24)*%
X162560000Y-86360000D03*
%TD*%
D13*
%TO.P,R3,2*%
%TO.N,Net-(D2-Pad2)*%
X166116000Y-96520000D03*
D14*
%TO.P,R3,1*%
%TO.N,Net-(A1-Pad23)*%
X166116000Y-86360000D03*
%TD*%
D13*
%TO.P,R2,2*%
%TO.N,Net-(D1-Pad2)*%
X169672000Y-96520000D03*
D14*
%TO.P,R2,1*%
%TO.N,Net-(A1-Pad22)*%
X169672000Y-86360000D03*
%TD*%
D13*
%TO.P,R1,2*%
%TO.N,Net-(A1-Pad21)*%
X177292000Y-124968000D03*
D14*
%TO.P,R1,1*%
%TO.N,/5V*%
X167132000Y-124968000D03*
%TD*%
D15*
%TO.P,D5,2*%
%TO.N,Net-(D5-Pad2)*%
X138684000Y-89408000D03*
D16*
%TO.P,D5,1*%
%TO.N,GND*%
X136144000Y-89408000D03*
%TD*%
D15*
%TO.P,D4,2*%
%TO.N,Net-(D4-Pad2)*%
X128524000Y-109220000D03*
D16*
%TO.P,D4,1*%
%TO.N,GND*%
X125984000Y-109220000D03*
%TD*%
D15*
%TO.P,D3,2*%
%TO.N,Net-(D3-Pad2)*%
X146812000Y-127508000D03*
D16*
%TO.P,D3,1*%
%TO.N,GND*%
X144272000Y-127508000D03*
%TD*%
D15*
%TO.P,D2,2*%
%TO.N,Net-(D2-Pad2)*%
X166116000Y-108712000D03*
D16*
%TO.P,D2,1*%
%TO.N,GND*%
X163576000Y-108712000D03*
%TD*%
D15*
%TO.P,D1,2*%
%TO.N,Net-(D1-Pad2)*%
X146812000Y-89408000D03*
D16*
%TO.P,D1,1*%
%TO.N,GND*%
X144272000Y-89408000D03*
%TD*%
D13*
%TO.P,A1,16*%
%TO.N,Net-(A1-Pad16)*%
X184912000Y-83820000D03*
%TO.P,A1,15*%
%TO.N,Net-(A1-Pad15)*%
X187452000Y-83820000D03*
%TO.P,A1,30*%
%TO.N,Net-(A1-Pad30)*%
X147832000Y-83820000D03*
%TO.P,A1,14*%
%TO.N,Net-(A1-Pad14)*%
X187452000Y-132080000D03*
%TO.P,A1,29*%
%TO.N,GND*%
X150372000Y-83820000D03*
%TO.P,A1,13*%
%TO.N,Net-(A1-Pad13)*%
X184912000Y-132080000D03*
%TO.P,A1,28*%
%TO.N,Net-(A1-Pad28)*%
X152912000Y-83820000D03*
%TO.P,A1,12*%
%TO.N,Net-(A1-Pad12)*%
X182372000Y-132080000D03*
%TO.P,A1,27*%
%TO.N,Net-(A1-Pad27)*%
X155452000Y-83820000D03*
%TO.P,A1,11*%
%TO.N,Net-(A1-Pad11)*%
X179832000Y-132080000D03*
%TO.P,A1,26*%
%TO.N,Net-(A1-Pad26)*%
X157992000Y-83820000D03*
%TO.P,A1,10*%
%TO.N,Net-(A1-Pad10)*%
X177292000Y-132080000D03*
%TO.P,A1,25*%
%TO.N,Net-(A1-Pad25)*%
X160532000Y-83820000D03*
%TO.P,A1,9*%
%TO.N,Net-(A1-Pad9)*%
X174752000Y-132080000D03*
%TO.P,A1,24*%
%TO.N,Net-(A1-Pad24)*%
X163072000Y-83820000D03*
%TO.P,A1,8*%
%TO.N,Net-(A1-Pad8)*%
X169672000Y-132080000D03*
%TO.P,A1,23*%
%TO.N,Net-(A1-Pad23)*%
X165612000Y-83820000D03*
%TO.P,A1,7*%
%TO.N,GND*%
X167132000Y-132080000D03*
%TO.P,A1,22*%
%TO.N,Net-(A1-Pad22)*%
X169672000Y-83820000D03*
%TO.P,A1,6*%
%TO.N,GND*%
X164592000Y-132080000D03*
%TO.P,A1,21*%
%TO.N,Net-(A1-Pad21)*%
X172212000Y-83820000D03*
%TO.P,A1,5*%
%TO.N,/5V*%
X162052000Y-132080000D03*
%TO.P,A1,20*%
%TO.N,Net-(A1-Pad20)*%
X174752000Y-83820000D03*
%TO.P,A1,4*%
%TO.N,Net-(A1-Pad4)*%
X159512000Y-132080000D03*
%TO.P,A1,19*%
%TO.N,Net-(A1-Pad19)*%
X177292000Y-83820000D03*
%TO.P,A1,3*%
%TO.N,Net-(A1-Pad3)*%
X156972000Y-132080000D03*
%TO.P,A1,18*%
%TO.N,Net-(A1-Pad18)*%
X179832000Y-83820000D03*
%TO.P,A1,2*%
%TO.N,Net-(A1-Pad2)*%
X154432000Y-132080000D03*
%TO.P,A1,17*%
%TO.N,B1*%
X182372000Y-83820000D03*
D17*
%TO.P,A1,1*%
%TO.N,Net-(A1-Pad1)*%
X151892000Y-132080000D03*
D13*
%TO.P,A1,31*%
%TO.N,Net-(A1-Pad31)*%
X145292000Y-83820000D03*
%TO.P,A1,32*%
%TO.N,Net-(A1-Pad32)*%
X142752000Y-83820000D03*
%TD*%
D18*
%TO.N,Net-(A1-Pad9)*%
X164592000Y-130048000D03*
X159004000Y-130048000D03*
%TO.N,Net-(D3-Pad2)*%
X153924000Y-125476000D03*
X151892000Y-127508000D03*
%TD*%
D19*
%TO.N,Net-(A1-Pad26)*%
X157988000Y-83820000D02*
X157992000Y-83820000D01*
X155448000Y-86360000D02*
X157988000Y-83820000D01*
%TO.N,Net-(A1-Pad10)*%
X145796000Y-119380000D02*
X152908000Y-126492000D01*
X152908000Y-126492000D02*
X165608000Y-126492000D01*
X165608000Y-126492000D02*
X169164000Y-130048000D01*
X175260000Y-130048000D02*
X177292000Y-132080000D01*
X169164000Y-130048000D02*
X175260000Y-130048000D01*
%TO.N,Net-(A1-Pad25)*%
X160532000Y-84832000D02*
X160532000Y-83820000D01*
X159004000Y-86360000D02*
X160532000Y-84832000D01*
%TO.N,Net-(A1-Pad9)*%
X164592000Y-130048000D02*
X159004000Y-130048000D01*
X159004000Y-130048000D02*
X159004000Y-130048000D01*
%TO.N,Net-(A1-Pad24)*%
X162560000Y-86360000D02*
X162560000Y-85852000D01*
X163072000Y-85340000D02*
X163072000Y-83820000D01*
X162560000Y-85852000D02*
X163072000Y-85340000D01*
%TO.N,Net-(A1-Pad23)*%
X166116000Y-86360000D02*
X166116000Y-85852000D01*
X165612000Y-85348000D02*
X165612000Y-83820000D01*
X166116000Y-85852000D02*
X165612000Y-85348000D01*
%TO.N,Net-(A1-Pad22)*%
X169672000Y-83820000D02*
X169672000Y-86360000D01*
%TO.N,Net-(A1-Pad21)*%
X184404000Y-124888000D02*
X196904000Y-124888000D01*
X177372000Y-124888000D02*
X177292000Y-124968000D01*
X184404000Y-124888000D02*
X177372000Y-124888000D01*
X172212000Y-85852000D02*
X172212000Y-83820000D01*
X171196000Y-86868000D02*
X172212000Y-85852000D01*
X177292000Y-124968000D02*
X171196000Y-118872000D01*
X171196000Y-118872000D02*
X171196000Y-86868000D01*
%TO.N,Net-(A1-Pad20)*%
X175260000Y-110744000D02*
X187760000Y-110744000D01*
X174752000Y-83820000D02*
X173228000Y-85344000D01*
X173228000Y-85344000D02*
X173228000Y-87376000D01*
X173228000Y-87376000D02*
X172212000Y-88392000D01*
X172212000Y-107696000D02*
X175260000Y-110744000D01*
X172212000Y-88392000D02*
X172212000Y-107696000D01*
%TO.N,Net-(A1-Pad19)*%
X206048000Y-110664000D02*
X193548000Y-110664000D01*
X177292000Y-118872000D02*
X177292000Y-116332000D01*
X177292000Y-116332000D02*
X178308000Y-115316000D01*
X178308000Y-115316000D02*
X191008000Y-115316000D01*
X193548000Y-112776000D02*
X193548000Y-110664000D01*
X191008000Y-115316000D02*
X193548000Y-112776000D01*
%TO.N,Net-(A1-Pad18)*%
X179832000Y-85344000D02*
X179832000Y-83820000D01*
X179324000Y-85852000D02*
X179832000Y-85344000D01*
X174752000Y-86360000D02*
X175260000Y-85852000D01*
X174752000Y-88392000D02*
X174752000Y-86360000D01*
X175260000Y-85852000D02*
X179324000Y-85852000D01*
X196904000Y-96440000D02*
X184404000Y-96440000D01*
X174752000Y-88392000D02*
X174752000Y-89916000D01*
X181276000Y-96440000D02*
X184404000Y-96440000D01*
X174752000Y-89916000D02*
X181276000Y-96440000D01*
%TO.N,B1*%
X182372000Y-83820000D02*
X182372000Y-85852000D01*
X179832000Y-88392000D02*
X178816000Y-88392000D01*
X182372000Y-85852000D02*
X179832000Y-88392000D01*
%TO.N,Net-(D1-Pad2)*%
X162560000Y-89408000D02*
X169672000Y-96520000D01*
X146812000Y-89408000D02*
X162560000Y-89408000D01*
%TO.N,Net-(D2-Pad2)*%
X166116000Y-100076000D02*
X166116000Y-96520000D01*
X166116000Y-100076000D02*
X166116000Y-108712000D01*
%TO.N,Net-(D3-Pad2)*%
X162560000Y-96520000D02*
X162560000Y-101600000D01*
X162560000Y-101600000D02*
X160020000Y-104140000D01*
X160020000Y-104140000D02*
X160020000Y-119380000D01*
X160020000Y-119380000D02*
X153924000Y-125476000D01*
X153924000Y-125476000D02*
X153924000Y-125476000D01*
X151892000Y-127508000D02*
X146812000Y-127508000D01*
%TO.N,Net-(D4-Pad2)*%
X134620000Y-99568000D02*
X128524000Y-105664000D01*
X128524000Y-105664000D02*
X128524000Y-109220000D01*
X159004000Y-96520000D02*
X155956000Y-99568000D01*
X155956000Y-99568000D02*
X134620000Y-99568000D01*
%TO.N,Net-(D5-Pad2)*%
X138684000Y-89408000D02*
X142748000Y-93472000D01*
X152400000Y-93472000D02*
X155448000Y-96520000D01*
X142748000Y-93472000D02*
X152400000Y-93472000D01*
%TD*%
D20*
%TO.N,GND*%
G36*
X208153000Y-105253384D02*
G01*
X208136853Y-105184345D01*
X208014650Y-104902906D01*
X207839889Y-104650715D01*
X207619286Y-104437464D01*
X207361319Y-104271348D01*
X207075901Y-104158751D01*
X206774000Y-104104000D01*
X206175000Y-104104000D01*
X206175000Y-105537000D01*
X206195000Y-105537000D01*
X206195000Y-105791000D01*
X206175000Y-105791000D01*
X206175000Y-107224000D01*
X206774000Y-107224000D01*
X207075901Y-107169249D01*
X207361319Y-107056652D01*
X207619286Y-106890536D01*
X207839889Y-106677285D01*
X208014650Y-106425094D01*
X208136853Y-106143655D01*
X208153000Y-106074616D01*
X208153000Y-110254582D01*
X208095226Y-110064125D01*
X207950369Y-109793117D01*
X207755424Y-109555576D01*
X207517883Y-109360631D01*
X207246875Y-109215774D01*
X206952813Y-109126572D01*
X206723636Y-109104000D01*
X205372364Y-109104000D01*
X205143187Y-109126572D01*
X204849125Y-109215774D01*
X204578117Y-109360631D01*
X204340576Y-109555576D01*
X204145631Y-109793117D01*
X204086363Y-109904000D01*
X195509637Y-109904000D01*
X195450369Y-109793117D01*
X195255424Y-109555576D01*
X195017883Y-109360631D01*
X194746875Y-109215774D01*
X194452813Y-109126572D01*
X194223636Y-109104000D01*
X192872364Y-109104000D01*
X192643187Y-109126572D01*
X192349125Y-109215774D01*
X192078117Y-109360631D01*
X191840576Y-109555576D01*
X191645631Y-109793117D01*
X191500774Y-110064125D01*
X191411572Y-110358187D01*
X191381452Y-110664000D01*
X191411572Y-110969813D01*
X191500774Y-111263875D01*
X191645631Y-111534883D01*
X191840576Y-111772424D01*
X192078117Y-111967369D01*
X192349125Y-112112226D01*
X192643187Y-112201428D01*
X192788000Y-112215691D01*
X192788000Y-112461197D01*
X190693199Y-114556000D01*
X178345322Y-114556000D01*
X178308000Y-114552324D01*
X178270677Y-114556000D01*
X178270667Y-114556000D01*
X178159014Y-114566997D01*
X178015753Y-114610454D01*
X177883723Y-114681026D01*
X177800083Y-114749668D01*
X177767999Y-114775999D01*
X177744201Y-114804997D01*
X176780998Y-115768201D01*
X176752000Y-115791999D01*
X176728202Y-115820997D01*
X176728201Y-115820998D01*
X176657026Y-115907724D01*
X176586454Y-116039754D01*
X176542998Y-116183015D01*
X176528324Y-116332000D01*
X176532001Y-116369332D01*
X176532000Y-117653956D01*
X176377241Y-117757363D01*
X176177363Y-117957241D01*
X176020320Y-118192273D01*
X175912147Y-118453426D01*
X175857000Y-118730665D01*
X175857000Y-119013335D01*
X175912147Y-119290574D01*
X176020320Y-119551727D01*
X176177363Y-119786759D01*
X176377241Y-119986637D01*
X176612273Y-120143680D01*
X176873426Y-120251853D01*
X177150665Y-120307000D01*
X177433335Y-120307000D01*
X177686387Y-120256664D01*
X182289188Y-120256664D01*
X182315147Y-120367655D01*
X182437350Y-120649094D01*
X182612111Y-120901285D01*
X182832714Y-121114536D01*
X183090681Y-121280652D01*
X183376099Y-121393249D01*
X183678000Y-121448000D01*
X184277000Y-121448000D01*
X184277000Y-120015000D01*
X184531000Y-120015000D01*
X184531000Y-121448000D01*
X185130000Y-121448000D01*
X185431901Y-121393249D01*
X185717319Y-121280652D01*
X185975286Y-121114536D01*
X186195889Y-120901285D01*
X186370650Y-120649094D01*
X186492853Y-120367655D01*
X186518812Y-120256664D01*
X194789188Y-120256664D01*
X194815147Y-120367655D01*
X194937350Y-120649094D01*
X195112111Y-120901285D01*
X195332714Y-121114536D01*
X195590681Y-121280652D01*
X195876099Y-121393249D01*
X196178000Y-121448000D01*
X196777000Y-121448000D01*
X196777000Y-120015000D01*
X197031000Y-120015000D01*
X197031000Y-121448000D01*
X197630000Y-121448000D01*
X197931901Y-121393249D01*
X198217319Y-121280652D01*
X198475286Y-121114536D01*
X198695889Y-120901285D01*
X198870650Y-120649094D01*
X198992853Y-120367655D01*
X199018812Y-120256664D01*
X198898483Y-120015000D01*
X197031000Y-120015000D01*
X196777000Y-120015000D01*
X194909517Y-120015000D01*
X194789188Y-120256664D01*
X186518812Y-120256664D01*
X186398483Y-120015000D01*
X184531000Y-120015000D01*
X184277000Y-120015000D01*
X182409517Y-120015000D01*
X182289188Y-120256664D01*
X177686387Y-120256664D01*
X177710574Y-120251853D01*
X177971727Y-120143680D01*
X178206759Y-119986637D01*
X178406637Y-119786759D01*
X178563680Y-119551727D01*
X178577096Y-119519336D01*
X182289188Y-119519336D01*
X182409517Y-119761000D01*
X184277000Y-119761000D01*
X184277000Y-118328000D01*
X184531000Y-118328000D01*
X184531000Y-119761000D01*
X186398483Y-119761000D01*
X186518812Y-119519336D01*
X194789188Y-119519336D01*
X194909517Y-119761000D01*
X196777000Y-119761000D01*
X196777000Y-118328000D01*
X197031000Y-118328000D01*
X197031000Y-119761000D01*
X198898483Y-119761000D01*
X199018812Y-119519336D01*
X198992853Y-119408345D01*
X198870650Y-119126906D01*
X198695889Y-118874715D01*
X198475286Y-118661464D01*
X198217319Y-118495348D01*
X197931901Y-118382751D01*
X197630000Y-118328000D01*
X197031000Y-118328000D01*
X196777000Y-118328000D01*
X196178000Y-118328000D01*
X195876099Y-118382751D01*
X195590681Y-118495348D01*
X195332714Y-118661464D01*
X195112111Y-118874715D01*
X194937350Y-119126906D01*
X194815147Y-119408345D01*
X194789188Y-119519336D01*
X186518812Y-119519336D01*
X186492853Y-119408345D01*
X186370650Y-119126906D01*
X186195889Y-118874715D01*
X185975286Y-118661464D01*
X185717319Y-118495348D01*
X185431901Y-118382751D01*
X185130000Y-118328000D01*
X184531000Y-118328000D01*
X184277000Y-118328000D01*
X183678000Y-118328000D01*
X183376099Y-118382751D01*
X183090681Y-118495348D01*
X182832714Y-118661464D01*
X182612111Y-118874715D01*
X182437350Y-119126906D01*
X182315147Y-119408345D01*
X182289188Y-119519336D01*
X178577096Y-119519336D01*
X178671853Y-119290574D01*
X178727000Y-119013335D01*
X178727000Y-118730665D01*
X178671853Y-118453426D01*
X178563680Y-118192273D01*
X178406637Y-117957241D01*
X178206759Y-117757363D01*
X178052000Y-117653957D01*
X178052000Y-116646801D01*
X178622802Y-116076000D01*
X190970678Y-116076000D01*
X191008000Y-116079676D01*
X191045322Y-116076000D01*
X191045333Y-116076000D01*
X191156986Y-116065003D01*
X191300247Y-116021546D01*
X191432276Y-115950974D01*
X191548001Y-115856001D01*
X191571804Y-115826997D01*
X194059009Y-113339794D01*
X194088001Y-113316001D01*
X194111795Y-113287008D01*
X194111799Y-113287004D01*
X194182973Y-113200277D01*
X194182974Y-113200276D01*
X194253546Y-113068247D01*
X194297003Y-112924986D01*
X194308000Y-112813333D01*
X194308000Y-112813324D01*
X194311676Y-112776001D01*
X194308000Y-112738678D01*
X194308000Y-112215691D01*
X194452813Y-112201428D01*
X194746875Y-112112226D01*
X195017883Y-111967369D01*
X195255424Y-111772424D01*
X195450369Y-111534883D01*
X195509637Y-111424000D01*
X204086363Y-111424000D01*
X204145631Y-111534883D01*
X204340576Y-111772424D01*
X204578117Y-111967369D01*
X204849125Y-112112226D01*
X205143187Y-112201428D01*
X205372364Y-112224000D01*
X206723636Y-112224000D01*
X206952813Y-112201428D01*
X207246875Y-112112226D01*
X207517883Y-111967369D01*
X207755424Y-111772424D01*
X207950369Y-111534883D01*
X208095226Y-111263875D01*
X208153000Y-111073418D01*
X208153000Y-135509000D01*
X116967000Y-135509000D01*
X116967000Y-128408000D01*
X142733928Y-128408000D01*
X142746188Y-128532482D01*
X142782498Y-128652180D01*
X142841463Y-128762494D01*
X142920815Y-128859185D01*
X143017506Y-128938537D01*
X143127820Y-128997502D01*
X143247518Y-129033812D01*
X143372000Y-129046072D01*
X143986250Y-129043000D01*
X144145000Y-128884250D01*
X144145000Y-127635000D01*
X142895750Y-127635000D01*
X142737000Y-127793750D01*
X142733928Y-128408000D01*
X116967000Y-128408000D01*
X116967000Y-126608000D01*
X142733928Y-126608000D01*
X142737000Y-127222250D01*
X142895750Y-127381000D01*
X144145000Y-127381000D01*
X144145000Y-126131750D01*
X143986250Y-125973000D01*
X143372000Y-125969928D01*
X143247518Y-125982188D01*
X143127820Y-126018498D01*
X143017506Y-126077463D01*
X142920815Y-126156815D01*
X142841463Y-126253506D01*
X142782498Y-126363820D01*
X142746188Y-126483518D01*
X142733928Y-126608000D01*
X116967000Y-126608000D01*
X116967000Y-119229899D01*
X141732000Y-119229899D01*
X141732000Y-119530101D01*
X141790566Y-119824534D01*
X141905449Y-120101885D01*
X142072232Y-120351493D01*
X142284507Y-120563768D01*
X142534115Y-120730551D01*
X142811466Y-120845434D01*
X143105899Y-120904000D01*
X143406101Y-120904000D01*
X143700534Y-120845434D01*
X143977885Y-120730551D01*
X144227493Y-120563768D01*
X144439768Y-120351493D01*
X144526000Y-120222438D01*
X144612232Y-120351493D01*
X144824507Y-120563768D01*
X145074115Y-120730551D01*
X145351466Y-120845434D01*
X145645899Y-120904000D01*
X145946101Y-120904000D01*
X146195576Y-120854377D01*
X151814198Y-126473000D01*
X151790061Y-126473000D01*
X151590102Y-126512774D01*
X151401744Y-126590795D01*
X151232226Y-126704063D01*
X151188289Y-126748000D01*
X148150313Y-126748000D01*
X148004312Y-126529495D01*
X147790505Y-126315688D01*
X147539095Y-126147701D01*
X147259743Y-126031989D01*
X146963184Y-125973000D01*
X146660816Y-125973000D01*
X146364257Y-126031989D01*
X146084905Y-126147701D01*
X145833495Y-126315688D01*
X145767056Y-126382127D01*
X145761502Y-126363820D01*
X145702537Y-126253506D01*
X145623185Y-126156815D01*
X145526494Y-126077463D01*
X145416180Y-126018498D01*
X145296482Y-125982188D01*
X145172000Y-125969928D01*
X144557750Y-125973000D01*
X144399000Y-126131750D01*
X144399000Y-127381000D01*
X144419000Y-127381000D01*
X144419000Y-127635000D01*
X144399000Y-127635000D01*
X144399000Y-128884250D01*
X144557750Y-129043000D01*
X145172000Y-129046072D01*
X145296482Y-129033812D01*
X145416180Y-128997502D01*
X145526494Y-128938537D01*
X145623185Y-128859185D01*
X145702537Y-128762494D01*
X145761502Y-128652180D01*
X145767056Y-128633873D01*
X145833495Y-128700312D01*
X146084905Y-128868299D01*
X146364257Y-128984011D01*
X146660816Y-129043000D01*
X146963184Y-129043000D01*
X147259743Y-128984011D01*
X147539095Y-128868299D01*
X147790505Y-128700312D01*
X148004312Y-128486505D01*
X148150313Y-128268000D01*
X151188289Y-128268000D01*
X151232226Y-128311937D01*
X151401744Y-128425205D01*
X151590102Y-128503226D01*
X151790061Y-128543000D01*
X151993939Y-128543000D01*
X152193898Y-128503226D01*
X152382256Y-128425205D01*
X152551774Y-128311937D01*
X152695937Y-128167774D01*
X152809205Y-127998256D01*
X152887226Y-127809898D01*
X152927000Y-127609939D01*
X152927000Y-127406061D01*
X152896869Y-127254580D01*
X152908000Y-127255676D01*
X152945323Y-127252000D01*
X161373046Y-127252000D01*
X161372273Y-127252320D01*
X161137241Y-127409363D01*
X160937363Y-127609241D01*
X160780320Y-127844273D01*
X160672147Y-128105426D01*
X160617000Y-128382665D01*
X160617000Y-128665335D01*
X160672147Y-128942574D01*
X160780320Y-129203727D01*
X160836629Y-129288000D01*
X159707711Y-129288000D01*
X159663774Y-129244063D01*
X159494256Y-129130795D01*
X159305898Y-129052774D01*
X159105939Y-129013000D01*
X158902061Y-129013000D01*
X158702102Y-129052774D01*
X158513744Y-129130795D01*
X158344226Y-129244063D01*
X158200063Y-129388226D01*
X158086795Y-129557744D01*
X158008774Y-129746102D01*
X157969000Y-129946061D01*
X157969000Y-130149939D01*
X158008774Y-130349898D01*
X158086795Y-130538256D01*
X158200063Y-130707774D01*
X158344226Y-130851937D01*
X158513744Y-130965205D01*
X158572897Y-130989707D01*
X158397363Y-131165241D01*
X158242000Y-131397759D01*
X158086637Y-131165241D01*
X157886759Y-130965363D01*
X157651727Y-130808320D01*
X157390574Y-130700147D01*
X157113335Y-130645000D01*
X156830665Y-130645000D01*
X156553426Y-130700147D01*
X156292273Y-130808320D01*
X156057241Y-130965363D01*
X155857363Y-131165241D01*
X155702000Y-131397759D01*
X155546637Y-131165241D01*
X155346759Y-130965363D01*
X155111727Y-130808320D01*
X154850574Y-130700147D01*
X154573335Y-130645000D01*
X154290665Y-130645000D01*
X154013426Y-130700147D01*
X153752273Y-130808320D01*
X153517241Y-130965363D01*
X153318643Y-131163961D01*
X153317812Y-131155518D01*
X153281502Y-131035820D01*
X153222537Y-130925506D01*
X153143185Y-130828815D01*
X153046494Y-130749463D01*
X152936180Y-130690498D01*
X152816482Y-130654188D01*
X152692000Y-130641928D01*
X151092000Y-130641928D01*
X150967518Y-130654188D01*
X150847820Y-130690498D01*
X150737506Y-130749463D01*
X150640815Y-130828815D01*
X150561463Y-130925506D01*
X150502498Y-131035820D01*
X150466188Y-131155518D01*
X150453928Y-131280000D01*
X150453928Y-132880000D01*
X150466188Y-133004482D01*
X150502498Y-133124180D01*
X150561463Y-133234494D01*
X150640815Y-133331185D01*
X150737506Y-133410537D01*
X150847820Y-133469502D01*
X150967518Y-133505812D01*
X151092000Y-133518072D01*
X152692000Y-133518072D01*
X152816482Y-133505812D01*
X152936180Y-133469502D01*
X153046494Y-133410537D01*
X153143185Y-133331185D01*
X153222537Y-133234494D01*
X153281502Y-133124180D01*
X153317812Y-133004482D01*
X153318643Y-132996039D01*
X153517241Y-133194637D01*
X153752273Y-133351680D01*
X154013426Y-133459853D01*
X154290665Y-133515000D01*
X154573335Y-133515000D01*
X154850574Y-133459853D01*
X155111727Y-133351680D01*
X155346759Y-133194637D01*
X155546637Y-132994759D01*
X155702000Y-132762241D01*
X155857363Y-132994759D01*
X156057241Y-133194637D01*
X156292273Y-133351680D01*
X156553426Y-133459853D01*
X156830665Y-133515000D01*
X157113335Y-133515000D01*
X157390574Y-133459853D01*
X157651727Y-133351680D01*
X157886759Y-133194637D01*
X158086637Y-132994759D01*
X158242000Y-132762241D01*
X158397363Y-132994759D01*
X158597241Y-133194637D01*
X158832273Y-133351680D01*
X159093426Y-133459853D01*
X159370665Y-133515000D01*
X159653335Y-133515000D01*
X159930574Y-133459853D01*
X160191727Y-133351680D01*
X160426759Y-133194637D01*
X160626637Y-132994759D01*
X160782000Y-132762241D01*
X160937363Y-132994759D01*
X161137241Y-133194637D01*
X161372273Y-133351680D01*
X161633426Y-133459853D01*
X161910665Y-133515000D01*
X162193335Y-133515000D01*
X162470574Y-133459853D01*
X162731727Y-133351680D01*
X162966759Y-133194637D01*
X163166637Y-132994759D01*
X163323680Y-132759727D01*
X163328067Y-132749135D01*
X163439615Y-132935131D01*
X163628586Y-133143519D01*
X163854580Y-133311037D01*
X164108913Y-133431246D01*
X164242961Y-133471904D01*
X164465000Y-133349915D01*
X164465000Y-132207000D01*
X164719000Y-132207000D01*
X164719000Y-133349915D01*
X164941039Y-133471904D01*
X165075087Y-133431246D01*
X165329420Y-133311037D01*
X165555414Y-133143519D01*
X165744385Y-132935131D01*
X165862000Y-132739018D01*
X165979615Y-132935131D01*
X166168586Y-133143519D01*
X166394580Y-133311037D01*
X166648913Y-133431246D01*
X166782961Y-133471904D01*
X167005000Y-133349915D01*
X167005000Y-132207000D01*
X164719000Y-132207000D01*
X164465000Y-132207000D01*
X164445000Y-132207000D01*
X164445000Y-131953000D01*
X164465000Y-131953000D01*
X164465000Y-131933000D01*
X164719000Y-131933000D01*
X164719000Y-131953000D01*
X167005000Y-131953000D01*
X167005000Y-130810085D01*
X166782961Y-130688096D01*
X166648913Y-130728754D01*
X166394580Y-130848963D01*
X166168586Y-131016481D01*
X165979615Y-131224869D01*
X165862000Y-131420982D01*
X165744385Y-131224869D01*
X165555414Y-131016481D01*
X165329420Y-130848963D01*
X165278714Y-130824997D01*
X165395937Y-130707774D01*
X165509205Y-130538256D01*
X165587226Y-130349898D01*
X165627000Y-130149939D01*
X165627000Y-129946061D01*
X165587226Y-129746102D01*
X165509205Y-129557744D01*
X165395937Y-129388226D01*
X165251774Y-129244063D01*
X165082256Y-129130795D01*
X164893898Y-129052774D01*
X164693939Y-129013000D01*
X164490061Y-129013000D01*
X164290102Y-129052774D01*
X164101744Y-129130795D01*
X163932226Y-129244063D01*
X163888289Y-129288000D01*
X163267371Y-129288000D01*
X163323680Y-129203727D01*
X163431853Y-128942574D01*
X163487000Y-128665335D01*
X163487000Y-128382665D01*
X163431853Y-128105426D01*
X163323680Y-127844273D01*
X163166637Y-127609241D01*
X162966759Y-127409363D01*
X162731727Y-127252320D01*
X162730954Y-127252000D01*
X165293199Y-127252000D01*
X168600205Y-130559008D01*
X168623999Y-130588001D01*
X168652992Y-130611795D01*
X168652996Y-130611799D01*
X168704648Y-130654188D01*
X168739724Y-130682974D01*
X168871753Y-130753546D01*
X169015014Y-130797003D01*
X169018715Y-130797367D01*
X168992273Y-130808320D01*
X168757241Y-130965363D01*
X168557363Y-131165241D01*
X168400320Y-131400273D01*
X168395933Y-131410865D01*
X168284385Y-131224869D01*
X168095414Y-131016481D01*
X167869420Y-130848963D01*
X167615087Y-130728754D01*
X167481039Y-130688096D01*
X167259000Y-130810085D01*
X167259000Y-131953000D01*
X167279000Y-131953000D01*
X167279000Y-132207000D01*
X167259000Y-132207000D01*
X167259000Y-133349915D01*
X167481039Y-133471904D01*
X167615087Y-133431246D01*
X167869420Y-133311037D01*
X168095414Y-133143519D01*
X168284385Y-132935131D01*
X168395933Y-132749135D01*
X168400320Y-132759727D01*
X168557363Y-132994759D01*
X168757241Y-133194637D01*
X168992273Y-133351680D01*
X169253426Y-133459853D01*
X169530665Y-133515000D01*
X169813335Y-133515000D01*
X170090574Y-133459853D01*
X170351727Y-133351680D01*
X170586759Y-133194637D01*
X170786637Y-132994759D01*
X170943680Y-132759727D01*
X171051853Y-132498574D01*
X171107000Y-132221335D01*
X171107000Y-131938665D01*
X171051853Y-131661426D01*
X170943680Y-131400273D01*
X170786637Y-131165241D01*
X170586759Y-130965363D01*
X170351727Y-130808320D01*
X170350954Y-130808000D01*
X174073046Y-130808000D01*
X174072273Y-130808320D01*
X173837241Y-130965363D01*
X173637363Y-131165241D01*
X173480320Y-131400273D01*
X173372147Y-131661426D01*
X173317000Y-131938665D01*
X173317000Y-132221335D01*
X173372147Y-132498574D01*
X173480320Y-132759727D01*
X173637363Y-132994759D01*
X173837241Y-133194637D01*
X174072273Y-133351680D01*
X174333426Y-133459853D01*
X174610665Y-133515000D01*
X174893335Y-133515000D01*
X175170574Y-133459853D01*
X175431727Y-133351680D01*
X175666759Y-133194637D01*
X175866637Y-132994759D01*
X176022000Y-132762241D01*
X176177363Y-132994759D01*
X176377241Y-133194637D01*
X176612273Y-133351680D01*
X176873426Y-133459853D01*
X177150665Y-133515000D01*
X177433335Y-133515000D01*
X177710574Y-133459853D01*
X177971727Y-133351680D01*
X178206759Y-133194637D01*
X178406637Y-132994759D01*
X178562000Y-132762241D01*
X178717363Y-132994759D01*
X178917241Y-133194637D01*
X179152273Y-133351680D01*
X179413426Y-133459853D01*
X179690665Y-133515000D01*
X179973335Y-133515000D01*
X180250574Y-133459853D01*
X180511727Y-133351680D01*
X180746759Y-133194637D01*
X180946637Y-132994759D01*
X181102000Y-132762241D01*
X181257363Y-132994759D01*
X181457241Y-133194637D01*
X181692273Y-133351680D01*
X181953426Y-133459853D01*
X182230665Y-133515000D01*
X182513335Y-133515000D01*
X182790574Y-133459853D01*
X183051727Y-133351680D01*
X183286759Y-133194637D01*
X183486637Y-132994759D01*
X183642000Y-132762241D01*
X183797363Y-132994759D01*
X183997241Y-133194637D01*
X184232273Y-133351680D01*
X184493426Y-133459853D01*
X184770665Y-133515000D01*
X185053335Y-133515000D01*
X185330574Y-133459853D01*
X185591727Y-133351680D01*
X185826759Y-133194637D01*
X186026637Y-132994759D01*
X186182000Y-132762241D01*
X186337363Y-132994759D01*
X186537241Y-133194637D01*
X186772273Y-133351680D01*
X187033426Y-133459853D01*
X187310665Y-133515000D01*
X187593335Y-133515000D01*
X187870574Y-133459853D01*
X188131727Y-133351680D01*
X188366759Y-133194637D01*
X188566637Y-132994759D01*
X188723680Y-132759727D01*
X188831853Y-132498574D01*
X188887000Y-132221335D01*
X188887000Y-131938665D01*
X188831853Y-131661426D01*
X188723680Y-131400273D01*
X188566637Y-131165241D01*
X188366759Y-130965363D01*
X188131727Y-130808320D01*
X187870574Y-130700147D01*
X187593335Y-130645000D01*
X187310665Y-130645000D01*
X187033426Y-130700147D01*
X186772273Y-130808320D01*
X186537241Y-130965363D01*
X186337363Y-131165241D01*
X186182000Y-131397759D01*
X186026637Y-131165241D01*
X185826759Y-130965363D01*
X185591727Y-130808320D01*
X185330574Y-130700147D01*
X185053335Y-130645000D01*
X184770665Y-130645000D01*
X184493426Y-130700147D01*
X184232273Y-130808320D01*
X183997241Y-130965363D01*
X183797363Y-131165241D01*
X183642000Y-131397759D01*
X183486637Y-131165241D01*
X183286759Y-130965363D01*
X183051727Y-130808320D01*
X182790574Y-130700147D01*
X182513335Y-130645000D01*
X182230665Y-130645000D01*
X181953426Y-130700147D01*
X181692273Y-130808320D01*
X181457241Y-130965363D01*
X181257363Y-131165241D01*
X181102000Y-131397759D01*
X180946637Y-131165241D01*
X180746759Y-130965363D01*
X180511727Y-130808320D01*
X180250574Y-130700147D01*
X179973335Y-130645000D01*
X179690665Y-130645000D01*
X179413426Y-130700147D01*
X179152273Y-130808320D01*
X178917241Y-130965363D01*
X178717363Y-131165241D01*
X178562000Y-131397759D01*
X178406637Y-131165241D01*
X178206759Y-130965363D01*
X177971727Y-130808320D01*
X177710574Y-130700147D01*
X177433335Y-130645000D01*
X177150665Y-130645000D01*
X176968114Y-130681312D01*
X175823804Y-129537003D01*
X175800001Y-129507999D01*
X175684276Y-129413026D01*
X175552247Y-129342454D01*
X175408986Y-129298997D01*
X175297333Y-129288000D01*
X175297322Y-129288000D01*
X175260000Y-129284324D01*
X175222678Y-129288000D01*
X169478803Y-129288000D01*
X166386600Y-126195799D01*
X166452273Y-126239680D01*
X166713426Y-126347853D01*
X166990665Y-126403000D01*
X167273335Y-126403000D01*
X167550574Y-126347853D01*
X167811727Y-126239680D01*
X168046759Y-126082637D01*
X168246637Y-125882759D01*
X168403680Y-125647727D01*
X168511853Y-125386574D01*
X168567000Y-125109335D01*
X168567000Y-124826665D01*
X168511853Y-124549426D01*
X168403680Y-124288273D01*
X168246637Y-124053241D01*
X168046759Y-123853363D01*
X167811727Y-123696320D01*
X167550574Y-123588147D01*
X167273335Y-123533000D01*
X166990665Y-123533000D01*
X166713426Y-123588147D01*
X166452273Y-123696320D01*
X166217241Y-123853363D01*
X166017363Y-124053241D01*
X165860320Y-124288273D01*
X165752147Y-124549426D01*
X165697000Y-124826665D01*
X165697000Y-125109335D01*
X165752147Y-125386574D01*
X165860320Y-125647727D01*
X165982331Y-125830329D01*
X165900247Y-125786454D01*
X165756986Y-125742997D01*
X165645333Y-125732000D01*
X165645322Y-125732000D01*
X165608000Y-125728324D01*
X165570678Y-125732000D01*
X154928356Y-125732000D01*
X154959000Y-125577939D01*
X154959000Y-125515801D01*
X160531003Y-119943799D01*
X160560001Y-119920001D01*
X160638349Y-119824534D01*
X160654974Y-119804277D01*
X160725546Y-119672247D01*
X160741090Y-119621003D01*
X160769003Y-119528986D01*
X160780000Y-119417333D01*
X160780000Y-119417323D01*
X160783676Y-119380000D01*
X160780000Y-119342677D01*
X160780000Y-119042954D01*
X160780320Y-119043727D01*
X160937363Y-119278759D01*
X161137241Y-119478637D01*
X161372273Y-119635680D01*
X161633426Y-119743853D01*
X161910665Y-119799000D01*
X162193335Y-119799000D01*
X162470574Y-119743853D01*
X162731727Y-119635680D01*
X162966759Y-119478637D01*
X163166637Y-119278759D01*
X163323680Y-119043727D01*
X163431853Y-118782574D01*
X163442178Y-118730665D01*
X165697000Y-118730665D01*
X165697000Y-119013335D01*
X165752147Y-119290574D01*
X165860320Y-119551727D01*
X166017363Y-119786759D01*
X166217241Y-119986637D01*
X166452273Y-120143680D01*
X166713426Y-120251853D01*
X166990665Y-120307000D01*
X167273335Y-120307000D01*
X167550574Y-120251853D01*
X167811727Y-120143680D01*
X168046759Y-119986637D01*
X168246637Y-119786759D01*
X168403680Y-119551727D01*
X168511853Y-119290574D01*
X168567000Y-119013335D01*
X168567000Y-118730665D01*
X168511853Y-118453426D01*
X168403680Y-118192273D01*
X168246637Y-117957241D01*
X168046759Y-117757363D01*
X167811727Y-117600320D01*
X167550574Y-117492147D01*
X167273335Y-117437000D01*
X166990665Y-117437000D01*
X166713426Y-117492147D01*
X166452273Y-117600320D01*
X166217241Y-117757363D01*
X166017363Y-117957241D01*
X165860320Y-118192273D01*
X165752147Y-118453426D01*
X165697000Y-118730665D01*
X163442178Y-118730665D01*
X163487000Y-118505335D01*
X163487000Y-118222665D01*
X163431853Y-117945426D01*
X163323680Y-117684273D01*
X163166637Y-117449241D01*
X162966759Y-117249363D01*
X162731727Y-117092320D01*
X162470574Y-116984147D01*
X162193335Y-116929000D01*
X161910665Y-116929000D01*
X161633426Y-116984147D01*
X161372273Y-117092320D01*
X161137241Y-117249363D01*
X160937363Y-117449241D01*
X160780320Y-117684273D01*
X160780000Y-117685046D01*
X160780000Y-109612000D01*
X162037928Y-109612000D01*
X162050188Y-109736482D01*
X162086498Y-109856180D01*
X162145463Y-109966494D01*
X162224815Y-110063185D01*
X162321506Y-110142537D01*
X162431820Y-110201502D01*
X162551518Y-110237812D01*
X162676000Y-110250072D01*
X163290250Y-110247000D01*
X163449000Y-110088250D01*
X163449000Y-108839000D01*
X162199750Y-108839000D01*
X162041000Y-108997750D01*
X162037928Y-109612000D01*
X160780000Y-109612000D01*
X160780000Y-107812000D01*
X162037928Y-107812000D01*
X162041000Y-108426250D01*
X162199750Y-108585000D01*
X163449000Y-108585000D01*
X163449000Y-107335750D01*
X163703000Y-107335750D01*
X163703000Y-108585000D01*
X163723000Y-108585000D01*
X163723000Y-108839000D01*
X163703000Y-108839000D01*
X163703000Y-110088250D01*
X163861750Y-110247000D01*
X164476000Y-110250072D01*
X164600482Y-110237812D01*
X164720180Y-110201502D01*
X164830494Y-110142537D01*
X164927185Y-110063185D01*
X165006537Y-109966494D01*
X165065502Y-109856180D01*
X165071056Y-109837873D01*
X165137495Y-109904312D01*
X165388905Y-110072299D01*
X165668257Y-110188011D01*
X165964816Y-110247000D01*
X166267184Y-110247000D01*
X166563743Y-110188011D01*
X166843095Y-110072299D01*
X167094505Y-109904312D01*
X167308312Y-109690505D01*
X167476299Y-109439095D01*
X167592011Y-109159743D01*
X167651000Y-108863184D01*
X167651000Y-108560816D01*
X167592011Y-108264257D01*
X167476299Y-107984905D01*
X167308312Y-107733495D01*
X167094505Y-107519688D01*
X166876000Y-107373687D01*
X166876000Y-97738043D01*
X167030759Y-97634637D01*
X167230637Y-97434759D01*
X167387680Y-97199727D01*
X167495853Y-96938574D01*
X167551000Y-96661335D01*
X167551000Y-96378665D01*
X167495853Y-96101426D01*
X167387680Y-95840273D01*
X167230637Y-95605241D01*
X167030759Y-95405363D01*
X166795727Y-95248320D01*
X166534574Y-95140147D01*
X166257335Y-95085000D01*
X165974665Y-95085000D01*
X165697426Y-95140147D01*
X165436273Y-95248320D01*
X165201241Y-95405363D01*
X165001363Y-95605241D01*
X164844320Y-95840273D01*
X164736147Y-96101426D01*
X164681000Y-96378665D01*
X164681000Y-96661335D01*
X164736147Y-96938574D01*
X164844320Y-97199727D01*
X165001363Y-97434759D01*
X165201241Y-97634637D01*
X165356001Y-97738044D01*
X165356000Y-100038667D01*
X165356000Y-100038668D01*
X165356001Y-107373687D01*
X165137495Y-107519688D01*
X165071056Y-107586127D01*
X165065502Y-107567820D01*
X165006537Y-107457506D01*
X164927185Y-107360815D01*
X164830494Y-107281463D01*
X164720180Y-107222498D01*
X164600482Y-107186188D01*
X164476000Y-107173928D01*
X163861750Y-107177000D01*
X163703000Y-107335750D01*
X163449000Y-107335750D01*
X163290250Y-107177000D01*
X162676000Y-107173928D01*
X162551518Y-107186188D01*
X162431820Y-107222498D01*
X162321506Y-107281463D01*
X162224815Y-107360815D01*
X162145463Y-107457506D01*
X162086498Y-107567820D01*
X162050188Y-107687518D01*
X162037928Y-107812000D01*
X160780000Y-107812000D01*
X160780000Y-104454801D01*
X163071008Y-102163795D01*
X163100001Y-102140001D01*
X163123795Y-102111008D01*
X163123799Y-102111004D01*
X163194973Y-102024277D01*
X163227101Y-101964171D01*
X163265546Y-101892247D01*
X163309003Y-101748986D01*
X163320000Y-101637333D01*
X163320000Y-101637324D01*
X163323676Y-101600001D01*
X163320000Y-101562678D01*
X163320000Y-97738043D01*
X163474759Y-97634637D01*
X163674637Y-97434759D01*
X163831680Y-97199727D01*
X163939853Y-96938574D01*
X163995000Y-96661335D01*
X163995000Y-96378665D01*
X163939853Y-96101426D01*
X163831680Y-95840273D01*
X163674637Y-95605241D01*
X163474759Y-95405363D01*
X163239727Y-95248320D01*
X162978574Y-95140147D01*
X162701335Y-95085000D01*
X162418665Y-95085000D01*
X162141426Y-95140147D01*
X161880273Y-95248320D01*
X161645241Y-95405363D01*
X161445363Y-95605241D01*
X161288320Y-95840273D01*
X161180147Y-96101426D01*
X161125000Y-96378665D01*
X161125000Y-96661335D01*
X161180147Y-96938574D01*
X161288320Y-97199727D01*
X161445363Y-97434759D01*
X161645241Y-97634637D01*
X161800000Y-97738044D01*
X161800001Y-101285196D01*
X159509003Y-103576196D01*
X159479999Y-103599999D01*
X159424871Y-103667174D01*
X159385026Y-103715724D01*
X159345399Y-103789860D01*
X159314454Y-103847754D01*
X159270997Y-103991015D01*
X159260000Y-104102668D01*
X159260000Y-104102678D01*
X159256324Y-104140000D01*
X159260000Y-104177322D01*
X159260001Y-119065197D01*
X153884199Y-124441000D01*
X153822061Y-124441000D01*
X153622102Y-124480774D01*
X153433744Y-124558795D01*
X153264226Y-124672063D01*
X153120063Y-124816226D01*
X153006795Y-124985744D01*
X152928774Y-125174102D01*
X152889000Y-125374061D01*
X152889000Y-125398198D01*
X148400578Y-120909777D01*
X148402988Y-120909908D01*
X148700171Y-120867443D01*
X148983359Y-120767816D01*
X149130273Y-120689289D01*
X149212626Y-120436231D01*
X148336000Y-119559605D01*
X148321858Y-119573748D01*
X148142253Y-119394143D01*
X148156395Y-119380000D01*
X148515605Y-119380000D01*
X149392231Y-120256626D01*
X149645289Y-120174273D01*
X149775086Y-119903582D01*
X149849580Y-119612770D01*
X149865908Y-119313012D01*
X149823443Y-119015829D01*
X149723816Y-118732641D01*
X149645289Y-118585727D01*
X149392231Y-118503374D01*
X148515605Y-119380000D01*
X148156395Y-119380000D01*
X147279769Y-118503374D01*
X147085417Y-118566622D01*
X146979768Y-118408507D01*
X146895030Y-118323769D01*
X147459374Y-118323769D01*
X148336000Y-119200395D01*
X149212626Y-118323769D01*
X149130273Y-118070711D01*
X148859582Y-117940914D01*
X148568770Y-117866420D01*
X148269012Y-117850092D01*
X147971829Y-117892557D01*
X147688641Y-117992184D01*
X147541727Y-118070711D01*
X147459374Y-118323769D01*
X146895030Y-118323769D01*
X146767493Y-118196232D01*
X146517885Y-118029449D01*
X146240534Y-117914566D01*
X145946101Y-117856000D01*
X145645899Y-117856000D01*
X145351466Y-117914566D01*
X145074115Y-118029449D01*
X144824507Y-118196232D01*
X144612232Y-118408507D01*
X144526000Y-118537562D01*
X144439768Y-118408507D01*
X144227493Y-118196232D01*
X143977885Y-118029449D01*
X143700534Y-117914566D01*
X143406101Y-117856000D01*
X143105899Y-117856000D01*
X142811466Y-117914566D01*
X142534115Y-118029449D01*
X142284507Y-118196232D01*
X142072232Y-118408507D01*
X141905449Y-118658115D01*
X141790566Y-118935466D01*
X141732000Y-119229899D01*
X116967000Y-119229899D01*
X116967000Y-117124860D01*
X137118245Y-117124860D01*
X137231264Y-117403884D01*
X137545249Y-117559056D01*
X137883473Y-117649991D01*
X138232938Y-117673194D01*
X138580216Y-117627775D01*
X138911960Y-117515477D01*
X139120736Y-117403884D01*
X139233755Y-117124860D01*
X152358245Y-117124860D01*
X152471264Y-117403884D01*
X152785249Y-117559056D01*
X153123473Y-117649991D01*
X153472938Y-117673194D01*
X153820216Y-117627775D01*
X154151960Y-117515477D01*
X154360736Y-117403884D01*
X154473755Y-117124860D01*
X153416000Y-116067105D01*
X152358245Y-117124860D01*
X139233755Y-117124860D01*
X138176000Y-116067105D01*
X137118245Y-117124860D01*
X116967000Y-117124860D01*
X116967000Y-115944438D01*
X136390306Y-115944438D01*
X136435725Y-116291716D01*
X136548023Y-116623460D01*
X136659616Y-116832236D01*
X136938640Y-116945255D01*
X137996395Y-115887500D01*
X138355605Y-115887500D01*
X139413360Y-116945255D01*
X139692384Y-116832236D01*
X139847556Y-116518251D01*
X139938491Y-116180027D01*
X139954133Y-115944438D01*
X151630306Y-115944438D01*
X151675725Y-116291716D01*
X151788023Y-116623460D01*
X151899616Y-116832236D01*
X152178640Y-116945255D01*
X153236395Y-115887500D01*
X153595605Y-115887500D01*
X154653360Y-116945255D01*
X154932384Y-116832236D01*
X155087556Y-116518251D01*
X155178491Y-116180027D01*
X155201694Y-115830562D01*
X155156275Y-115483284D01*
X155043977Y-115151540D01*
X154932384Y-114942764D01*
X154653360Y-114829745D01*
X153595605Y-115887500D01*
X153236395Y-115887500D01*
X152178640Y-114829745D01*
X151899616Y-114942764D01*
X151744444Y-115256749D01*
X151653509Y-115594973D01*
X151630306Y-115944438D01*
X139954133Y-115944438D01*
X139961694Y-115830562D01*
X139916275Y-115483284D01*
X139803977Y-115151540D01*
X139692384Y-114942764D01*
X139413360Y-114829745D01*
X138355605Y-115887500D01*
X137996395Y-115887500D01*
X136938640Y-114829745D01*
X136659616Y-114942764D01*
X136504444Y-115256749D01*
X136413509Y-115594973D01*
X136390306Y-115944438D01*
X116967000Y-115944438D01*
X116967000Y-114650140D01*
X137118245Y-114650140D01*
X138176000Y-115707895D01*
X139233755Y-114650140D01*
X152358245Y-114650140D01*
X153416000Y-115707895D01*
X154473755Y-114650140D01*
X154360736Y-114371116D01*
X154046751Y-114215944D01*
X153708527Y-114125009D01*
X153359062Y-114101806D01*
X153011784Y-114147225D01*
X152680040Y-114259523D01*
X152471264Y-114371116D01*
X152358245Y-114650140D01*
X139233755Y-114650140D01*
X139120736Y-114371116D01*
X138806751Y-114215944D01*
X138468527Y-114125009D01*
X138119062Y-114101806D01*
X137771784Y-114147225D01*
X137440040Y-114259523D01*
X137231264Y-114371116D01*
X137118245Y-114650140D01*
X116967000Y-114650140D01*
X116967000Y-112816231D01*
X134759374Y-112816231D01*
X134841727Y-113069289D01*
X135112418Y-113199086D01*
X135403230Y-113273580D01*
X135702988Y-113289908D01*
X136000171Y-113247443D01*
X136283359Y-113147816D01*
X136430273Y-113069289D01*
X136512626Y-112816231D01*
X135636000Y-111939605D01*
X134759374Y-112816231D01*
X116967000Y-112816231D01*
X116967000Y-111826988D01*
X134106092Y-111826988D01*
X134148557Y-112124171D01*
X134248184Y-112407359D01*
X134326711Y-112554273D01*
X134579769Y-112636626D01*
X135456395Y-111760000D01*
X135815605Y-111760000D01*
X136692231Y-112636626D01*
X136945289Y-112554273D01*
X137075086Y-112283582D01*
X137149580Y-111992770D01*
X137165908Y-111693012D01*
X137123443Y-111395829D01*
X137023816Y-111112641D01*
X136945289Y-110965727D01*
X136692231Y-110883374D01*
X135815605Y-111760000D01*
X135456395Y-111760000D01*
X134579769Y-110883374D01*
X134326711Y-110965727D01*
X134196914Y-111236418D01*
X134122420Y-111527230D01*
X134106092Y-111826988D01*
X116967000Y-111826988D01*
X116967000Y-110120000D01*
X124445928Y-110120000D01*
X124458188Y-110244482D01*
X124494498Y-110364180D01*
X124553463Y-110474494D01*
X124632815Y-110571185D01*
X124729506Y-110650537D01*
X124839820Y-110709502D01*
X124959518Y-110745812D01*
X125084000Y-110758072D01*
X125698250Y-110755000D01*
X125857000Y-110596250D01*
X125857000Y-109347000D01*
X124607750Y-109347000D01*
X124449000Y-109505750D01*
X124445928Y-110120000D01*
X116967000Y-110120000D01*
X116967000Y-108320000D01*
X124445928Y-108320000D01*
X124449000Y-108934250D01*
X124607750Y-109093000D01*
X125857000Y-109093000D01*
X125857000Y-107843750D01*
X126111000Y-107843750D01*
X126111000Y-109093000D01*
X126131000Y-109093000D01*
X126131000Y-109347000D01*
X126111000Y-109347000D01*
X126111000Y-110596250D01*
X126269750Y-110755000D01*
X126884000Y-110758072D01*
X127008482Y-110745812D01*
X127128180Y-110709502D01*
X127238494Y-110650537D01*
X127335185Y-110571185D01*
X127414537Y-110474494D01*
X127473502Y-110364180D01*
X127479056Y-110345873D01*
X127545495Y-110412312D01*
X127796905Y-110580299D01*
X128076257Y-110696011D01*
X128372816Y-110755000D01*
X128675184Y-110755000D01*
X128971743Y-110696011D01*
X129251095Y-110580299D01*
X129502505Y-110412312D01*
X129716312Y-110198505D01*
X129884299Y-109947095D01*
X130000011Y-109667743D01*
X130059000Y-109371184D01*
X130059000Y-109068816D01*
X130000011Y-108772257D01*
X129884299Y-108492905D01*
X129716312Y-108241495D01*
X129502505Y-108027688D01*
X129284000Y-107881687D01*
X129284000Y-106529899D01*
X134112000Y-106529899D01*
X134112000Y-106830101D01*
X134170566Y-107124534D01*
X134285449Y-107401885D01*
X134452232Y-107651493D01*
X134664507Y-107863768D01*
X134793562Y-107950000D01*
X134664507Y-108036232D01*
X134452232Y-108248507D01*
X134285449Y-108498115D01*
X134170566Y-108775466D01*
X134112000Y-109069899D01*
X134112000Y-109370101D01*
X134170566Y-109664534D01*
X134285449Y-109941885D01*
X134452232Y-110191493D01*
X134664507Y-110403768D01*
X134822622Y-110509417D01*
X134759374Y-110703769D01*
X135636000Y-111580395D01*
X136512626Y-110703769D01*
X136449378Y-110509417D01*
X136607493Y-110403768D01*
X136819768Y-110191493D01*
X136986551Y-109941885D01*
X137101434Y-109664534D01*
X137160000Y-109370101D01*
X137160000Y-109069899D01*
X137101434Y-108775466D01*
X136986551Y-108498115D01*
X136819768Y-108248507D01*
X136607493Y-108036232D01*
X136478438Y-107950000D01*
X136607493Y-107863768D01*
X136819768Y-107651493D01*
X136986551Y-107401885D01*
X137101434Y-107124534D01*
X137160000Y-106830101D01*
X137160000Y-106529899D01*
X137101434Y-106235466D01*
X136986551Y-105958115D01*
X136819768Y-105708507D01*
X136607493Y-105496232D01*
X136357885Y-105329449D01*
X136080534Y-105214566D01*
X135786101Y-105156000D01*
X135485899Y-105156000D01*
X135191466Y-105214566D01*
X134914115Y-105329449D01*
X134664507Y-105496232D01*
X134452232Y-105708507D01*
X134285449Y-105958115D01*
X134170566Y-106235466D01*
X134112000Y-106529899D01*
X129284000Y-106529899D01*
X129284000Y-105978801D01*
X131472941Y-103789860D01*
X137118245Y-103789860D01*
X137231264Y-104068884D01*
X137545249Y-104224056D01*
X137883473Y-104314991D01*
X138232938Y-104338194D01*
X138580216Y-104292775D01*
X138911960Y-104180477D01*
X139120736Y-104068884D01*
X139233755Y-103789860D01*
X152358245Y-103789860D01*
X152471264Y-104068884D01*
X152785249Y-104224056D01*
X153123473Y-104314991D01*
X153472938Y-104338194D01*
X153820216Y-104292775D01*
X154151960Y-104180477D01*
X154360736Y-104068884D01*
X154473755Y-103789860D01*
X153416000Y-102732105D01*
X152358245Y-103789860D01*
X139233755Y-103789860D01*
X138176000Y-102732105D01*
X137118245Y-103789860D01*
X131472941Y-103789860D01*
X132653363Y-102609438D01*
X136390306Y-102609438D01*
X136435725Y-102956716D01*
X136548023Y-103288460D01*
X136659616Y-103497236D01*
X136938640Y-103610255D01*
X137996395Y-102552500D01*
X138355605Y-102552500D01*
X139413360Y-103610255D01*
X139692384Y-103497236D01*
X139847556Y-103183251D01*
X139938491Y-102845027D01*
X139951026Y-102656231D01*
X141744374Y-102656231D01*
X141826727Y-102909289D01*
X142097418Y-103039086D01*
X142388230Y-103113580D01*
X142687988Y-103129908D01*
X142985171Y-103087443D01*
X143268359Y-102987816D01*
X143415273Y-102909289D01*
X143497626Y-102656231D01*
X142621000Y-101779605D01*
X141744374Y-102656231D01*
X139951026Y-102656231D01*
X139961694Y-102495562D01*
X139916275Y-102148284D01*
X139803977Y-101816540D01*
X139724040Y-101666988D01*
X141091092Y-101666988D01*
X141133557Y-101964171D01*
X141233184Y-102247359D01*
X141311711Y-102394273D01*
X141564769Y-102476626D01*
X142441395Y-101600000D01*
X142800605Y-101600000D01*
X143677231Y-102476626D01*
X143930289Y-102394273D01*
X144060086Y-102123582D01*
X144134580Y-101832770D01*
X144150908Y-101533012D01*
X144108443Y-101235829D01*
X144008816Y-100952641D01*
X143930289Y-100805727D01*
X143677231Y-100723374D01*
X142800605Y-101600000D01*
X142441395Y-101600000D01*
X141564769Y-100723374D01*
X141311711Y-100805727D01*
X141181914Y-101076418D01*
X141107420Y-101367230D01*
X141091092Y-101666988D01*
X139724040Y-101666988D01*
X139692384Y-101607764D01*
X139413360Y-101494745D01*
X138355605Y-102552500D01*
X137996395Y-102552500D01*
X136938640Y-101494745D01*
X136659616Y-101607764D01*
X136504444Y-101921749D01*
X136413509Y-102259973D01*
X136390306Y-102609438D01*
X132653363Y-102609438D01*
X133947661Y-101315140D01*
X137118245Y-101315140D01*
X138176000Y-102372895D01*
X139233755Y-101315140D01*
X139120736Y-101036116D01*
X138806751Y-100880944D01*
X138468527Y-100790009D01*
X138119062Y-100766806D01*
X137771784Y-100812225D01*
X137440040Y-100924523D01*
X137231264Y-101036116D01*
X137118245Y-101315140D01*
X133947661Y-101315140D01*
X134934802Y-100328000D01*
X141814592Y-100328000D01*
X141744374Y-100543769D01*
X142621000Y-101420395D01*
X143497626Y-100543769D01*
X143427408Y-100328000D01*
X148131555Y-100328000D01*
X147999507Y-100416232D01*
X147787232Y-100628507D01*
X147620449Y-100878115D01*
X147505566Y-101155466D01*
X147447000Y-101449899D01*
X147447000Y-101750101D01*
X147505566Y-102044534D01*
X147620449Y-102321885D01*
X147787232Y-102571493D01*
X147999507Y-102783768D01*
X148249115Y-102950551D01*
X148526466Y-103065434D01*
X148820899Y-103124000D01*
X149121101Y-103124000D01*
X149415534Y-103065434D01*
X149692885Y-102950551D01*
X149942493Y-102783768D01*
X150116823Y-102609438D01*
X151630306Y-102609438D01*
X151675725Y-102956716D01*
X151788023Y-103288460D01*
X151899616Y-103497236D01*
X152178640Y-103610255D01*
X153236395Y-102552500D01*
X153595605Y-102552500D01*
X154653360Y-103610255D01*
X154932384Y-103497236D01*
X155087556Y-103183251D01*
X155178491Y-102845027D01*
X155201694Y-102495562D01*
X155156275Y-102148284D01*
X155043977Y-101816540D01*
X154932384Y-101607764D01*
X154653360Y-101494745D01*
X153595605Y-102552500D01*
X153236395Y-102552500D01*
X152178640Y-101494745D01*
X151899616Y-101607764D01*
X151744444Y-101921749D01*
X151653509Y-102259973D01*
X151630306Y-102609438D01*
X150116823Y-102609438D01*
X150154768Y-102571493D01*
X150321551Y-102321885D01*
X150436434Y-102044534D01*
X150495000Y-101750101D01*
X150495000Y-101449899D01*
X150468195Y-101315140D01*
X152358245Y-101315140D01*
X153416000Y-102372895D01*
X154473755Y-101315140D01*
X154360736Y-101036116D01*
X154046751Y-100880944D01*
X153708527Y-100790009D01*
X153359062Y-100766806D01*
X153011784Y-100812225D01*
X152680040Y-100924523D01*
X152471264Y-101036116D01*
X152358245Y-101315140D01*
X150468195Y-101315140D01*
X150436434Y-101155466D01*
X150321551Y-100878115D01*
X150154768Y-100628507D01*
X149942493Y-100416232D01*
X149810445Y-100328000D01*
X155918678Y-100328000D01*
X155956000Y-100331676D01*
X155993322Y-100328000D01*
X155993333Y-100328000D01*
X156104986Y-100317003D01*
X156248247Y-100273546D01*
X156380276Y-100202974D01*
X156496001Y-100108001D01*
X156519804Y-100078997D01*
X158680114Y-97918688D01*
X158862665Y-97955000D01*
X159145335Y-97955000D01*
X159422574Y-97899853D01*
X159683727Y-97791680D01*
X159918759Y-97634637D01*
X160118637Y-97434759D01*
X160275680Y-97199727D01*
X160383853Y-96938574D01*
X160439000Y-96661335D01*
X160439000Y-96378665D01*
X160383853Y-96101426D01*
X160275680Y-95840273D01*
X160118637Y-95605241D01*
X159918759Y-95405363D01*
X159683727Y-95248320D01*
X159422574Y-95140147D01*
X159145335Y-95085000D01*
X158862665Y-95085000D01*
X158585426Y-95140147D01*
X158324273Y-95248320D01*
X158089241Y-95405363D01*
X157889363Y-95605241D01*
X157732320Y-95840273D01*
X157624147Y-96101426D01*
X157569000Y-96378665D01*
X157569000Y-96661335D01*
X157605312Y-96843886D01*
X155641199Y-98808000D01*
X134657323Y-98808000D01*
X134620000Y-98804324D01*
X134582677Y-98808000D01*
X134582667Y-98808000D01*
X134471014Y-98818997D01*
X134327753Y-98862454D01*
X134195723Y-98933026D01*
X134112083Y-99001668D01*
X134079999Y-99027999D01*
X134056201Y-99056997D01*
X128013003Y-105100196D01*
X127983999Y-105123999D01*
X127957737Y-105156000D01*
X127889026Y-105239724D01*
X127875866Y-105264345D01*
X127818454Y-105371754D01*
X127774997Y-105515015D01*
X127764000Y-105626668D01*
X127764000Y-105626678D01*
X127760324Y-105664000D01*
X127764000Y-105701323D01*
X127764001Y-107881687D01*
X127545495Y-108027688D01*
X127479056Y-108094127D01*
X127473502Y-108075820D01*
X127414537Y-107965506D01*
X127335185Y-107868815D01*
X127238494Y-107789463D01*
X127128180Y-107730498D01*
X127008482Y-107694188D01*
X126884000Y-107681928D01*
X126269750Y-107685000D01*
X126111000Y-107843750D01*
X125857000Y-107843750D01*
X125698250Y-107685000D01*
X125084000Y-107681928D01*
X124959518Y-107694188D01*
X124839820Y-107730498D01*
X124729506Y-107789463D01*
X124632815Y-107868815D01*
X124553463Y-107965506D01*
X124494498Y-108075820D01*
X124458188Y-108195518D01*
X124445928Y-108320000D01*
X116967000Y-108320000D01*
X116967000Y-96369899D01*
X141097000Y-96369899D01*
X141097000Y-96670101D01*
X141155566Y-96964534D01*
X141270449Y-97241885D01*
X141437232Y-97491493D01*
X141649507Y-97703768D01*
X141899115Y-97870551D01*
X142176466Y-97985434D01*
X142470899Y-98044000D01*
X142771101Y-98044000D01*
X143065534Y-97985434D01*
X143342885Y-97870551D01*
X143592493Y-97703768D01*
X143804768Y-97491493D01*
X143971551Y-97241885D01*
X144086434Y-96964534D01*
X144145000Y-96670101D01*
X144145000Y-96369899D01*
X147447000Y-96369899D01*
X147447000Y-96670101D01*
X147505566Y-96964534D01*
X147620449Y-97241885D01*
X147787232Y-97491493D01*
X147999507Y-97703768D01*
X148249115Y-97870551D01*
X148526466Y-97985434D01*
X148820899Y-98044000D01*
X149121101Y-98044000D01*
X149415534Y-97985434D01*
X149692885Y-97870551D01*
X149942493Y-97703768D01*
X150154768Y-97491493D01*
X150321551Y-97241885D01*
X150436434Y-96964534D01*
X150495000Y-96670101D01*
X150495000Y-96369899D01*
X150436434Y-96075466D01*
X150321551Y-95798115D01*
X150154768Y-95548507D01*
X149942493Y-95336232D01*
X149692885Y-95169449D01*
X149415534Y-95054566D01*
X149121101Y-94996000D01*
X148820899Y-94996000D01*
X148526466Y-95054566D01*
X148249115Y-95169449D01*
X147999507Y-95336232D01*
X147787232Y-95548507D01*
X147620449Y-95798115D01*
X147505566Y-96075466D01*
X147447000Y-96369899D01*
X144145000Y-96369899D01*
X144086434Y-96075466D01*
X143971551Y-95798115D01*
X143804768Y-95548507D01*
X143592493Y-95336232D01*
X143342885Y-95169449D01*
X143065534Y-95054566D01*
X142771101Y-94996000D01*
X142470899Y-94996000D01*
X142176466Y-95054566D01*
X141899115Y-95169449D01*
X141649507Y-95336232D01*
X141437232Y-95548507D01*
X141270449Y-95798115D01*
X141155566Y-96075466D01*
X141097000Y-96369899D01*
X116967000Y-96369899D01*
X116967000Y-90308000D01*
X134605928Y-90308000D01*
X134618188Y-90432482D01*
X134654498Y-90552180D01*
X134713463Y-90662494D01*
X134792815Y-90759185D01*
X134889506Y-90838537D01*
X134999820Y-90897502D01*
X135119518Y-90933812D01*
X135244000Y-90946072D01*
X135858250Y-90943000D01*
X136017000Y-90784250D01*
X136017000Y-89535000D01*
X134767750Y-89535000D01*
X134609000Y-89693750D01*
X134605928Y-90308000D01*
X116967000Y-90308000D01*
X116967000Y-88508000D01*
X134605928Y-88508000D01*
X134609000Y-89122250D01*
X134767750Y-89281000D01*
X136017000Y-89281000D01*
X136017000Y-88031750D01*
X136271000Y-88031750D01*
X136271000Y-89281000D01*
X136291000Y-89281000D01*
X136291000Y-89535000D01*
X136271000Y-89535000D01*
X136271000Y-90784250D01*
X136429750Y-90943000D01*
X137044000Y-90946072D01*
X137168482Y-90933812D01*
X137288180Y-90897502D01*
X137398494Y-90838537D01*
X137495185Y-90759185D01*
X137574537Y-90662494D01*
X137633502Y-90552180D01*
X137639056Y-90533873D01*
X137705495Y-90600312D01*
X137956905Y-90768299D01*
X138236257Y-90884011D01*
X138532816Y-90943000D01*
X138835184Y-90943000D01*
X139092930Y-90891731D01*
X142184200Y-93983002D01*
X142207999Y-94012001D01*
X142236997Y-94035799D01*
X142323723Y-94106974D01*
X142455753Y-94177546D01*
X142599014Y-94221003D01*
X142710667Y-94232000D01*
X142710677Y-94232000D01*
X142748000Y-94235676D01*
X142785323Y-94232000D01*
X152085199Y-94232000D01*
X154049312Y-96196114D01*
X154013000Y-96378665D01*
X154013000Y-96661335D01*
X154068147Y-96938574D01*
X154176320Y-97199727D01*
X154333363Y-97434759D01*
X154533241Y-97634637D01*
X154768273Y-97791680D01*
X155029426Y-97899853D01*
X155306665Y-97955000D01*
X155589335Y-97955000D01*
X155866574Y-97899853D01*
X156127727Y-97791680D01*
X156362759Y-97634637D01*
X156562637Y-97434759D01*
X156719680Y-97199727D01*
X156827853Y-96938574D01*
X156883000Y-96661335D01*
X156883000Y-96378665D01*
X156827853Y-96101426D01*
X156719680Y-95840273D01*
X156562637Y-95605241D01*
X156362759Y-95405363D01*
X156127727Y-95248320D01*
X155866574Y-95140147D01*
X155589335Y-95085000D01*
X155306665Y-95085000D01*
X155124114Y-95121312D01*
X152963804Y-92961003D01*
X152940001Y-92931999D01*
X152824276Y-92837026D01*
X152692247Y-92766454D01*
X152548986Y-92722997D01*
X152437333Y-92712000D01*
X152437322Y-92712000D01*
X152400000Y-92708324D01*
X152362678Y-92712000D01*
X143062802Y-92712000D01*
X140658802Y-90308000D01*
X142733928Y-90308000D01*
X142746188Y-90432482D01*
X142782498Y-90552180D01*
X142841463Y-90662494D01*
X142920815Y-90759185D01*
X143017506Y-90838537D01*
X143127820Y-90897502D01*
X143247518Y-90933812D01*
X143372000Y-90946072D01*
X143986250Y-90943000D01*
X144145000Y-90784250D01*
X144145000Y-89535000D01*
X142895750Y-89535000D01*
X142737000Y-89693750D01*
X142733928Y-90308000D01*
X140658802Y-90308000D01*
X140167731Y-89816930D01*
X140219000Y-89559184D01*
X140219000Y-89256816D01*
X140160011Y-88960257D01*
X140044299Y-88680905D01*
X139928768Y-88508000D01*
X142733928Y-88508000D01*
X142737000Y-89122250D01*
X142895750Y-89281000D01*
X144145000Y-89281000D01*
X144145000Y-88031750D01*
X144399000Y-88031750D01*
X144399000Y-89281000D01*
X144419000Y-89281000D01*
X144419000Y-89535000D01*
X144399000Y-89535000D01*
X144399000Y-90784250D01*
X144557750Y-90943000D01*
X145172000Y-90946072D01*
X145296482Y-90933812D01*
X145416180Y-90897502D01*
X145526494Y-90838537D01*
X145623185Y-90759185D01*
X145702537Y-90662494D01*
X145761502Y-90552180D01*
X145767056Y-90533873D01*
X145833495Y-90600312D01*
X146084905Y-90768299D01*
X146364257Y-90884011D01*
X146660816Y-90943000D01*
X146963184Y-90943000D01*
X147259743Y-90884011D01*
X147539095Y-90768299D01*
X147790505Y-90600312D01*
X148004312Y-90386505D01*
X148150313Y-90168000D01*
X162245199Y-90168000D01*
X168273312Y-96196114D01*
X168237000Y-96378665D01*
X168237000Y-96661335D01*
X168292147Y-96938574D01*
X168400320Y-97199727D01*
X168557363Y-97434759D01*
X168757241Y-97634637D01*
X168992273Y-97791680D01*
X169253426Y-97899853D01*
X169530665Y-97955000D01*
X169813335Y-97955000D01*
X170090574Y-97899853D01*
X170351727Y-97791680D01*
X170436001Y-97735370D01*
X170436000Y-118834678D01*
X170432324Y-118872000D01*
X170436000Y-118909322D01*
X170436000Y-118909332D01*
X170446997Y-119020985D01*
X170453896Y-119043727D01*
X170490454Y-119164246D01*
X170561026Y-119296276D01*
X170600871Y-119344826D01*
X170655999Y-119412001D01*
X170685003Y-119435804D01*
X175893312Y-124644114D01*
X175857000Y-124826665D01*
X175857000Y-125109335D01*
X175912147Y-125386574D01*
X176020320Y-125647727D01*
X176177363Y-125882759D01*
X176377241Y-126082637D01*
X176612273Y-126239680D01*
X176873426Y-126347853D01*
X177150665Y-126403000D01*
X177433335Y-126403000D01*
X177710574Y-126347853D01*
X177971727Y-126239680D01*
X178206759Y-126082637D01*
X178406637Y-125882759D01*
X178563498Y-125648000D01*
X182442363Y-125648000D01*
X182501631Y-125758883D01*
X182696576Y-125996424D01*
X182934117Y-126191369D01*
X183205125Y-126336226D01*
X183499187Y-126425428D01*
X183728364Y-126448000D01*
X185079636Y-126448000D01*
X185308813Y-126425428D01*
X185602875Y-126336226D01*
X185873883Y-126191369D01*
X186111424Y-125996424D01*
X186306369Y-125758883D01*
X186365637Y-125648000D01*
X194942363Y-125648000D01*
X195001631Y-125758883D01*
X195196576Y-125996424D01*
X195434117Y-126191369D01*
X195705125Y-126336226D01*
X195999187Y-126425428D01*
X196228364Y-126448000D01*
X197579636Y-126448000D01*
X197808813Y-126425428D01*
X198102875Y-126336226D01*
X198373883Y-126191369D01*
X198611424Y-125996424D01*
X198806369Y-125758883D01*
X198951226Y-125487875D01*
X199040428Y-125193813D01*
X199070548Y-124888000D01*
X199040428Y-124582187D01*
X198951226Y-124288125D01*
X198806369Y-124017117D01*
X198611424Y-123779576D01*
X198373883Y-123584631D01*
X198102875Y-123439774D01*
X197808813Y-123350572D01*
X197579636Y-123328000D01*
X196228364Y-123328000D01*
X195999187Y-123350572D01*
X195705125Y-123439774D01*
X195434117Y-123584631D01*
X195196576Y-123779576D01*
X195001631Y-124017117D01*
X194942363Y-124128000D01*
X186365637Y-124128000D01*
X186306369Y-124017117D01*
X186111424Y-123779576D01*
X185873883Y-123584631D01*
X185602875Y-123439774D01*
X185308813Y-123350572D01*
X185079636Y-123328000D01*
X183728364Y-123328000D01*
X183499187Y-123350572D01*
X183205125Y-123439774D01*
X182934117Y-123584631D01*
X182696576Y-123779576D01*
X182501631Y-124017117D01*
X182442363Y-124128000D01*
X178456589Y-124128000D01*
X178406637Y-124053241D01*
X178206759Y-123853363D01*
X177971727Y-123696320D01*
X177710574Y-123588147D01*
X177433335Y-123533000D01*
X177150665Y-123533000D01*
X176968114Y-123569312D01*
X171956000Y-118557199D01*
X171956000Y-108514801D01*
X173342543Y-109901345D01*
X173212774Y-110144125D01*
X173123572Y-110438187D01*
X173093452Y-110744000D01*
X173123572Y-111049813D01*
X173212774Y-111343875D01*
X173357631Y-111614883D01*
X173552576Y-111852424D01*
X173790117Y-112047369D01*
X174061125Y-112192226D01*
X174355187Y-112281428D01*
X174584364Y-112304000D01*
X175935636Y-112304000D01*
X176164813Y-112281428D01*
X176458875Y-112192226D01*
X176729883Y-112047369D01*
X176967424Y-111852424D01*
X177162369Y-111614883D01*
X177221637Y-111504000D01*
X185798363Y-111504000D01*
X185857631Y-111614883D01*
X186052576Y-111852424D01*
X186290117Y-112047369D01*
X186561125Y-112192226D01*
X186855187Y-112281428D01*
X187084364Y-112304000D01*
X188435636Y-112304000D01*
X188664813Y-112281428D01*
X188958875Y-112192226D01*
X189229883Y-112047369D01*
X189467424Y-111852424D01*
X189662369Y-111614883D01*
X189807226Y-111343875D01*
X189896428Y-111049813D01*
X189926548Y-110744000D01*
X189896428Y-110438187D01*
X189807226Y-110144125D01*
X189662369Y-109873117D01*
X189467424Y-109635576D01*
X189229883Y-109440631D01*
X188958875Y-109295774D01*
X188664813Y-109206572D01*
X188435636Y-109184000D01*
X187084364Y-109184000D01*
X186855187Y-109206572D01*
X186561125Y-109295774D01*
X186290117Y-109440631D01*
X186052576Y-109635576D01*
X185857631Y-109873117D01*
X185798363Y-109984000D01*
X177221637Y-109984000D01*
X177162369Y-109873117D01*
X176967424Y-109635576D01*
X176729883Y-109440631D01*
X176458875Y-109295774D01*
X176164813Y-109206572D01*
X175935636Y-109184000D01*
X174774802Y-109184000D01*
X172972000Y-107381199D01*
X172972000Y-106112664D01*
X173145188Y-106112664D01*
X173171147Y-106223655D01*
X173293350Y-106505094D01*
X173468111Y-106757285D01*
X173688714Y-106970536D01*
X173946681Y-107136652D01*
X174232099Y-107249249D01*
X174534000Y-107304000D01*
X175133000Y-107304000D01*
X175133000Y-105871000D01*
X175387000Y-105871000D01*
X175387000Y-107304000D01*
X175986000Y-107304000D01*
X176287901Y-107249249D01*
X176573319Y-107136652D01*
X176831286Y-106970536D01*
X177051889Y-106757285D01*
X177226650Y-106505094D01*
X177348853Y-106223655D01*
X177374812Y-106112664D01*
X185645188Y-106112664D01*
X185671147Y-106223655D01*
X185793350Y-106505094D01*
X185968111Y-106757285D01*
X186188714Y-106970536D01*
X186446681Y-107136652D01*
X186732099Y-107249249D01*
X187034000Y-107304000D01*
X187633000Y-107304000D01*
X187633000Y-105871000D01*
X187887000Y-105871000D01*
X187887000Y-107304000D01*
X188486000Y-107304000D01*
X188787901Y-107249249D01*
X189073319Y-107136652D01*
X189331286Y-106970536D01*
X189551889Y-106757285D01*
X189726650Y-106505094D01*
X189848853Y-106223655D01*
X189874812Y-106112664D01*
X189834979Y-106032664D01*
X191433188Y-106032664D01*
X191459147Y-106143655D01*
X191581350Y-106425094D01*
X191756111Y-106677285D01*
X191976714Y-106890536D01*
X192234681Y-107056652D01*
X192520099Y-107169249D01*
X192822000Y-107224000D01*
X193421000Y-107224000D01*
X193421000Y-105791000D01*
X193675000Y-105791000D01*
X193675000Y-107224000D01*
X194274000Y-107224000D01*
X194575901Y-107169249D01*
X194861319Y-107056652D01*
X195119286Y-106890536D01*
X195339889Y-106677285D01*
X195514650Y-106425094D01*
X195636853Y-106143655D01*
X195662812Y-106032664D01*
X203933188Y-106032664D01*
X203959147Y-106143655D01*
X204081350Y-106425094D01*
X204256111Y-106677285D01*
X204476714Y-106890536D01*
X204734681Y-107056652D01*
X205020099Y-107169249D01*
X205322000Y-107224000D01*
X205921000Y-107224000D01*
X205921000Y-105791000D01*
X204053517Y-105791000D01*
X203933188Y-106032664D01*
X195662812Y-106032664D01*
X195542483Y-105791000D01*
X193675000Y-105791000D01*
X193421000Y-105791000D01*
X191553517Y-105791000D01*
X191433188Y-106032664D01*
X189834979Y-106032664D01*
X189754483Y-105871000D01*
X187887000Y-105871000D01*
X187633000Y-105871000D01*
X185765517Y-105871000D01*
X185645188Y-106112664D01*
X177374812Y-106112664D01*
X177254483Y-105871000D01*
X175387000Y-105871000D01*
X175133000Y-105871000D01*
X173265517Y-105871000D01*
X173145188Y-106112664D01*
X172972000Y-106112664D01*
X172972000Y-105375336D01*
X173145188Y-105375336D01*
X173265517Y-105617000D01*
X175133000Y-105617000D01*
X175133000Y-104184000D01*
X175387000Y-104184000D01*
X175387000Y-105617000D01*
X177254483Y-105617000D01*
X177374812Y-105375336D01*
X185645188Y-105375336D01*
X185765517Y-105617000D01*
X187633000Y-105617000D01*
X187633000Y-104184000D01*
X187887000Y-104184000D01*
X187887000Y-105617000D01*
X189754483Y-105617000D01*
X189874812Y-105375336D01*
X189856102Y-105295336D01*
X191433188Y-105295336D01*
X191553517Y-105537000D01*
X193421000Y-105537000D01*
X193421000Y-104104000D01*
X193675000Y-104104000D01*
X193675000Y-105537000D01*
X195542483Y-105537000D01*
X195662812Y-105295336D01*
X203933188Y-105295336D01*
X204053517Y-105537000D01*
X205921000Y-105537000D01*
X205921000Y-104104000D01*
X205322000Y-104104000D01*
X205020099Y-104158751D01*
X204734681Y-104271348D01*
X204476714Y-104437464D01*
X204256111Y-104650715D01*
X204081350Y-104902906D01*
X203959147Y-105184345D01*
X203933188Y-105295336D01*
X195662812Y-105295336D01*
X195636853Y-105184345D01*
X195514650Y-104902906D01*
X195339889Y-104650715D01*
X195119286Y-104437464D01*
X194861319Y-104271348D01*
X194575901Y-104158751D01*
X194274000Y-104104000D01*
X193675000Y-104104000D01*
X193421000Y-104104000D01*
X192822000Y-104104000D01*
X192520099Y-104158751D01*
X192234681Y-104271348D01*
X191976714Y-104437464D01*
X191756111Y-104650715D01*
X191581350Y-104902906D01*
X191459147Y-105184345D01*
X191433188Y-105295336D01*
X189856102Y-105295336D01*
X189848853Y-105264345D01*
X189726650Y-104982906D01*
X189551889Y-104730715D01*
X189331286Y-104517464D01*
X189073319Y-104351348D01*
X188787901Y-104238751D01*
X188486000Y-104184000D01*
X187887000Y-104184000D01*
X187633000Y-104184000D01*
X187034000Y-104184000D01*
X186732099Y-104238751D01*
X186446681Y-104351348D01*
X186188714Y-104517464D01*
X185968111Y-104730715D01*
X185793350Y-104982906D01*
X185671147Y-105264345D01*
X185645188Y-105375336D01*
X177374812Y-105375336D01*
X177348853Y-105264345D01*
X177226650Y-104982906D01*
X177051889Y-104730715D01*
X176831286Y-104517464D01*
X176573319Y-104351348D01*
X176287901Y-104238751D01*
X175986000Y-104184000D01*
X175387000Y-104184000D01*
X175133000Y-104184000D01*
X174534000Y-104184000D01*
X174232099Y-104238751D01*
X173946681Y-104351348D01*
X173688714Y-104517464D01*
X173468111Y-104730715D01*
X173293350Y-104982906D01*
X173171147Y-105264345D01*
X173145188Y-105375336D01*
X172972000Y-105375336D01*
X172972000Y-98410665D01*
X173317000Y-98410665D01*
X173317000Y-98693335D01*
X173372147Y-98970574D01*
X173480320Y-99231727D01*
X173637363Y-99466759D01*
X173837241Y-99666637D01*
X174072273Y-99823680D01*
X174333426Y-99931853D01*
X174610665Y-99987000D01*
X174893335Y-99987000D01*
X175170574Y-99931853D01*
X175431727Y-99823680D01*
X175666759Y-99666637D01*
X175866637Y-99466759D01*
X176023680Y-99231727D01*
X176131853Y-98970574D01*
X176187000Y-98693335D01*
X176187000Y-98410665D01*
X177381000Y-98410665D01*
X177381000Y-98693335D01*
X177436147Y-98970574D01*
X177544320Y-99231727D01*
X177701363Y-99466759D01*
X177901241Y-99666637D01*
X178136273Y-99823680D01*
X178397426Y-99931853D01*
X178674665Y-99987000D01*
X178957335Y-99987000D01*
X179234574Y-99931853D01*
X179495727Y-99823680D01*
X179730759Y-99666637D01*
X179930637Y-99466759D01*
X180087680Y-99231727D01*
X180195853Y-98970574D01*
X180251000Y-98693335D01*
X180251000Y-98410665D01*
X180195853Y-98133426D01*
X180087680Y-97872273D01*
X179930637Y-97637241D01*
X179730759Y-97437363D01*
X179495727Y-97280320D01*
X179234574Y-97172147D01*
X178957335Y-97117000D01*
X178674665Y-97117000D01*
X178397426Y-97172147D01*
X178136273Y-97280320D01*
X177901241Y-97437363D01*
X177701363Y-97637241D01*
X177544320Y-97872273D01*
X177436147Y-98133426D01*
X177381000Y-98410665D01*
X176187000Y-98410665D01*
X176131853Y-98133426D01*
X176023680Y-97872273D01*
X175866637Y-97637241D01*
X175666759Y-97437363D01*
X175431727Y-97280320D01*
X175170574Y-97172147D01*
X174893335Y-97117000D01*
X174610665Y-97117000D01*
X174333426Y-97172147D01*
X174072273Y-97280320D01*
X173837241Y-97437363D01*
X173637363Y-97637241D01*
X173480320Y-97872273D01*
X173372147Y-98133426D01*
X173317000Y-98410665D01*
X172972000Y-98410665D01*
X172972000Y-88706801D01*
X173317000Y-88361802D01*
X173317000Y-88533335D01*
X173372147Y-88810574D01*
X173480320Y-89071727D01*
X173637363Y-89306759D01*
X173837241Y-89506637D01*
X173992001Y-89610044D01*
X173992001Y-89878668D01*
X173988324Y-89916000D01*
X174002998Y-90064985D01*
X174046454Y-90208246D01*
X174117026Y-90340276D01*
X174188201Y-90427002D01*
X174212000Y-90456001D01*
X174240998Y-90479799D01*
X180712201Y-96951003D01*
X180735999Y-96980001D01*
X180851724Y-97074974D01*
X180983753Y-97145546D01*
X181127014Y-97189003D01*
X181238667Y-97200000D01*
X181238676Y-97200000D01*
X181275999Y-97203676D01*
X181313322Y-97200000D01*
X182442363Y-97200000D01*
X182501631Y-97310883D01*
X182696576Y-97548424D01*
X182934117Y-97743369D01*
X183205125Y-97888226D01*
X183499187Y-97977428D01*
X183728364Y-98000000D01*
X185079636Y-98000000D01*
X185308813Y-97977428D01*
X185602875Y-97888226D01*
X185873883Y-97743369D01*
X186111424Y-97548424D01*
X186306369Y-97310883D01*
X186365637Y-97200000D01*
X194942363Y-97200000D01*
X195001631Y-97310883D01*
X195196576Y-97548424D01*
X195434117Y-97743369D01*
X195705125Y-97888226D01*
X195999187Y-97977428D01*
X196228364Y-98000000D01*
X197579636Y-98000000D01*
X197808813Y-97977428D01*
X198102875Y-97888226D01*
X198373883Y-97743369D01*
X198611424Y-97548424D01*
X198806369Y-97310883D01*
X198951226Y-97039875D01*
X199040428Y-96745813D01*
X199070548Y-96440000D01*
X199040428Y-96134187D01*
X198951226Y-95840125D01*
X198806369Y-95569117D01*
X198611424Y-95331576D01*
X198373883Y-95136631D01*
X198102875Y-94991774D01*
X197808813Y-94902572D01*
X197579636Y-94880000D01*
X196228364Y-94880000D01*
X195999187Y-94902572D01*
X195705125Y-94991774D01*
X195434117Y-95136631D01*
X195196576Y-95331576D01*
X195001631Y-95569117D01*
X194942363Y-95680000D01*
X186365637Y-95680000D01*
X186306369Y-95569117D01*
X186111424Y-95331576D01*
X185873883Y-95136631D01*
X185602875Y-94991774D01*
X185308813Y-94902572D01*
X185079636Y-94880000D01*
X183728364Y-94880000D01*
X183499187Y-94902572D01*
X183205125Y-94991774D01*
X182934117Y-95136631D01*
X182696576Y-95331576D01*
X182501631Y-95569117D01*
X182442363Y-95680000D01*
X181590802Y-95680000D01*
X177719466Y-91808664D01*
X182289188Y-91808664D01*
X182315147Y-91919655D01*
X182437350Y-92201094D01*
X182612111Y-92453285D01*
X182832714Y-92666536D01*
X183090681Y-92832652D01*
X183376099Y-92945249D01*
X183678000Y-93000000D01*
X184277000Y-93000000D01*
X184277000Y-91567000D01*
X184531000Y-91567000D01*
X184531000Y-93000000D01*
X185130000Y-93000000D01*
X185431901Y-92945249D01*
X185717319Y-92832652D01*
X185975286Y-92666536D01*
X186195889Y-92453285D01*
X186370650Y-92201094D01*
X186492853Y-91919655D01*
X186518812Y-91808664D01*
X194789188Y-91808664D01*
X194815147Y-91919655D01*
X194937350Y-92201094D01*
X195112111Y-92453285D01*
X195332714Y-92666536D01*
X195590681Y-92832652D01*
X195876099Y-92945249D01*
X196178000Y-93000000D01*
X196777000Y-93000000D01*
X196777000Y-91567000D01*
X197031000Y-91567000D01*
X197031000Y-93000000D01*
X197630000Y-93000000D01*
X197931901Y-92945249D01*
X198217319Y-92832652D01*
X198475286Y-92666536D01*
X198695889Y-92453285D01*
X198870650Y-92201094D01*
X198992853Y-91919655D01*
X199018812Y-91808664D01*
X198898483Y-91567000D01*
X197031000Y-91567000D01*
X196777000Y-91567000D01*
X194909517Y-91567000D01*
X194789188Y-91808664D01*
X186518812Y-91808664D01*
X186398483Y-91567000D01*
X184531000Y-91567000D01*
X184277000Y-91567000D01*
X182409517Y-91567000D01*
X182289188Y-91808664D01*
X177719466Y-91808664D01*
X176982138Y-91071336D01*
X182289188Y-91071336D01*
X182409517Y-91313000D01*
X184277000Y-91313000D01*
X184277000Y-89880000D01*
X184531000Y-89880000D01*
X184531000Y-91313000D01*
X186398483Y-91313000D01*
X186518812Y-91071336D01*
X194789188Y-91071336D01*
X194909517Y-91313000D01*
X196777000Y-91313000D01*
X196777000Y-89880000D01*
X197031000Y-89880000D01*
X197031000Y-91313000D01*
X198898483Y-91313000D01*
X199018812Y-91071336D01*
X198992853Y-90960345D01*
X198870650Y-90678906D01*
X198695889Y-90426715D01*
X198475286Y-90213464D01*
X198217319Y-90047348D01*
X197931901Y-89934751D01*
X197630000Y-89880000D01*
X197031000Y-89880000D01*
X196777000Y-89880000D01*
X196178000Y-89880000D01*
X195876099Y-89934751D01*
X195590681Y-90047348D01*
X195332714Y-90213464D01*
X195112111Y-90426715D01*
X194937350Y-90678906D01*
X194815147Y-90960345D01*
X194789188Y-91071336D01*
X186518812Y-91071336D01*
X186492853Y-90960345D01*
X186370650Y-90678906D01*
X186195889Y-90426715D01*
X185975286Y-90213464D01*
X185717319Y-90047348D01*
X185431901Y-89934751D01*
X185130000Y-89880000D01*
X184531000Y-89880000D01*
X184277000Y-89880000D01*
X183678000Y-89880000D01*
X183376099Y-89934751D01*
X183090681Y-90047348D01*
X182832714Y-90213464D01*
X182612111Y-90426715D01*
X182437350Y-90678906D01*
X182315147Y-90960345D01*
X182289188Y-91071336D01*
X176982138Y-91071336D01*
X175517302Y-89606501D01*
X175666759Y-89506637D01*
X175866637Y-89306759D01*
X176023680Y-89071727D01*
X176131853Y-88810574D01*
X176187000Y-88533335D01*
X176187000Y-88250665D01*
X176131853Y-87973426D01*
X176023680Y-87712273D01*
X175866637Y-87477241D01*
X175666759Y-87277363D01*
X175512000Y-87173957D01*
X175512000Y-86674801D01*
X175574802Y-86612000D01*
X179286678Y-86612000D01*
X179324000Y-86615676D01*
X179361322Y-86612000D01*
X179361333Y-86612000D01*
X179472986Y-86601003D01*
X179616247Y-86557546D01*
X179748276Y-86486974D01*
X179864001Y-86392001D01*
X179887803Y-86362998D01*
X180343003Y-85907798D01*
X180372001Y-85884001D01*
X180466974Y-85768276D01*
X180537546Y-85636247D01*
X180581003Y-85492986D01*
X180592000Y-85381333D01*
X180592000Y-85381324D01*
X180595676Y-85344001D01*
X180592000Y-85306678D01*
X180592000Y-85038043D01*
X180746759Y-84934637D01*
X180946637Y-84734759D01*
X181102000Y-84502241D01*
X181257363Y-84734759D01*
X181457241Y-84934637D01*
X181612001Y-85038044D01*
X181612001Y-85537196D01*
X179801297Y-87347901D01*
X179730759Y-87277363D01*
X179495727Y-87120320D01*
X179234574Y-87012147D01*
X178957335Y-86957000D01*
X178674665Y-86957000D01*
X178397426Y-87012147D01*
X178136273Y-87120320D01*
X177901241Y-87277363D01*
X177701363Y-87477241D01*
X177544320Y-87712273D01*
X177436147Y-87973426D01*
X177381000Y-88250665D01*
X177381000Y-88533335D01*
X177436147Y-88810574D01*
X177544320Y-89071727D01*
X177701363Y-89306759D01*
X177901241Y-89506637D01*
X178136273Y-89663680D01*
X178397426Y-89771853D01*
X178674665Y-89827000D01*
X178957335Y-89827000D01*
X179234574Y-89771853D01*
X179495727Y-89663680D01*
X179730759Y-89506637D01*
X179930637Y-89306759D01*
X180056747Y-89118022D01*
X180124247Y-89097546D01*
X180256276Y-89026974D01*
X180372001Y-88932001D01*
X180395804Y-88902997D01*
X182883008Y-86415795D01*
X182912001Y-86392001D01*
X182935795Y-86363008D01*
X182935799Y-86363004D01*
X183006973Y-86276277D01*
X183006974Y-86276276D01*
X183077546Y-86144247D01*
X183121003Y-86000986D01*
X183132000Y-85889333D01*
X183132000Y-85889324D01*
X183135676Y-85852001D01*
X183132000Y-85814678D01*
X183132000Y-85038043D01*
X183286759Y-84934637D01*
X183486637Y-84734759D01*
X183642000Y-84502241D01*
X183797363Y-84734759D01*
X183997241Y-84934637D01*
X184232273Y-85091680D01*
X184493426Y-85199853D01*
X184770665Y-85255000D01*
X185053335Y-85255000D01*
X185330574Y-85199853D01*
X185591727Y-85091680D01*
X185826759Y-84934637D01*
X186026637Y-84734759D01*
X186182000Y-84502241D01*
X186337363Y-84734759D01*
X186537241Y-84934637D01*
X186772273Y-85091680D01*
X187033426Y-85199853D01*
X187310665Y-85255000D01*
X187593335Y-85255000D01*
X187870574Y-85199853D01*
X188131727Y-85091680D01*
X188366759Y-84934637D01*
X188566637Y-84734759D01*
X188723680Y-84499727D01*
X188831853Y-84238574D01*
X188887000Y-83961335D01*
X188887000Y-83678665D01*
X188831853Y-83401426D01*
X188723680Y-83140273D01*
X188566637Y-82905241D01*
X188366759Y-82705363D01*
X188131727Y-82548320D01*
X187870574Y-82440147D01*
X187593335Y-82385000D01*
X187310665Y-82385000D01*
X187033426Y-82440147D01*
X186772273Y-82548320D01*
X186537241Y-82705363D01*
X186337363Y-82905241D01*
X186182000Y-83137759D01*
X186026637Y-82905241D01*
X185826759Y-82705363D01*
X185591727Y-82548320D01*
X185330574Y-82440147D01*
X185053335Y-82385000D01*
X184770665Y-82385000D01*
X184493426Y-82440147D01*
X184232273Y-82548320D01*
X183997241Y-82705363D01*
X183797363Y-82905241D01*
X183642000Y-83137759D01*
X183486637Y-82905241D01*
X183286759Y-82705363D01*
X183051727Y-82548320D01*
X182790574Y-82440147D01*
X182513335Y-82385000D01*
X182230665Y-82385000D01*
X181953426Y-82440147D01*
X181692273Y-82548320D01*
X181457241Y-82705363D01*
X181257363Y-82905241D01*
X181102000Y-83137759D01*
X180946637Y-82905241D01*
X180746759Y-82705363D01*
X180511727Y-82548320D01*
X180250574Y-82440147D01*
X179973335Y-82385000D01*
X179690665Y-82385000D01*
X179413426Y-82440147D01*
X179152273Y-82548320D01*
X178917241Y-82705363D01*
X178717363Y-82905241D01*
X178562000Y-83137759D01*
X178406637Y-82905241D01*
X178206759Y-82705363D01*
X177971727Y-82548320D01*
X177710574Y-82440147D01*
X177433335Y-82385000D01*
X177150665Y-82385000D01*
X176873426Y-82440147D01*
X176612273Y-82548320D01*
X176377241Y-82705363D01*
X176177363Y-82905241D01*
X176022000Y-83137759D01*
X175866637Y-82905241D01*
X175666759Y-82705363D01*
X175431727Y-82548320D01*
X175170574Y-82440147D01*
X174893335Y-82385000D01*
X174610665Y-82385000D01*
X174333426Y-82440147D01*
X174072273Y-82548320D01*
X173837241Y-82705363D01*
X173637363Y-82905241D01*
X173482000Y-83137759D01*
X173326637Y-82905241D01*
X173126759Y-82705363D01*
X172891727Y-82548320D01*
X172630574Y-82440147D01*
X172353335Y-82385000D01*
X172070665Y-82385000D01*
X171793426Y-82440147D01*
X171532273Y-82548320D01*
X171297241Y-82705363D01*
X171097363Y-82905241D01*
X170942000Y-83137759D01*
X170786637Y-82905241D01*
X170586759Y-82705363D01*
X170351727Y-82548320D01*
X170090574Y-82440147D01*
X169813335Y-82385000D01*
X169530665Y-82385000D01*
X169253426Y-82440147D01*
X168992273Y-82548320D01*
X168757241Y-82705363D01*
X168557363Y-82905241D01*
X168400320Y-83140273D01*
X168292147Y-83401426D01*
X168237000Y-83678665D01*
X168237000Y-83961335D01*
X168292147Y-84238574D01*
X168400320Y-84499727D01*
X168557363Y-84734759D01*
X168757241Y-84934637D01*
X168912000Y-85038044D01*
X168912001Y-85141956D01*
X168757241Y-85245363D01*
X168557363Y-85445241D01*
X168400320Y-85680273D01*
X168292147Y-85941426D01*
X168237000Y-86218665D01*
X168237000Y-86501335D01*
X168292147Y-86778574D01*
X168400320Y-87039727D01*
X168557363Y-87274759D01*
X168757241Y-87474637D01*
X168992273Y-87631680D01*
X169253426Y-87739853D01*
X169530665Y-87795000D01*
X169813335Y-87795000D01*
X170090574Y-87739853D01*
X170351727Y-87631680D01*
X170436001Y-87575370D01*
X170436001Y-95304630D01*
X170351727Y-95248320D01*
X170090574Y-95140147D01*
X169813335Y-95085000D01*
X169530665Y-95085000D01*
X169348114Y-95121312D01*
X163123804Y-88897003D01*
X163100001Y-88867999D01*
X162984276Y-88773026D01*
X162852247Y-88702454D01*
X162708986Y-88658997D01*
X162597333Y-88648000D01*
X162597322Y-88648000D01*
X162560000Y-88644324D01*
X162522678Y-88648000D01*
X148150313Y-88648000D01*
X148004312Y-88429495D01*
X147790505Y-88215688D01*
X147539095Y-88047701D01*
X147259743Y-87931989D01*
X146963184Y-87873000D01*
X146660816Y-87873000D01*
X146364257Y-87931989D01*
X146084905Y-88047701D01*
X145833495Y-88215688D01*
X145767056Y-88282127D01*
X145761502Y-88263820D01*
X145702537Y-88153506D01*
X145623185Y-88056815D01*
X145526494Y-87977463D01*
X145416180Y-87918498D01*
X145296482Y-87882188D01*
X145172000Y-87869928D01*
X144557750Y-87873000D01*
X144399000Y-88031750D01*
X144145000Y-88031750D01*
X143986250Y-87873000D01*
X143372000Y-87869928D01*
X143247518Y-87882188D01*
X143127820Y-87918498D01*
X143017506Y-87977463D01*
X142920815Y-88056815D01*
X142841463Y-88153506D01*
X142782498Y-88263820D01*
X142746188Y-88383518D01*
X142733928Y-88508000D01*
X139928768Y-88508000D01*
X139876312Y-88429495D01*
X139662505Y-88215688D01*
X139411095Y-88047701D01*
X139131743Y-87931989D01*
X138835184Y-87873000D01*
X138532816Y-87873000D01*
X138236257Y-87931989D01*
X137956905Y-88047701D01*
X137705495Y-88215688D01*
X137639056Y-88282127D01*
X137633502Y-88263820D01*
X137574537Y-88153506D01*
X137495185Y-88056815D01*
X137398494Y-87977463D01*
X137288180Y-87918498D01*
X137168482Y-87882188D01*
X137044000Y-87869928D01*
X136429750Y-87873000D01*
X136271000Y-88031750D01*
X136017000Y-88031750D01*
X135858250Y-87873000D01*
X135244000Y-87869928D01*
X135119518Y-87882188D01*
X134999820Y-87918498D01*
X134889506Y-87977463D01*
X134792815Y-88056815D01*
X134713463Y-88153506D01*
X134654498Y-88263820D01*
X134618188Y-88383518D01*
X134605928Y-88508000D01*
X116967000Y-88508000D01*
X116967000Y-83678665D01*
X141317000Y-83678665D01*
X141317000Y-83961335D01*
X141372147Y-84238574D01*
X141480320Y-84499727D01*
X141637363Y-84734759D01*
X141837241Y-84934637D01*
X142072273Y-85091680D01*
X142333426Y-85199853D01*
X142610665Y-85255000D01*
X142893335Y-85255000D01*
X143170574Y-85199853D01*
X143431727Y-85091680D01*
X143666759Y-84934637D01*
X143866637Y-84734759D01*
X144022000Y-84502241D01*
X144177363Y-84734759D01*
X144377241Y-84934637D01*
X144612273Y-85091680D01*
X144873426Y-85199853D01*
X145150665Y-85255000D01*
X145433335Y-85255000D01*
X145710574Y-85199853D01*
X145971727Y-85091680D01*
X146206759Y-84934637D01*
X146406637Y-84734759D01*
X146562000Y-84502241D01*
X146717363Y-84734759D01*
X146917241Y-84934637D01*
X147152273Y-85091680D01*
X147413426Y-85199853D01*
X147690665Y-85255000D01*
X147973335Y-85255000D01*
X148250574Y-85199853D01*
X148511727Y-85091680D01*
X148746759Y-84934637D01*
X148946637Y-84734759D01*
X149103680Y-84499727D01*
X149108067Y-84489135D01*
X149219615Y-84675131D01*
X149408586Y-84883519D01*
X149634580Y-85051037D01*
X149888913Y-85171246D01*
X150022961Y-85211904D01*
X150245000Y-85089915D01*
X150245000Y-83947000D01*
X150225000Y-83947000D01*
X150225000Y-83693000D01*
X150245000Y-83693000D01*
X150245000Y-82550085D01*
X150499000Y-82550085D01*
X150499000Y-83693000D01*
X150519000Y-83693000D01*
X150519000Y-83947000D01*
X150499000Y-83947000D01*
X150499000Y-85089915D01*
X150721039Y-85211904D01*
X150855087Y-85171246D01*
X151109420Y-85051037D01*
X151335414Y-84883519D01*
X151524385Y-84675131D01*
X151635933Y-84489135D01*
X151640320Y-84499727D01*
X151797363Y-84734759D01*
X151997241Y-84934637D01*
X152232273Y-85091680D01*
X152493426Y-85199853D01*
X152770665Y-85255000D01*
X153053335Y-85255000D01*
X153330574Y-85199853D01*
X153591727Y-85091680D01*
X153826759Y-84934637D01*
X154026637Y-84734759D01*
X154182000Y-84502241D01*
X154337363Y-84734759D01*
X154537241Y-84934637D01*
X154767759Y-85088664D01*
X154533241Y-85245363D01*
X154333363Y-85445241D01*
X154176320Y-85680273D01*
X154068147Y-85941426D01*
X154013000Y-86218665D01*
X154013000Y-86501335D01*
X154068147Y-86778574D01*
X154176320Y-87039727D01*
X154333363Y-87274759D01*
X154533241Y-87474637D01*
X154768273Y-87631680D01*
X155029426Y-87739853D01*
X155306665Y-87795000D01*
X155589335Y-87795000D01*
X155866574Y-87739853D01*
X156127727Y-87631680D01*
X156362759Y-87474637D01*
X156562637Y-87274759D01*
X156719680Y-87039727D01*
X156827853Y-86778574D01*
X156883000Y-86501335D01*
X156883000Y-86218665D01*
X156846688Y-86036114D01*
X157664778Y-85218024D01*
X157850665Y-85255000D01*
X158079604Y-85255000D01*
X157889363Y-85445241D01*
X157732320Y-85680273D01*
X157624147Y-85941426D01*
X157569000Y-86218665D01*
X157569000Y-86501335D01*
X157624147Y-86778574D01*
X157732320Y-87039727D01*
X157889363Y-87274759D01*
X158089241Y-87474637D01*
X158324273Y-87631680D01*
X158585426Y-87739853D01*
X158862665Y-87795000D01*
X159145335Y-87795000D01*
X159422574Y-87739853D01*
X159683727Y-87631680D01*
X159918759Y-87474637D01*
X160118637Y-87274759D01*
X160275680Y-87039727D01*
X160383853Y-86778574D01*
X160439000Y-86501335D01*
X160439000Y-86218665D01*
X160402688Y-86036114D01*
X161043004Y-85395798D01*
X161072001Y-85372001D01*
X161166974Y-85256276D01*
X161237546Y-85124247D01*
X161256500Y-85061764D01*
X161446759Y-84934637D01*
X161646637Y-84734759D01*
X161802000Y-84502241D01*
X161957363Y-84734759D01*
X162157241Y-84934637D01*
X162206099Y-84967283D01*
X162141426Y-84980147D01*
X161880273Y-85088320D01*
X161645241Y-85245363D01*
X161445363Y-85445241D01*
X161288320Y-85680273D01*
X161180147Y-85941426D01*
X161125000Y-86218665D01*
X161125000Y-86501335D01*
X161180147Y-86778574D01*
X161288320Y-87039727D01*
X161445363Y-87274759D01*
X161645241Y-87474637D01*
X161880273Y-87631680D01*
X162141426Y-87739853D01*
X162418665Y-87795000D01*
X162701335Y-87795000D01*
X162978574Y-87739853D01*
X163239727Y-87631680D01*
X163474759Y-87474637D01*
X163674637Y-87274759D01*
X163831680Y-87039727D01*
X163939853Y-86778574D01*
X163995000Y-86501335D01*
X163995000Y-86218665D01*
X163939853Y-85941426D01*
X163831680Y-85680273D01*
X163784429Y-85609557D01*
X163821003Y-85488986D01*
X163832000Y-85377333D01*
X163832000Y-85377324D01*
X163835676Y-85340001D01*
X163832000Y-85302678D01*
X163832000Y-85038043D01*
X163986759Y-84934637D01*
X164186637Y-84734759D01*
X164342000Y-84502241D01*
X164497363Y-84734759D01*
X164697241Y-84934637D01*
X164852000Y-85038044D01*
X164852000Y-85310677D01*
X164848324Y-85348000D01*
X164852000Y-85385322D01*
X164852000Y-85385332D01*
X164862997Y-85496985D01*
X164895404Y-85603820D01*
X164844320Y-85680273D01*
X164736147Y-85941426D01*
X164681000Y-86218665D01*
X164681000Y-86501335D01*
X164736147Y-86778574D01*
X164844320Y-87039727D01*
X165001363Y-87274759D01*
X165201241Y-87474637D01*
X165436273Y-87631680D01*
X165697426Y-87739853D01*
X165974665Y-87795000D01*
X166257335Y-87795000D01*
X166534574Y-87739853D01*
X166795727Y-87631680D01*
X167030759Y-87474637D01*
X167230637Y-87274759D01*
X167387680Y-87039727D01*
X167495853Y-86778574D01*
X167551000Y-86501335D01*
X167551000Y-86218665D01*
X167495853Y-85941426D01*
X167387680Y-85680273D01*
X167230637Y-85445241D01*
X167030759Y-85245363D01*
X166795727Y-85088320D01*
X166534574Y-84980147D01*
X166476066Y-84968509D01*
X166526759Y-84934637D01*
X166726637Y-84734759D01*
X166883680Y-84499727D01*
X166991853Y-84238574D01*
X167047000Y-83961335D01*
X167047000Y-83678665D01*
X166991853Y-83401426D01*
X166883680Y-83140273D01*
X166726637Y-82905241D01*
X166526759Y-82705363D01*
X166291727Y-82548320D01*
X166030574Y-82440147D01*
X165753335Y-82385000D01*
X165470665Y-82385000D01*
X165193426Y-82440147D01*
X164932273Y-82548320D01*
X164697241Y-82705363D01*
X164497363Y-82905241D01*
X164342000Y-83137759D01*
X164186637Y-82905241D01*
X163986759Y-82705363D01*
X163751727Y-82548320D01*
X163490574Y-82440147D01*
X163213335Y-82385000D01*
X162930665Y-82385000D01*
X162653426Y-82440147D01*
X162392273Y-82548320D01*
X162157241Y-82705363D01*
X161957363Y-82905241D01*
X161802000Y-83137759D01*
X161646637Y-82905241D01*
X161446759Y-82705363D01*
X161211727Y-82548320D01*
X160950574Y-82440147D01*
X160673335Y-82385000D01*
X160390665Y-82385000D01*
X160113426Y-82440147D01*
X159852273Y-82548320D01*
X159617241Y-82705363D01*
X159417363Y-82905241D01*
X159262000Y-83137759D01*
X159106637Y-82905241D01*
X158906759Y-82705363D01*
X158671727Y-82548320D01*
X158410574Y-82440147D01*
X158133335Y-82385000D01*
X157850665Y-82385000D01*
X157573426Y-82440147D01*
X157312273Y-82548320D01*
X157077241Y-82705363D01*
X156877363Y-82905241D01*
X156722000Y-83137759D01*
X156566637Y-82905241D01*
X156366759Y-82705363D01*
X156131727Y-82548320D01*
X155870574Y-82440147D01*
X155593335Y-82385000D01*
X155310665Y-82385000D01*
X155033426Y-82440147D01*
X154772273Y-82548320D01*
X154537241Y-82705363D01*
X154337363Y-82905241D01*
X154182000Y-83137759D01*
X154026637Y-82905241D01*
X153826759Y-82705363D01*
X153591727Y-82548320D01*
X153330574Y-82440147D01*
X153053335Y-82385000D01*
X152770665Y-82385000D01*
X152493426Y-82440147D01*
X152232273Y-82548320D01*
X151997241Y-82705363D01*
X151797363Y-82905241D01*
X151640320Y-83140273D01*
X151635933Y-83150865D01*
X151524385Y-82964869D01*
X151335414Y-82756481D01*
X151109420Y-82588963D01*
X150855087Y-82468754D01*
X150721039Y-82428096D01*
X150499000Y-82550085D01*
X150245000Y-82550085D01*
X150022961Y-82428096D01*
X149888913Y-82468754D01*
X149634580Y-82588963D01*
X149408586Y-82756481D01*
X149219615Y-82964869D01*
X149108067Y-83150865D01*
X149103680Y-83140273D01*
X148946637Y-82905241D01*
X148746759Y-82705363D01*
X148511727Y-82548320D01*
X148250574Y-82440147D01*
X147973335Y-82385000D01*
X147690665Y-82385000D01*
X147413426Y-82440147D01*
X147152273Y-82548320D01*
X146917241Y-82705363D01*
X146717363Y-82905241D01*
X146562000Y-83137759D01*
X146406637Y-82905241D01*
X146206759Y-82705363D01*
X145971727Y-82548320D01*
X145710574Y-82440147D01*
X145433335Y-82385000D01*
X145150665Y-82385000D01*
X144873426Y-82440147D01*
X144612273Y-82548320D01*
X144377241Y-82705363D01*
X144177363Y-82905241D01*
X144022000Y-83137759D01*
X143866637Y-82905241D01*
X143666759Y-82705363D01*
X143431727Y-82548320D01*
X143170574Y-82440147D01*
X142893335Y-82385000D01*
X142610665Y-82385000D01*
X142333426Y-82440147D01*
X142072273Y-82548320D01*
X141837241Y-82705363D01*
X141637363Y-82905241D01*
X141480320Y-83140273D01*
X141372147Y-83401426D01*
X141317000Y-83678665D01*
X116967000Y-83678665D01*
X116967000Y-80899000D01*
X208153000Y-80899000D01*
X208153000Y-105253384D01*
G37*
X208153000Y-105253384D02*
X208136853Y-105184345D01*
X208014650Y-104902906D01*
X207839889Y-104650715D01*
X207619286Y-104437464D01*
X207361319Y-104271348D01*
X207075901Y-104158751D01*
X206774000Y-104104000D01*
X206175000Y-104104000D01*
X206175000Y-105537000D01*
X206195000Y-105537000D01*
X206195000Y-105791000D01*
X206175000Y-105791000D01*
X206175000Y-107224000D01*
X206774000Y-107224000D01*
X207075901Y-107169249D01*
X207361319Y-107056652D01*
X207619286Y-106890536D01*
X207839889Y-106677285D01*
X208014650Y-106425094D01*
X208136853Y-106143655D01*
X208153000Y-106074616D01*
X208153000Y-110254582D01*
X208095226Y-110064125D01*
X207950369Y-109793117D01*
X207755424Y-109555576D01*
X207517883Y-109360631D01*
X207246875Y-109215774D01*
X206952813Y-109126572D01*
X206723636Y-109104000D01*
X205372364Y-109104000D01*
X205143187Y-109126572D01*
X204849125Y-109215774D01*
X204578117Y-109360631D01*
X204340576Y-109555576D01*
X204145631Y-109793117D01*
X204086363Y-109904000D01*
X195509637Y-109904000D01*
X195450369Y-109793117D01*
X195255424Y-109555576D01*
X195017883Y-109360631D01*
X194746875Y-109215774D01*
X194452813Y-109126572D01*
X194223636Y-109104000D01*
X192872364Y-109104000D01*
X192643187Y-109126572D01*
X192349125Y-109215774D01*
X192078117Y-109360631D01*
X191840576Y-109555576D01*
X191645631Y-109793117D01*
X191500774Y-110064125D01*
X191411572Y-110358187D01*
X191381452Y-110664000D01*
X191411572Y-110969813D01*
X191500774Y-111263875D01*
X191645631Y-111534883D01*
X191840576Y-111772424D01*
X192078117Y-111967369D01*
X192349125Y-112112226D01*
X192643187Y-112201428D01*
X192788000Y-112215691D01*
X192788000Y-112461197D01*
X190693199Y-114556000D01*
X178345322Y-114556000D01*
X178308000Y-114552324D01*
X178270677Y-114556000D01*
X178270667Y-114556000D01*
X178159014Y-114566997D01*
X178015753Y-114610454D01*
X177883723Y-114681026D01*
X177800083Y-114749668D01*
X177767999Y-114775999D01*
X177744201Y-114804997D01*
X176780998Y-115768201D01*
X176752000Y-115791999D01*
X176728202Y-115820997D01*
X176728201Y-115820998D01*
X176657026Y-115907724D01*
X176586454Y-116039754D01*
X176542998Y-116183015D01*
X176528324Y-116332000D01*
X176532001Y-116369332D01*
X176532000Y-117653956D01*
X176377241Y-117757363D01*
X176177363Y-117957241D01*
X176020320Y-118192273D01*
X175912147Y-118453426D01*
X175857000Y-118730665D01*
X175857000Y-119013335D01*
X175912147Y-119290574D01*
X176020320Y-119551727D01*
X176177363Y-119786759D01*
X176377241Y-119986637D01*
X176612273Y-120143680D01*
X176873426Y-120251853D01*
X177150665Y-120307000D01*
X177433335Y-120307000D01*
X177686387Y-120256664D01*
X182289188Y-120256664D01*
X182315147Y-120367655D01*
X182437350Y-120649094D01*
X182612111Y-120901285D01*
X182832714Y-121114536D01*
X183090681Y-121280652D01*
X183376099Y-121393249D01*
X183678000Y-121448000D01*
X184277000Y-121448000D01*
X184277000Y-120015000D01*
X184531000Y-120015000D01*
X184531000Y-121448000D01*
X185130000Y-121448000D01*
X185431901Y-121393249D01*
X185717319Y-121280652D01*
X185975286Y-121114536D01*
X186195889Y-120901285D01*
X186370650Y-120649094D01*
X186492853Y-120367655D01*
X186518812Y-120256664D01*
X194789188Y-120256664D01*
X194815147Y-120367655D01*
X194937350Y-120649094D01*
X195112111Y-120901285D01*
X195332714Y-121114536D01*
X195590681Y-121280652D01*
X195876099Y-121393249D01*
X196178000Y-121448000D01*
X196777000Y-121448000D01*
X196777000Y-120015000D01*
X197031000Y-120015000D01*
X197031000Y-121448000D01*
X197630000Y-121448000D01*
X197931901Y-121393249D01*
X198217319Y-121280652D01*
X198475286Y-121114536D01*
X198695889Y-120901285D01*
X198870650Y-120649094D01*
X198992853Y-120367655D01*
X199018812Y-120256664D01*
X198898483Y-120015000D01*
X197031000Y-120015000D01*
X196777000Y-120015000D01*
X194909517Y-120015000D01*
X194789188Y-120256664D01*
X186518812Y-120256664D01*
X186398483Y-120015000D01*
X184531000Y-120015000D01*
X184277000Y-120015000D01*
X182409517Y-120015000D01*
X182289188Y-120256664D01*
X177686387Y-120256664D01*
X177710574Y-120251853D01*
X177971727Y-120143680D01*
X178206759Y-119986637D01*
X178406637Y-119786759D01*
X178563680Y-119551727D01*
X178577096Y-119519336D01*
X182289188Y-119519336D01*
X182409517Y-119761000D01*
X184277000Y-119761000D01*
X184277000Y-118328000D01*
X184531000Y-118328000D01*
X184531000Y-119761000D01*
X186398483Y-119761000D01*
X186518812Y-119519336D01*
X194789188Y-119519336D01*
X194909517Y-119761000D01*
X196777000Y-119761000D01*
X196777000Y-118328000D01*
X197031000Y-118328000D01*
X197031000Y-119761000D01*
X198898483Y-119761000D01*
X199018812Y-119519336D01*
X198992853Y-119408345D01*
X198870650Y-119126906D01*
X198695889Y-118874715D01*
X198475286Y-118661464D01*
X198217319Y-118495348D01*
X197931901Y-118382751D01*
X197630000Y-118328000D01*
X197031000Y-118328000D01*
X196777000Y-118328000D01*
X196178000Y-118328000D01*
X195876099Y-118382751D01*
X195590681Y-118495348D01*
X195332714Y-118661464D01*
X195112111Y-118874715D01*
X194937350Y-119126906D01*
X194815147Y-119408345D01*
X194789188Y-119519336D01*
X186518812Y-119519336D01*
X186492853Y-119408345D01*
X186370650Y-119126906D01*
X186195889Y-118874715D01*
X185975286Y-118661464D01*
X185717319Y-118495348D01*
X185431901Y-118382751D01*
X185130000Y-118328000D01*
X184531000Y-118328000D01*
X184277000Y-118328000D01*
X183678000Y-118328000D01*
X183376099Y-118382751D01*
X183090681Y-118495348D01*
X182832714Y-118661464D01*
X182612111Y-118874715D01*
X182437350Y-119126906D01*
X182315147Y-119408345D01*
X182289188Y-119519336D01*
X178577096Y-119519336D01*
X178671853Y-119290574D01*
X178727000Y-119013335D01*
X178727000Y-118730665D01*
X178671853Y-118453426D01*
X178563680Y-118192273D01*
X178406637Y-117957241D01*
X178206759Y-117757363D01*
X178052000Y-117653957D01*
X178052000Y-116646801D01*
X178622802Y-116076000D01*
X190970678Y-116076000D01*
X191008000Y-116079676D01*
X191045322Y-116076000D01*
X191045333Y-116076000D01*
X191156986Y-116065003D01*
X191300247Y-116021546D01*
X191432276Y-115950974D01*
X191548001Y-115856001D01*
X191571804Y-115826997D01*
X194059009Y-113339794D01*
X194088001Y-113316001D01*
X194111795Y-113287008D01*
X194111799Y-113287004D01*
X194182973Y-113200277D01*
X194182974Y-113200276D01*
X194253546Y-113068247D01*
X194297003Y-112924986D01*
X194308000Y-112813333D01*
X194308000Y-112813324D01*
X194311676Y-112776001D01*
X194308000Y-112738678D01*
X194308000Y-112215691D01*
X194452813Y-112201428D01*
X194746875Y-112112226D01*
X195017883Y-111967369D01*
X195255424Y-111772424D01*
X195450369Y-111534883D01*
X195509637Y-111424000D01*
X204086363Y-111424000D01*
X204145631Y-111534883D01*
X204340576Y-111772424D01*
X204578117Y-111967369D01*
X204849125Y-112112226D01*
X205143187Y-112201428D01*
X205372364Y-112224000D01*
X206723636Y-112224000D01*
X206952813Y-112201428D01*
X207246875Y-112112226D01*
X207517883Y-111967369D01*
X207755424Y-111772424D01*
X207950369Y-111534883D01*
X208095226Y-111263875D01*
X208153000Y-111073418D01*
X208153000Y-135509000D01*
X116967000Y-135509000D01*
X116967000Y-128408000D01*
X142733928Y-128408000D01*
X142746188Y-128532482D01*
X142782498Y-128652180D01*
X142841463Y-128762494D01*
X142920815Y-128859185D01*
X143017506Y-128938537D01*
X143127820Y-128997502D01*
X143247518Y-129033812D01*
X143372000Y-129046072D01*
X143986250Y-129043000D01*
X144145000Y-128884250D01*
X144145000Y-127635000D01*
X142895750Y-127635000D01*
X142737000Y-127793750D01*
X142733928Y-128408000D01*
X116967000Y-128408000D01*
X116967000Y-126608000D01*
X142733928Y-126608000D01*
X142737000Y-127222250D01*
X142895750Y-127381000D01*
X144145000Y-127381000D01*
X144145000Y-126131750D01*
X143986250Y-125973000D01*
X143372000Y-125969928D01*
X143247518Y-125982188D01*
X143127820Y-126018498D01*
X143017506Y-126077463D01*
X142920815Y-126156815D01*
X142841463Y-126253506D01*
X142782498Y-126363820D01*
X142746188Y-126483518D01*
X142733928Y-126608000D01*
X116967000Y-126608000D01*
X116967000Y-119229899D01*
X141732000Y-119229899D01*
X141732000Y-119530101D01*
X141790566Y-119824534D01*
X141905449Y-120101885D01*
X142072232Y-120351493D01*
X142284507Y-120563768D01*
X142534115Y-120730551D01*
X142811466Y-120845434D01*
X143105899Y-120904000D01*
X143406101Y-120904000D01*
X143700534Y-120845434D01*
X143977885Y-120730551D01*
X144227493Y-120563768D01*
X144439768Y-120351493D01*
X144526000Y-120222438D01*
X144612232Y-120351493D01*
X144824507Y-120563768D01*
X145074115Y-120730551D01*
X145351466Y-120845434D01*
X145645899Y-120904000D01*
X145946101Y-120904000D01*
X146195576Y-120854377D01*
X151814198Y-126473000D01*
X151790061Y-126473000D01*
X151590102Y-126512774D01*
X151401744Y-126590795D01*
X151232226Y-126704063D01*
X151188289Y-126748000D01*
X148150313Y-126748000D01*
X148004312Y-126529495D01*
X147790505Y-126315688D01*
X147539095Y-126147701D01*
X147259743Y-126031989D01*
X146963184Y-125973000D01*
X146660816Y-125973000D01*
X146364257Y-126031989D01*
X146084905Y-126147701D01*
X145833495Y-126315688D01*
X145767056Y-126382127D01*
X145761502Y-126363820D01*
X145702537Y-126253506D01*
X145623185Y-126156815D01*
X145526494Y-126077463D01*
X145416180Y-126018498D01*
X145296482Y-125982188D01*
X145172000Y-125969928D01*
X144557750Y-125973000D01*
X144399000Y-126131750D01*
X144399000Y-127381000D01*
X144419000Y-127381000D01*
X144419000Y-127635000D01*
X144399000Y-127635000D01*
X144399000Y-128884250D01*
X144557750Y-129043000D01*
X145172000Y-129046072D01*
X145296482Y-129033812D01*
X145416180Y-128997502D01*
X145526494Y-128938537D01*
X145623185Y-128859185D01*
X145702537Y-128762494D01*
X145761502Y-128652180D01*
X145767056Y-128633873D01*
X145833495Y-128700312D01*
X146084905Y-128868299D01*
X146364257Y-128984011D01*
X146660816Y-129043000D01*
X146963184Y-129043000D01*
X147259743Y-128984011D01*
X147539095Y-128868299D01*
X147790505Y-128700312D01*
X148004312Y-128486505D01*
X148150313Y-128268000D01*
X151188289Y-128268000D01*
X151232226Y-128311937D01*
X151401744Y-128425205D01*
X151590102Y-128503226D01*
X151790061Y-128543000D01*
X151993939Y-128543000D01*
X152193898Y-128503226D01*
X152382256Y-128425205D01*
X152551774Y-128311937D01*
X152695937Y-128167774D01*
X152809205Y-127998256D01*
X152887226Y-127809898D01*
X152927000Y-127609939D01*
X152927000Y-127406061D01*
X152896869Y-127254580D01*
X152908000Y-127255676D01*
X152945323Y-127252000D01*
X161373046Y-127252000D01*
X161372273Y-127252320D01*
X161137241Y-127409363D01*
X160937363Y-127609241D01*
X160780320Y-127844273D01*
X160672147Y-128105426D01*
X160617000Y-128382665D01*
X160617000Y-128665335D01*
X160672147Y-128942574D01*
X160780320Y-129203727D01*
X160836629Y-129288000D01*
X159707711Y-129288000D01*
X159663774Y-129244063D01*
X159494256Y-129130795D01*
X159305898Y-129052774D01*
X159105939Y-129013000D01*
X158902061Y-129013000D01*
X158702102Y-129052774D01*
X158513744Y-129130795D01*
X158344226Y-129244063D01*
X158200063Y-129388226D01*
X158086795Y-129557744D01*
X158008774Y-129746102D01*
X157969000Y-129946061D01*
X157969000Y-130149939D01*
X158008774Y-130349898D01*
X158086795Y-130538256D01*
X158200063Y-130707774D01*
X158344226Y-130851937D01*
X158513744Y-130965205D01*
X158572897Y-130989707D01*
X158397363Y-131165241D01*
X158242000Y-131397759D01*
X158086637Y-131165241D01*
X157886759Y-130965363D01*
X157651727Y-130808320D01*
X157390574Y-130700147D01*
X157113335Y-130645000D01*
X156830665Y-130645000D01*
X156553426Y-130700147D01*
X156292273Y-130808320D01*
X156057241Y-130965363D01*
X155857363Y-131165241D01*
X155702000Y-131397759D01*
X155546637Y-131165241D01*
X155346759Y-130965363D01*
X155111727Y-130808320D01*
X154850574Y-130700147D01*
X154573335Y-130645000D01*
X154290665Y-130645000D01*
X154013426Y-130700147D01*
X153752273Y-130808320D01*
X153517241Y-130965363D01*
X153318643Y-131163961D01*
X153317812Y-131155518D01*
X153281502Y-131035820D01*
X153222537Y-130925506D01*
X153143185Y-130828815D01*
X153046494Y-130749463D01*
X152936180Y-130690498D01*
X152816482Y-130654188D01*
X152692000Y-130641928D01*
X151092000Y-130641928D01*
X150967518Y-130654188D01*
X150847820Y-130690498D01*
X150737506Y-130749463D01*
X150640815Y-130828815D01*
X150561463Y-130925506D01*
X150502498Y-131035820D01*
X150466188Y-131155518D01*
X150453928Y-131280000D01*
X150453928Y-132880000D01*
X150466188Y-133004482D01*
X150502498Y-133124180D01*
X150561463Y-133234494D01*
X150640815Y-133331185D01*
X150737506Y-133410537D01*
X150847820Y-133469502D01*
X150967518Y-133505812D01*
X151092000Y-133518072D01*
X152692000Y-133518072D01*
X152816482Y-133505812D01*
X152936180Y-133469502D01*
X153046494Y-133410537D01*
X153143185Y-133331185D01*
X153222537Y-133234494D01*
X153281502Y-133124180D01*
X153317812Y-133004482D01*
X153318643Y-132996039D01*
X153517241Y-133194637D01*
X153752273Y-133351680D01*
X154013426Y-133459853D01*
X154290665Y-133515000D01*
X154573335Y-133515000D01*
X154850574Y-133459853D01*
X155111727Y-133351680D01*
X155346759Y-133194637D01*
X155546637Y-132994759D01*
X155702000Y-132762241D01*
X155857363Y-132994759D01*
X156057241Y-133194637D01*
X156292273Y-133351680D01*
X156553426Y-133459853D01*
X156830665Y-133515000D01*
X157113335Y-133515000D01*
X157390574Y-133459853D01*
X157651727Y-133351680D01*
X157886759Y-133194637D01*
X158086637Y-132994759D01*
X158242000Y-132762241D01*
X158397363Y-132994759D01*
X158597241Y-133194637D01*
X158832273Y-133351680D01*
X159093426Y-133459853D01*
X159370665Y-133515000D01*
X159653335Y-133515000D01*
X159930574Y-133459853D01*
X160191727Y-133351680D01*
X160426759Y-133194637D01*
X160626637Y-132994759D01*
X160782000Y-132762241D01*
X160937363Y-132994759D01*
X161137241Y-133194637D01*
X161372273Y-133351680D01*
X161633426Y-133459853D01*
X161910665Y-133515000D01*
X162193335Y-133515000D01*
X162470574Y-133459853D01*
X162731727Y-133351680D01*
X162966759Y-133194637D01*
X163166637Y-132994759D01*
X163323680Y-132759727D01*
X163328067Y-132749135D01*
X163439615Y-132935131D01*
X163628586Y-133143519D01*
X163854580Y-133311037D01*
X164108913Y-133431246D01*
X164242961Y-133471904D01*
X164465000Y-133349915D01*
X164465000Y-132207000D01*
X164719000Y-132207000D01*
X164719000Y-133349915D01*
X164941039Y-133471904D01*
X165075087Y-133431246D01*
X165329420Y-133311037D01*
X165555414Y-133143519D01*
X165744385Y-132935131D01*
X165862000Y-132739018D01*
X165979615Y-132935131D01*
X166168586Y-133143519D01*
X166394580Y-133311037D01*
X166648913Y-133431246D01*
X166782961Y-133471904D01*
X167005000Y-133349915D01*
X167005000Y-132207000D01*
X164719000Y-132207000D01*
X164465000Y-132207000D01*
X164445000Y-132207000D01*
X164445000Y-131953000D01*
X164465000Y-131953000D01*
X164465000Y-131933000D01*
X164719000Y-131933000D01*
X164719000Y-131953000D01*
X167005000Y-131953000D01*
X167005000Y-130810085D01*
X166782961Y-130688096D01*
X166648913Y-130728754D01*
X166394580Y-130848963D01*
X166168586Y-131016481D01*
X165979615Y-131224869D01*
X165862000Y-131420982D01*
X165744385Y-131224869D01*
X165555414Y-131016481D01*
X165329420Y-130848963D01*
X165278714Y-130824997D01*
X165395937Y-130707774D01*
X165509205Y-130538256D01*
X165587226Y-130349898D01*
X165627000Y-130149939D01*
X165627000Y-129946061D01*
X165587226Y-129746102D01*
X165509205Y-129557744D01*
X165395937Y-129388226D01*
X165251774Y-129244063D01*
X165082256Y-129130795D01*
X164893898Y-129052774D01*
X164693939Y-129013000D01*
X164490061Y-129013000D01*
X164290102Y-129052774D01*
X164101744Y-129130795D01*
X163932226Y-129244063D01*
X163888289Y-129288000D01*
X163267371Y-129288000D01*
X163323680Y-129203727D01*
X163431853Y-128942574D01*
X163487000Y-128665335D01*
X163487000Y-128382665D01*
X163431853Y-128105426D01*
X163323680Y-127844273D01*
X163166637Y-127609241D01*
X162966759Y-127409363D01*
X162731727Y-127252320D01*
X162730954Y-127252000D01*
X165293199Y-127252000D01*
X168600205Y-130559008D01*
X168623999Y-130588001D01*
X168652992Y-130611795D01*
X168652996Y-130611799D01*
X168704648Y-130654188D01*
X168739724Y-130682974D01*
X168871753Y-130753546D01*
X169015014Y-130797003D01*
X169018715Y-130797367D01*
X168992273Y-130808320D01*
X168757241Y-130965363D01*
X168557363Y-131165241D01*
X168400320Y-131400273D01*
X168395933Y-131410865D01*
X168284385Y-131224869D01*
X168095414Y-131016481D01*
X167869420Y-130848963D01*
X167615087Y-130728754D01*
X167481039Y-130688096D01*
X167259000Y-130810085D01*
X167259000Y-131953000D01*
X167279000Y-131953000D01*
X167279000Y-132207000D01*
X167259000Y-132207000D01*
X167259000Y-133349915D01*
X167481039Y-133471904D01*
X167615087Y-133431246D01*
X167869420Y-133311037D01*
X168095414Y-133143519D01*
X168284385Y-132935131D01*
X168395933Y-132749135D01*
X168400320Y-132759727D01*
X168557363Y-132994759D01*
X168757241Y-133194637D01*
X168992273Y-133351680D01*
X169253426Y-133459853D01*
X169530665Y-133515000D01*
X169813335Y-133515000D01*
X170090574Y-133459853D01*
X170351727Y-133351680D01*
X170586759Y-133194637D01*
X170786637Y-132994759D01*
X170943680Y-132759727D01*
X171051853Y-132498574D01*
X171107000Y-132221335D01*
X171107000Y-131938665D01*
X171051853Y-131661426D01*
X170943680Y-131400273D01*
X170786637Y-131165241D01*
X170586759Y-130965363D01*
X170351727Y-130808320D01*
X170350954Y-130808000D01*
X174073046Y-130808000D01*
X174072273Y-130808320D01*
X173837241Y-130965363D01*
X173637363Y-131165241D01*
X173480320Y-131400273D01*
X173372147Y-131661426D01*
X173317000Y-131938665D01*
X173317000Y-132221335D01*
X173372147Y-132498574D01*
X173480320Y-132759727D01*
X173637363Y-132994759D01*
X173837241Y-133194637D01*
X174072273Y-133351680D01*
X174333426Y-133459853D01*
X174610665Y-133515000D01*
X174893335Y-133515000D01*
X175170574Y-133459853D01*
X175431727Y-133351680D01*
X175666759Y-133194637D01*
X175866637Y-132994759D01*
X176022000Y-132762241D01*
X176177363Y-132994759D01*
X176377241Y-133194637D01*
X176612273Y-133351680D01*
X176873426Y-133459853D01*
X177150665Y-133515000D01*
X177433335Y-133515000D01*
X177710574Y-133459853D01*
X177971727Y-133351680D01*
X178206759Y-133194637D01*
X178406637Y-132994759D01*
X178562000Y-132762241D01*
X178717363Y-132994759D01*
X178917241Y-133194637D01*
X179152273Y-133351680D01*
X179413426Y-133459853D01*
X179690665Y-133515000D01*
X179973335Y-133515000D01*
X180250574Y-133459853D01*
X180511727Y-133351680D01*
X180746759Y-133194637D01*
X180946637Y-132994759D01*
X181102000Y-132762241D01*
X181257363Y-132994759D01*
X181457241Y-133194637D01*
X181692273Y-133351680D01*
X181953426Y-133459853D01*
X182230665Y-133515000D01*
X182513335Y-133515000D01*
X182790574Y-133459853D01*
X183051727Y-133351680D01*
X183286759Y-133194637D01*
X183486637Y-132994759D01*
X183642000Y-132762241D01*
X183797363Y-132994759D01*
X183997241Y-133194637D01*
X184232273Y-133351680D01*
X184493426Y-133459853D01*
X184770665Y-133515000D01*
X185053335Y-133515000D01*
X185330574Y-133459853D01*
X185591727Y-133351680D01*
X185826759Y-133194637D01*
X186026637Y-132994759D01*
X186182000Y-132762241D01*
X186337363Y-132994759D01*
X186537241Y-133194637D01*
X186772273Y-133351680D01*
X187033426Y-133459853D01*
X187310665Y-133515000D01*
X187593335Y-133515000D01*
X187870574Y-133459853D01*
X188131727Y-133351680D01*
X188366759Y-133194637D01*
X188566637Y-132994759D01*
X188723680Y-132759727D01*
X188831853Y-132498574D01*
X188887000Y-132221335D01*
X188887000Y-131938665D01*
X188831853Y-131661426D01*
X188723680Y-131400273D01*
X188566637Y-131165241D01*
X188366759Y-130965363D01*
X188131727Y-130808320D01*
X187870574Y-130700147D01*
X187593335Y-130645000D01*
X187310665Y-130645000D01*
X187033426Y-130700147D01*
X186772273Y-130808320D01*
X186537241Y-130965363D01*
X186337363Y-131165241D01*
X186182000Y-131397759D01*
X186026637Y-131165241D01*
X185826759Y-130965363D01*
X185591727Y-130808320D01*
X185330574Y-130700147D01*
X185053335Y-130645000D01*
X184770665Y-130645000D01*
X184493426Y-130700147D01*
X184232273Y-130808320D01*
X183997241Y-130965363D01*
X183797363Y-131165241D01*
X183642000Y-131397759D01*
X183486637Y-131165241D01*
X183286759Y-130965363D01*
X183051727Y-130808320D01*
X182790574Y-130700147D01*
X182513335Y-130645000D01*
X182230665Y-130645000D01*
X181953426Y-130700147D01*
X181692273Y-130808320D01*
X181457241Y-130965363D01*
X181257363Y-131165241D01*
X181102000Y-131397759D01*
X180946637Y-131165241D01*
X180746759Y-130965363D01*
X180511727Y-130808320D01*
X180250574Y-130700147D01*
X179973335Y-130645000D01*
X179690665Y-130645000D01*
X179413426Y-130700147D01*
X179152273Y-130808320D01*
X178917241Y-130965363D01*
X178717363Y-131165241D01*
X178562000Y-131397759D01*
X178406637Y-131165241D01*
X178206759Y-130965363D01*
X177971727Y-130808320D01*
X177710574Y-130700147D01*
X177433335Y-130645000D01*
X177150665Y-130645000D01*
X176968114Y-130681312D01*
X175823804Y-129537003D01*
X175800001Y-129507999D01*
X175684276Y-129413026D01*
X175552247Y-129342454D01*
X175408986Y-129298997D01*
X175297333Y-129288000D01*
X175297322Y-129288000D01*
X175260000Y-129284324D01*
X175222678Y-129288000D01*
X169478803Y-129288000D01*
X166386600Y-126195799D01*
X166452273Y-126239680D01*
X166713426Y-126347853D01*
X166990665Y-126403000D01*
X167273335Y-126403000D01*
X167550574Y-126347853D01*
X167811727Y-126239680D01*
X168046759Y-126082637D01*
X168246637Y-125882759D01*
X168403680Y-125647727D01*
X168511853Y-125386574D01*
X168567000Y-125109335D01*
X168567000Y-124826665D01*
X168511853Y-124549426D01*
X168403680Y-124288273D01*
X168246637Y-124053241D01*
X168046759Y-123853363D01*
X167811727Y-123696320D01*
X167550574Y-123588147D01*
X167273335Y-123533000D01*
X166990665Y-123533000D01*
X166713426Y-123588147D01*
X166452273Y-123696320D01*
X166217241Y-123853363D01*
X166017363Y-124053241D01*
X165860320Y-124288273D01*
X165752147Y-124549426D01*
X165697000Y-124826665D01*
X165697000Y-125109335D01*
X165752147Y-125386574D01*
X165860320Y-125647727D01*
X165982331Y-125830329D01*
X165900247Y-125786454D01*
X165756986Y-125742997D01*
X165645333Y-125732000D01*
X165645322Y-125732000D01*
X165608000Y-125728324D01*
X165570678Y-125732000D01*
X154928356Y-125732000D01*
X154959000Y-125577939D01*
X154959000Y-125515801D01*
X160531003Y-119943799D01*
X160560001Y-119920001D01*
X160638349Y-119824534D01*
X160654974Y-119804277D01*
X160725546Y-119672247D01*
X160741090Y-119621003D01*
X160769003Y-119528986D01*
X160780000Y-119417333D01*
X160780000Y-119417323D01*
X160783676Y-119380000D01*
X160780000Y-119342677D01*
X160780000Y-119042954D01*
X160780320Y-119043727D01*
X160937363Y-119278759D01*
X161137241Y-119478637D01*
X161372273Y-119635680D01*
X161633426Y-119743853D01*
X161910665Y-119799000D01*
X162193335Y-119799000D01*
X162470574Y-119743853D01*
X162731727Y-119635680D01*
X162966759Y-119478637D01*
X163166637Y-119278759D01*
X163323680Y-119043727D01*
X163431853Y-118782574D01*
X163442178Y-118730665D01*
X165697000Y-118730665D01*
X165697000Y-119013335D01*
X165752147Y-119290574D01*
X165860320Y-119551727D01*
X166017363Y-119786759D01*
X166217241Y-119986637D01*
X166452273Y-120143680D01*
X166713426Y-120251853D01*
X166990665Y-120307000D01*
X167273335Y-120307000D01*
X167550574Y-120251853D01*
X167811727Y-120143680D01*
X168046759Y-119986637D01*
X168246637Y-119786759D01*
X168403680Y-119551727D01*
X168511853Y-119290574D01*
X168567000Y-119013335D01*
X168567000Y-118730665D01*
X168511853Y-118453426D01*
X168403680Y-118192273D01*
X168246637Y-117957241D01*
X168046759Y-117757363D01*
X167811727Y-117600320D01*
X167550574Y-117492147D01*
X167273335Y-117437000D01*
X166990665Y-117437000D01*
X166713426Y-117492147D01*
X166452273Y-117600320D01*
X166217241Y-117757363D01*
X166017363Y-117957241D01*
X165860320Y-118192273D01*
X165752147Y-118453426D01*
X165697000Y-118730665D01*
X163442178Y-118730665D01*
X163487000Y-118505335D01*
X163487000Y-118222665D01*
X163431853Y-117945426D01*
X163323680Y-117684273D01*
X163166637Y-117449241D01*
X162966759Y-117249363D01*
X162731727Y-117092320D01*
X162470574Y-116984147D01*
X162193335Y-116929000D01*
X161910665Y-116929000D01*
X161633426Y-116984147D01*
X161372273Y-117092320D01*
X161137241Y-117249363D01*
X160937363Y-117449241D01*
X160780320Y-117684273D01*
X160780000Y-117685046D01*
X160780000Y-109612000D01*
X162037928Y-109612000D01*
X162050188Y-109736482D01*
X162086498Y-109856180D01*
X162145463Y-109966494D01*
X162224815Y-110063185D01*
X162321506Y-110142537D01*
X162431820Y-110201502D01*
X162551518Y-110237812D01*
X162676000Y-110250072D01*
X163290250Y-110247000D01*
X163449000Y-110088250D01*
X163449000Y-108839000D01*
X162199750Y-108839000D01*
X162041000Y-108997750D01*
X162037928Y-109612000D01*
X160780000Y-109612000D01*
X160780000Y-107812000D01*
X162037928Y-107812000D01*
X162041000Y-108426250D01*
X162199750Y-108585000D01*
X163449000Y-108585000D01*
X163449000Y-107335750D01*
X163703000Y-107335750D01*
X163703000Y-108585000D01*
X163723000Y-108585000D01*
X163723000Y-108839000D01*
X163703000Y-108839000D01*
X163703000Y-110088250D01*
X163861750Y-110247000D01*
X164476000Y-110250072D01*
X164600482Y-110237812D01*
X164720180Y-110201502D01*
X164830494Y-110142537D01*
X164927185Y-110063185D01*
X165006537Y-109966494D01*
X165065502Y-109856180D01*
X165071056Y-109837873D01*
X165137495Y-109904312D01*
X165388905Y-110072299D01*
X165668257Y-110188011D01*
X165964816Y-110247000D01*
X166267184Y-110247000D01*
X166563743Y-110188011D01*
X166843095Y-110072299D01*
X167094505Y-109904312D01*
X167308312Y-109690505D01*
X167476299Y-109439095D01*
X167592011Y-109159743D01*
X167651000Y-108863184D01*
X167651000Y-108560816D01*
X167592011Y-108264257D01*
X167476299Y-107984905D01*
X167308312Y-107733495D01*
X167094505Y-107519688D01*
X166876000Y-107373687D01*
X166876000Y-97738043D01*
X167030759Y-97634637D01*
X167230637Y-97434759D01*
X167387680Y-97199727D01*
X167495853Y-96938574D01*
X167551000Y-96661335D01*
X167551000Y-96378665D01*
X167495853Y-96101426D01*
X167387680Y-95840273D01*
X167230637Y-95605241D01*
X167030759Y-95405363D01*
X166795727Y-95248320D01*
X166534574Y-95140147D01*
X166257335Y-95085000D01*
X165974665Y-95085000D01*
X165697426Y-95140147D01*
X165436273Y-95248320D01*
X165201241Y-95405363D01*
X165001363Y-95605241D01*
X164844320Y-95840273D01*
X164736147Y-96101426D01*
X164681000Y-96378665D01*
X164681000Y-96661335D01*
X164736147Y-96938574D01*
X164844320Y-97199727D01*
X165001363Y-97434759D01*
X165201241Y-97634637D01*
X165356001Y-97738044D01*
X165356000Y-100038667D01*
X165356000Y-100038668D01*
X165356001Y-107373687D01*
X165137495Y-107519688D01*
X165071056Y-107586127D01*
X165065502Y-107567820D01*
X165006537Y-107457506D01*
X164927185Y-107360815D01*
X164830494Y-107281463D01*
X164720180Y-107222498D01*
X164600482Y-107186188D01*
X164476000Y-107173928D01*
X163861750Y-107177000D01*
X163703000Y-107335750D01*
X163449000Y-107335750D01*
X163290250Y-107177000D01*
X162676000Y-107173928D01*
X162551518Y-107186188D01*
X162431820Y-107222498D01*
X162321506Y-107281463D01*
X162224815Y-107360815D01*
X162145463Y-107457506D01*
X162086498Y-107567820D01*
X162050188Y-107687518D01*
X162037928Y-107812000D01*
X160780000Y-107812000D01*
X160780000Y-104454801D01*
X163071008Y-102163795D01*
X163100001Y-102140001D01*
X163123795Y-102111008D01*
X163123799Y-102111004D01*
X163194973Y-102024277D01*
X163227101Y-101964171D01*
X163265546Y-101892247D01*
X163309003Y-101748986D01*
X163320000Y-101637333D01*
X163320000Y-101637324D01*
X163323676Y-101600001D01*
X163320000Y-101562678D01*
X163320000Y-97738043D01*
X163474759Y-97634637D01*
X163674637Y-97434759D01*
X163831680Y-97199727D01*
X163939853Y-96938574D01*
X163995000Y-96661335D01*
X163995000Y-96378665D01*
X163939853Y-96101426D01*
X163831680Y-95840273D01*
X163674637Y-95605241D01*
X163474759Y-95405363D01*
X163239727Y-95248320D01*
X162978574Y-95140147D01*
X162701335Y-95085000D01*
X162418665Y-95085000D01*
X162141426Y-95140147D01*
X161880273Y-95248320D01*
X161645241Y-95405363D01*
X161445363Y-95605241D01*
X161288320Y-95840273D01*
X161180147Y-96101426D01*
X161125000Y-96378665D01*
X161125000Y-96661335D01*
X161180147Y-96938574D01*
X161288320Y-97199727D01*
X161445363Y-97434759D01*
X161645241Y-97634637D01*
X161800000Y-97738044D01*
X161800001Y-101285196D01*
X159509003Y-103576196D01*
X159479999Y-103599999D01*
X159424871Y-103667174D01*
X159385026Y-103715724D01*
X159345399Y-103789860D01*
X159314454Y-103847754D01*
X159270997Y-103991015D01*
X159260000Y-104102668D01*
X159260000Y-104102678D01*
X159256324Y-104140000D01*
X159260000Y-104177322D01*
X159260001Y-119065197D01*
X153884199Y-124441000D01*
X153822061Y-124441000D01*
X153622102Y-124480774D01*
X153433744Y-124558795D01*
X153264226Y-124672063D01*
X153120063Y-124816226D01*
X153006795Y-124985744D01*
X152928774Y-125174102D01*
X152889000Y-125374061D01*
X152889000Y-125398198D01*
X148400578Y-120909777D01*
X148402988Y-120909908D01*
X148700171Y-120867443D01*
X148983359Y-120767816D01*
X149130273Y-120689289D01*
X149212626Y-120436231D01*
X148336000Y-119559605D01*
X148321858Y-119573748D01*
X148142253Y-119394143D01*
X148156395Y-119380000D01*
X148515605Y-119380000D01*
X149392231Y-120256626D01*
X149645289Y-120174273D01*
X149775086Y-119903582D01*
X149849580Y-119612770D01*
X149865908Y-119313012D01*
X149823443Y-119015829D01*
X149723816Y-118732641D01*
X149645289Y-118585727D01*
X149392231Y-118503374D01*
X148515605Y-119380000D01*
X148156395Y-119380000D01*
X147279769Y-118503374D01*
X147085417Y-118566622D01*
X146979768Y-118408507D01*
X146895030Y-118323769D01*
X147459374Y-118323769D01*
X148336000Y-119200395D01*
X149212626Y-118323769D01*
X149130273Y-118070711D01*
X148859582Y-117940914D01*
X148568770Y-117866420D01*
X148269012Y-117850092D01*
X147971829Y-117892557D01*
X147688641Y-117992184D01*
X147541727Y-118070711D01*
X147459374Y-118323769D01*
X146895030Y-118323769D01*
X146767493Y-118196232D01*
X146517885Y-118029449D01*
X146240534Y-117914566D01*
X145946101Y-117856000D01*
X145645899Y-117856000D01*
X145351466Y-117914566D01*
X145074115Y-118029449D01*
X144824507Y-118196232D01*
X144612232Y-118408507D01*
X144526000Y-118537562D01*
X144439768Y-118408507D01*
X144227493Y-118196232D01*
X143977885Y-118029449D01*
X143700534Y-117914566D01*
X143406101Y-117856000D01*
X143105899Y-117856000D01*
X142811466Y-117914566D01*
X142534115Y-118029449D01*
X142284507Y-118196232D01*
X142072232Y-118408507D01*
X141905449Y-118658115D01*
X141790566Y-118935466D01*
X141732000Y-119229899D01*
X116967000Y-119229899D01*
X116967000Y-117124860D01*
X137118245Y-117124860D01*
X137231264Y-117403884D01*
X137545249Y-117559056D01*
X137883473Y-117649991D01*
X138232938Y-117673194D01*
X138580216Y-117627775D01*
X138911960Y-117515477D01*
X139120736Y-117403884D01*
X139233755Y-117124860D01*
X152358245Y-117124860D01*
X152471264Y-117403884D01*
X152785249Y-117559056D01*
X153123473Y-117649991D01*
X153472938Y-117673194D01*
X153820216Y-117627775D01*
X154151960Y-117515477D01*
X154360736Y-117403884D01*
X154473755Y-117124860D01*
X153416000Y-116067105D01*
X152358245Y-117124860D01*
X139233755Y-117124860D01*
X138176000Y-116067105D01*
X137118245Y-117124860D01*
X116967000Y-117124860D01*
X116967000Y-115944438D01*
X136390306Y-115944438D01*
X136435725Y-116291716D01*
X136548023Y-116623460D01*
X136659616Y-116832236D01*
X136938640Y-116945255D01*
X137996395Y-115887500D01*
X138355605Y-115887500D01*
X139413360Y-116945255D01*
X139692384Y-116832236D01*
X139847556Y-116518251D01*
X139938491Y-116180027D01*
X139954133Y-115944438D01*
X151630306Y-115944438D01*
X151675725Y-116291716D01*
X151788023Y-116623460D01*
X151899616Y-116832236D01*
X152178640Y-116945255D01*
X153236395Y-115887500D01*
X153595605Y-115887500D01*
X154653360Y-116945255D01*
X154932384Y-116832236D01*
X155087556Y-116518251D01*
X155178491Y-116180027D01*
X155201694Y-115830562D01*
X155156275Y-115483284D01*
X155043977Y-115151540D01*
X154932384Y-114942764D01*
X154653360Y-114829745D01*
X153595605Y-115887500D01*
X153236395Y-115887500D01*
X152178640Y-114829745D01*
X151899616Y-114942764D01*
X151744444Y-115256749D01*
X151653509Y-115594973D01*
X151630306Y-115944438D01*
X139954133Y-115944438D01*
X139961694Y-115830562D01*
X139916275Y-115483284D01*
X139803977Y-115151540D01*
X139692384Y-114942764D01*
X139413360Y-114829745D01*
X138355605Y-115887500D01*
X137996395Y-115887500D01*
X136938640Y-114829745D01*
X136659616Y-114942764D01*
X136504444Y-115256749D01*
X136413509Y-115594973D01*
X136390306Y-115944438D01*
X116967000Y-115944438D01*
X116967000Y-114650140D01*
X137118245Y-114650140D01*
X138176000Y-115707895D01*
X139233755Y-114650140D01*
X152358245Y-114650140D01*
X153416000Y-115707895D01*
X154473755Y-114650140D01*
X154360736Y-114371116D01*
X154046751Y-114215944D01*
X153708527Y-114125009D01*
X153359062Y-114101806D01*
X153011784Y-114147225D01*
X152680040Y-114259523D01*
X152471264Y-114371116D01*
X152358245Y-114650140D01*
X139233755Y-114650140D01*
X139120736Y-114371116D01*
X138806751Y-114215944D01*
X138468527Y-114125009D01*
X138119062Y-114101806D01*
X137771784Y-114147225D01*
X137440040Y-114259523D01*
X137231264Y-114371116D01*
X137118245Y-114650140D01*
X116967000Y-114650140D01*
X116967000Y-112816231D01*
X134759374Y-112816231D01*
X134841727Y-113069289D01*
X135112418Y-113199086D01*
X135403230Y-113273580D01*
X135702988Y-113289908D01*
X136000171Y-113247443D01*
X136283359Y-113147816D01*
X136430273Y-113069289D01*
X136512626Y-112816231D01*
X135636000Y-111939605D01*
X134759374Y-112816231D01*
X116967000Y-112816231D01*
X116967000Y-111826988D01*
X134106092Y-111826988D01*
X134148557Y-112124171D01*
X134248184Y-112407359D01*
X134326711Y-112554273D01*
X134579769Y-112636626D01*
X135456395Y-111760000D01*
X135815605Y-111760000D01*
X136692231Y-112636626D01*
X136945289Y-112554273D01*
X137075086Y-112283582D01*
X137149580Y-111992770D01*
X137165908Y-111693012D01*
X137123443Y-111395829D01*
X137023816Y-111112641D01*
X136945289Y-110965727D01*
X136692231Y-110883374D01*
X135815605Y-111760000D01*
X135456395Y-111760000D01*
X134579769Y-110883374D01*
X134326711Y-110965727D01*
X134196914Y-111236418D01*
X134122420Y-111527230D01*
X134106092Y-111826988D01*
X116967000Y-111826988D01*
X116967000Y-110120000D01*
X124445928Y-110120000D01*
X124458188Y-110244482D01*
X124494498Y-110364180D01*
X124553463Y-110474494D01*
X124632815Y-110571185D01*
X124729506Y-110650537D01*
X124839820Y-110709502D01*
X124959518Y-110745812D01*
X125084000Y-110758072D01*
X125698250Y-110755000D01*
X125857000Y-110596250D01*
X125857000Y-109347000D01*
X124607750Y-109347000D01*
X124449000Y-109505750D01*
X124445928Y-110120000D01*
X116967000Y-110120000D01*
X116967000Y-108320000D01*
X124445928Y-108320000D01*
X124449000Y-108934250D01*
X124607750Y-109093000D01*
X125857000Y-109093000D01*
X125857000Y-107843750D01*
X126111000Y-107843750D01*
X126111000Y-109093000D01*
X126131000Y-109093000D01*
X126131000Y-109347000D01*
X126111000Y-109347000D01*
X126111000Y-110596250D01*
X126269750Y-110755000D01*
X126884000Y-110758072D01*
X127008482Y-110745812D01*
X127128180Y-110709502D01*
X127238494Y-110650537D01*
X127335185Y-110571185D01*
X127414537Y-110474494D01*
X127473502Y-110364180D01*
X127479056Y-110345873D01*
X127545495Y-110412312D01*
X127796905Y-110580299D01*
X128076257Y-110696011D01*
X128372816Y-110755000D01*
X128675184Y-110755000D01*
X128971743Y-110696011D01*
X129251095Y-110580299D01*
X129502505Y-110412312D01*
X129716312Y-110198505D01*
X129884299Y-109947095D01*
X130000011Y-109667743D01*
X130059000Y-109371184D01*
X130059000Y-109068816D01*
X130000011Y-108772257D01*
X129884299Y-108492905D01*
X129716312Y-108241495D01*
X129502505Y-108027688D01*
X129284000Y-107881687D01*
X129284000Y-106529899D01*
X134112000Y-106529899D01*
X134112000Y-106830101D01*
X134170566Y-107124534D01*
X134285449Y-107401885D01*
X134452232Y-107651493D01*
X134664507Y-107863768D01*
X134793562Y-107950000D01*
X134664507Y-108036232D01*
X134452232Y-108248507D01*
X134285449Y-108498115D01*
X134170566Y-108775466D01*
X134112000Y-109069899D01*
X134112000Y-109370101D01*
X134170566Y-109664534D01*
X134285449Y-109941885D01*
X134452232Y-110191493D01*
X134664507Y-110403768D01*
X134822622Y-110509417D01*
X134759374Y-110703769D01*
X135636000Y-111580395D01*
X136512626Y-110703769D01*
X136449378Y-110509417D01*
X136607493Y-110403768D01*
X136819768Y-110191493D01*
X136986551Y-109941885D01*
X137101434Y-109664534D01*
X137160000Y-109370101D01*
X137160000Y-109069899D01*
X137101434Y-108775466D01*
X136986551Y-108498115D01*
X136819768Y-108248507D01*
X136607493Y-108036232D01*
X136478438Y-107950000D01*
X136607493Y-107863768D01*
X136819768Y-107651493D01*
X136986551Y-107401885D01*
X137101434Y-107124534D01*
X137160000Y-106830101D01*
X137160000Y-106529899D01*
X137101434Y-106235466D01*
X136986551Y-105958115D01*
X136819768Y-105708507D01*
X136607493Y-105496232D01*
X136357885Y-105329449D01*
X136080534Y-105214566D01*
X135786101Y-105156000D01*
X135485899Y-105156000D01*
X135191466Y-105214566D01*
X134914115Y-105329449D01*
X134664507Y-105496232D01*
X134452232Y-105708507D01*
X134285449Y-105958115D01*
X134170566Y-106235466D01*
X134112000Y-106529899D01*
X129284000Y-106529899D01*
X129284000Y-105978801D01*
X131472941Y-103789860D01*
X137118245Y-103789860D01*
X137231264Y-104068884D01*
X137545249Y-104224056D01*
X137883473Y-104314991D01*
X138232938Y-104338194D01*
X138580216Y-104292775D01*
X138911960Y-104180477D01*
X139120736Y-104068884D01*
X139233755Y-103789860D01*
X152358245Y-103789860D01*
X152471264Y-104068884D01*
X152785249Y-104224056D01*
X153123473Y-104314991D01*
X153472938Y-104338194D01*
X153820216Y-104292775D01*
X154151960Y-104180477D01*
X154360736Y-104068884D01*
X154473755Y-103789860D01*
X153416000Y-102732105D01*
X152358245Y-103789860D01*
X139233755Y-103789860D01*
X138176000Y-102732105D01*
X137118245Y-103789860D01*
X131472941Y-103789860D01*
X132653363Y-102609438D01*
X136390306Y-102609438D01*
X136435725Y-102956716D01*
X136548023Y-103288460D01*
X136659616Y-103497236D01*
X136938640Y-103610255D01*
X137996395Y-102552500D01*
X138355605Y-102552500D01*
X139413360Y-103610255D01*
X139692384Y-103497236D01*
X139847556Y-103183251D01*
X139938491Y-102845027D01*
X139951026Y-102656231D01*
X141744374Y-102656231D01*
X141826727Y-102909289D01*
X142097418Y-103039086D01*
X142388230Y-103113580D01*
X142687988Y-103129908D01*
X142985171Y-103087443D01*
X143268359Y-102987816D01*
X143415273Y-102909289D01*
X143497626Y-102656231D01*
X142621000Y-101779605D01*
X141744374Y-102656231D01*
X139951026Y-102656231D01*
X139961694Y-102495562D01*
X139916275Y-102148284D01*
X139803977Y-101816540D01*
X139724040Y-101666988D01*
X141091092Y-101666988D01*
X141133557Y-101964171D01*
X141233184Y-102247359D01*
X141311711Y-102394273D01*
X141564769Y-102476626D01*
X142441395Y-101600000D01*
X142800605Y-101600000D01*
X143677231Y-102476626D01*
X143930289Y-102394273D01*
X144060086Y-102123582D01*
X144134580Y-101832770D01*
X144150908Y-101533012D01*
X144108443Y-101235829D01*
X144008816Y-100952641D01*
X143930289Y-100805727D01*
X143677231Y-100723374D01*
X142800605Y-101600000D01*
X142441395Y-101600000D01*
X141564769Y-100723374D01*
X141311711Y-100805727D01*
X141181914Y-101076418D01*
X141107420Y-101367230D01*
X141091092Y-101666988D01*
X139724040Y-101666988D01*
X139692384Y-101607764D01*
X139413360Y-101494745D01*
X138355605Y-102552500D01*
X137996395Y-102552500D01*
X136938640Y-101494745D01*
X136659616Y-101607764D01*
X136504444Y-101921749D01*
X136413509Y-102259973D01*
X136390306Y-102609438D01*
X132653363Y-102609438D01*
X133947661Y-101315140D01*
X137118245Y-101315140D01*
X138176000Y-102372895D01*
X139233755Y-101315140D01*
X139120736Y-101036116D01*
X138806751Y-100880944D01*
X138468527Y-100790009D01*
X138119062Y-100766806D01*
X137771784Y-100812225D01*
X137440040Y-100924523D01*
X137231264Y-101036116D01*
X137118245Y-101315140D01*
X133947661Y-101315140D01*
X134934802Y-100328000D01*
X141814592Y-100328000D01*
X141744374Y-100543769D01*
X142621000Y-101420395D01*
X143497626Y-100543769D01*
X143427408Y-100328000D01*
X148131555Y-100328000D01*
X147999507Y-100416232D01*
X147787232Y-100628507D01*
X147620449Y-100878115D01*
X147505566Y-101155466D01*
X147447000Y-101449899D01*
X147447000Y-101750101D01*
X147505566Y-102044534D01*
X147620449Y-102321885D01*
X147787232Y-102571493D01*
X147999507Y-102783768D01*
X148249115Y-102950551D01*
X148526466Y-103065434D01*
X148820899Y-103124000D01*
X149121101Y-103124000D01*
X149415534Y-103065434D01*
X149692885Y-102950551D01*
X149942493Y-102783768D01*
X150116823Y-102609438D01*
X151630306Y-102609438D01*
X151675725Y-102956716D01*
X151788023Y-103288460D01*
X151899616Y-103497236D01*
X152178640Y-103610255D01*
X153236395Y-102552500D01*
X153595605Y-102552500D01*
X154653360Y-103610255D01*
X154932384Y-103497236D01*
X155087556Y-103183251D01*
X155178491Y-102845027D01*
X155201694Y-102495562D01*
X155156275Y-102148284D01*
X155043977Y-101816540D01*
X154932384Y-101607764D01*
X154653360Y-101494745D01*
X153595605Y-102552500D01*
X153236395Y-102552500D01*
X152178640Y-101494745D01*
X151899616Y-101607764D01*
X151744444Y-101921749D01*
X151653509Y-102259973D01*
X151630306Y-102609438D01*
X150116823Y-102609438D01*
X150154768Y-102571493D01*
X150321551Y-102321885D01*
X150436434Y-102044534D01*
X150495000Y-101750101D01*
X150495000Y-101449899D01*
X150468195Y-101315140D01*
X152358245Y-101315140D01*
X153416000Y-102372895D01*
X154473755Y-101315140D01*
X154360736Y-101036116D01*
X154046751Y-100880944D01*
X153708527Y-100790009D01*
X153359062Y-100766806D01*
X153011784Y-100812225D01*
X152680040Y-100924523D01*
X152471264Y-101036116D01*
X152358245Y-101315140D01*
X150468195Y-101315140D01*
X150436434Y-101155466D01*
X150321551Y-100878115D01*
X150154768Y-100628507D01*
X149942493Y-100416232D01*
X149810445Y-100328000D01*
X155918678Y-100328000D01*
X155956000Y-100331676D01*
X155993322Y-100328000D01*
X155993333Y-100328000D01*
X156104986Y-100317003D01*
X156248247Y-100273546D01*
X156380276Y-100202974D01*
X156496001Y-100108001D01*
X156519804Y-100078997D01*
X158680114Y-97918688D01*
X158862665Y-97955000D01*
X159145335Y-97955000D01*
X159422574Y-97899853D01*
X159683727Y-97791680D01*
X159918759Y-97634637D01*
X160118637Y-97434759D01*
X160275680Y-97199727D01*
X160383853Y-96938574D01*
X160439000Y-96661335D01*
X160439000Y-96378665D01*
X160383853Y-96101426D01*
X160275680Y-95840273D01*
X160118637Y-95605241D01*
X159918759Y-95405363D01*
X159683727Y-95248320D01*
X159422574Y-95140147D01*
X159145335Y-95085000D01*
X158862665Y-95085000D01*
X158585426Y-95140147D01*
X158324273Y-95248320D01*
X158089241Y-95405363D01*
X157889363Y-95605241D01*
X157732320Y-95840273D01*
X157624147Y-96101426D01*
X157569000Y-96378665D01*
X157569000Y-96661335D01*
X157605312Y-96843886D01*
X155641199Y-98808000D01*
X134657323Y-98808000D01*
X134620000Y-98804324D01*
X134582677Y-98808000D01*
X134582667Y-98808000D01*
X134471014Y-98818997D01*
X134327753Y-98862454D01*
X134195723Y-98933026D01*
X134112083Y-99001668D01*
X134079999Y-99027999D01*
X134056201Y-99056997D01*
X128013003Y-105100196D01*
X127983999Y-105123999D01*
X127957737Y-105156000D01*
X127889026Y-105239724D01*
X127875866Y-105264345D01*
X127818454Y-105371754D01*
X127774997Y-105515015D01*
X127764000Y-105626668D01*
X127764000Y-105626678D01*
X127760324Y-105664000D01*
X127764000Y-105701323D01*
X127764001Y-107881687D01*
X127545495Y-108027688D01*
X127479056Y-108094127D01*
X127473502Y-108075820D01*
X127414537Y-107965506D01*
X127335185Y-107868815D01*
X127238494Y-107789463D01*
X127128180Y-107730498D01*
X127008482Y-107694188D01*
X126884000Y-107681928D01*
X126269750Y-107685000D01*
X126111000Y-107843750D01*
X125857000Y-107843750D01*
X125698250Y-107685000D01*
X125084000Y-107681928D01*
X124959518Y-107694188D01*
X124839820Y-107730498D01*
X124729506Y-107789463D01*
X124632815Y-107868815D01*
X124553463Y-107965506D01*
X124494498Y-108075820D01*
X124458188Y-108195518D01*
X124445928Y-108320000D01*
X116967000Y-108320000D01*
X116967000Y-96369899D01*
X141097000Y-96369899D01*
X141097000Y-96670101D01*
X141155566Y-96964534D01*
X141270449Y-97241885D01*
X141437232Y-97491493D01*
X141649507Y-97703768D01*
X141899115Y-97870551D01*
X142176466Y-97985434D01*
X142470899Y-98044000D01*
X142771101Y-98044000D01*
X143065534Y-97985434D01*
X143342885Y-97870551D01*
X143592493Y-97703768D01*
X143804768Y-97491493D01*
X143971551Y-97241885D01*
X144086434Y-96964534D01*
X144145000Y-96670101D01*
X144145000Y-96369899D01*
X147447000Y-96369899D01*
X147447000Y-96670101D01*
X147505566Y-96964534D01*
X147620449Y-97241885D01*
X147787232Y-97491493D01*
X147999507Y-97703768D01*
X148249115Y-97870551D01*
X148526466Y-97985434D01*
X148820899Y-98044000D01*
X149121101Y-98044000D01*
X149415534Y-97985434D01*
X149692885Y-97870551D01*
X149942493Y-97703768D01*
X150154768Y-97491493D01*
X150321551Y-97241885D01*
X150436434Y-96964534D01*
X150495000Y-96670101D01*
X150495000Y-96369899D01*
X150436434Y-96075466D01*
X150321551Y-95798115D01*
X150154768Y-95548507D01*
X149942493Y-95336232D01*
X149692885Y-95169449D01*
X149415534Y-95054566D01*
X149121101Y-94996000D01*
X148820899Y-94996000D01*
X148526466Y-95054566D01*
X148249115Y-95169449D01*
X147999507Y-95336232D01*
X147787232Y-95548507D01*
X147620449Y-95798115D01*
X147505566Y-96075466D01*
X147447000Y-96369899D01*
X144145000Y-96369899D01*
X144086434Y-96075466D01*
X143971551Y-95798115D01*
X143804768Y-95548507D01*
X143592493Y-95336232D01*
X143342885Y-95169449D01*
X143065534Y-95054566D01*
X142771101Y-94996000D01*
X142470899Y-94996000D01*
X142176466Y-95054566D01*
X141899115Y-95169449D01*
X141649507Y-95336232D01*
X141437232Y-95548507D01*
X141270449Y-95798115D01*
X141155566Y-96075466D01*
X141097000Y-96369899D01*
X116967000Y-96369899D01*
X116967000Y-90308000D01*
X134605928Y-90308000D01*
X134618188Y-90432482D01*
X134654498Y-90552180D01*
X134713463Y-90662494D01*
X134792815Y-90759185D01*
X134889506Y-90838537D01*
X134999820Y-90897502D01*
X135119518Y-90933812D01*
X135244000Y-90946072D01*
X135858250Y-90943000D01*
X136017000Y-90784250D01*
X136017000Y-89535000D01*
X134767750Y-89535000D01*
X134609000Y-89693750D01*
X134605928Y-90308000D01*
X116967000Y-90308000D01*
X116967000Y-88508000D01*
X134605928Y-88508000D01*
X134609000Y-89122250D01*
X134767750Y-89281000D01*
X136017000Y-89281000D01*
X136017000Y-88031750D01*
X136271000Y-88031750D01*
X136271000Y-89281000D01*
X136291000Y-89281000D01*
X136291000Y-89535000D01*
X136271000Y-89535000D01*
X136271000Y-90784250D01*
X136429750Y-90943000D01*
X137044000Y-90946072D01*
X137168482Y-90933812D01*
X137288180Y-90897502D01*
X137398494Y-90838537D01*
X137495185Y-90759185D01*
X137574537Y-90662494D01*
X137633502Y-90552180D01*
X137639056Y-90533873D01*
X137705495Y-90600312D01*
X137956905Y-90768299D01*
X138236257Y-90884011D01*
X138532816Y-90943000D01*
X138835184Y-90943000D01*
X139092930Y-90891731D01*
X142184200Y-93983002D01*
X142207999Y-94012001D01*
X142236997Y-94035799D01*
X142323723Y-94106974D01*
X142455753Y-94177546D01*
X142599014Y-94221003D01*
X142710667Y-94232000D01*
X142710677Y-94232000D01*
X142748000Y-94235676D01*
X142785323Y-94232000D01*
X152085199Y-94232000D01*
X154049312Y-96196114D01*
X154013000Y-96378665D01*
X154013000Y-96661335D01*
X154068147Y-96938574D01*
X154176320Y-97199727D01*
X154333363Y-97434759D01*
X154533241Y-97634637D01*
X154768273Y-97791680D01*
X155029426Y-97899853D01*
X155306665Y-97955000D01*
X155589335Y-97955000D01*
X155866574Y-97899853D01*
X156127727Y-97791680D01*
X156362759Y-97634637D01*
X156562637Y-97434759D01*
X156719680Y-97199727D01*
X156827853Y-96938574D01*
X156883000Y-96661335D01*
X156883000Y-96378665D01*
X156827853Y-96101426D01*
X156719680Y-95840273D01*
X156562637Y-95605241D01*
X156362759Y-95405363D01*
X156127727Y-95248320D01*
X155866574Y-95140147D01*
X155589335Y-95085000D01*
X155306665Y-95085000D01*
X155124114Y-95121312D01*
X152963804Y-92961003D01*
X152940001Y-92931999D01*
X152824276Y-92837026D01*
X152692247Y-92766454D01*
X152548986Y-92722997D01*
X152437333Y-92712000D01*
X152437322Y-92712000D01*
X152400000Y-92708324D01*
X152362678Y-92712000D01*
X143062802Y-92712000D01*
X140658802Y-90308000D01*
X142733928Y-90308000D01*
X142746188Y-90432482D01*
X142782498Y-90552180D01*
X142841463Y-90662494D01*
X142920815Y-90759185D01*
X143017506Y-90838537D01*
X143127820Y-90897502D01*
X143247518Y-90933812D01*
X143372000Y-90946072D01*
X143986250Y-90943000D01*
X144145000Y-90784250D01*
X144145000Y-89535000D01*
X142895750Y-89535000D01*
X142737000Y-89693750D01*
X142733928Y-90308000D01*
X140658802Y-90308000D01*
X140167731Y-89816930D01*
X140219000Y-89559184D01*
X140219000Y-89256816D01*
X140160011Y-88960257D01*
X140044299Y-88680905D01*
X139928768Y-88508000D01*
X142733928Y-88508000D01*
X142737000Y-89122250D01*
X142895750Y-89281000D01*
X144145000Y-89281000D01*
X144145000Y-88031750D01*
X144399000Y-88031750D01*
X144399000Y-89281000D01*
X144419000Y-89281000D01*
X144419000Y-89535000D01*
X144399000Y-89535000D01*
X144399000Y-90784250D01*
X144557750Y-90943000D01*
X145172000Y-90946072D01*
X145296482Y-90933812D01*
X145416180Y-90897502D01*
X145526494Y-90838537D01*
X145623185Y-90759185D01*
X145702537Y-90662494D01*
X145761502Y-90552180D01*
X145767056Y-90533873D01*
X145833495Y-90600312D01*
X146084905Y-90768299D01*
X146364257Y-90884011D01*
X146660816Y-90943000D01*
X146963184Y-90943000D01*
X147259743Y-90884011D01*
X147539095Y-90768299D01*
X147790505Y-90600312D01*
X148004312Y-90386505D01*
X148150313Y-90168000D01*
X162245199Y-90168000D01*
X168273312Y-96196114D01*
X168237000Y-96378665D01*
X168237000Y-96661335D01*
X168292147Y-96938574D01*
X168400320Y-97199727D01*
X168557363Y-97434759D01*
X168757241Y-97634637D01*
X168992273Y-97791680D01*
X169253426Y-97899853D01*
X169530665Y-97955000D01*
X169813335Y-97955000D01*
X170090574Y-97899853D01*
X170351727Y-97791680D01*
X170436001Y-97735370D01*
X170436000Y-118834678D01*
X170432324Y-118872000D01*
X170436000Y-118909322D01*
X170436000Y-118909332D01*
X170446997Y-119020985D01*
X170453896Y-119043727D01*
X170490454Y-119164246D01*
X170561026Y-119296276D01*
X170600871Y-119344826D01*
X170655999Y-119412001D01*
X170685003Y-119435804D01*
X175893312Y-124644114D01*
X175857000Y-124826665D01*
X175857000Y-125109335D01*
X175912147Y-125386574D01*
X176020320Y-125647727D01*
X176177363Y-125882759D01*
X176377241Y-126082637D01*
X176612273Y-126239680D01*
X176873426Y-126347853D01*
X177150665Y-126403000D01*
X177433335Y-126403000D01*
X177710574Y-126347853D01*
X177971727Y-126239680D01*
X178206759Y-126082637D01*
X178406637Y-125882759D01*
X178563498Y-125648000D01*
X182442363Y-125648000D01*
X182501631Y-125758883D01*
X182696576Y-125996424D01*
X182934117Y-126191369D01*
X183205125Y-126336226D01*
X183499187Y-126425428D01*
X183728364Y-126448000D01*
X185079636Y-126448000D01*
X185308813Y-126425428D01*
X185602875Y-126336226D01*
X185873883Y-126191369D01*
X186111424Y-125996424D01*
X186306369Y-125758883D01*
X186365637Y-125648000D01*
X194942363Y-125648000D01*
X195001631Y-125758883D01*
X195196576Y-125996424D01*
X195434117Y-126191369D01*
X195705125Y-126336226D01*
X195999187Y-126425428D01*
X196228364Y-126448000D01*
X197579636Y-126448000D01*
X197808813Y-126425428D01*
X198102875Y-126336226D01*
X198373883Y-126191369D01*
X198611424Y-125996424D01*
X198806369Y-125758883D01*
X198951226Y-125487875D01*
X199040428Y-125193813D01*
X199070548Y-124888000D01*
X199040428Y-124582187D01*
X198951226Y-124288125D01*
X198806369Y-124017117D01*
X198611424Y-123779576D01*
X198373883Y-123584631D01*
X198102875Y-123439774D01*
X197808813Y-123350572D01*
X197579636Y-123328000D01*
X196228364Y-123328000D01*
X195999187Y-123350572D01*
X195705125Y-123439774D01*
X195434117Y-123584631D01*
X195196576Y-123779576D01*
X195001631Y-124017117D01*
X194942363Y-124128000D01*
X186365637Y-124128000D01*
X186306369Y-124017117D01*
X186111424Y-123779576D01*
X185873883Y-123584631D01*
X185602875Y-123439774D01*
X185308813Y-123350572D01*
X185079636Y-123328000D01*
X183728364Y-123328000D01*
X183499187Y-123350572D01*
X183205125Y-123439774D01*
X182934117Y-123584631D01*
X182696576Y-123779576D01*
X182501631Y-124017117D01*
X182442363Y-124128000D01*
X178456589Y-124128000D01*
X178406637Y-124053241D01*
X178206759Y-123853363D01*
X177971727Y-123696320D01*
X177710574Y-123588147D01*
X177433335Y-123533000D01*
X177150665Y-123533000D01*
X176968114Y-123569312D01*
X171956000Y-118557199D01*
X171956000Y-108514801D01*
X173342543Y-109901345D01*
X173212774Y-110144125D01*
X173123572Y-110438187D01*
X173093452Y-110744000D01*
X173123572Y-111049813D01*
X173212774Y-111343875D01*
X173357631Y-111614883D01*
X173552576Y-111852424D01*
X173790117Y-112047369D01*
X174061125Y-112192226D01*
X174355187Y-112281428D01*
X174584364Y-112304000D01*
X175935636Y-112304000D01*
X176164813Y-112281428D01*
X176458875Y-112192226D01*
X176729883Y-112047369D01*
X176967424Y-111852424D01*
X177162369Y-111614883D01*
X177221637Y-111504000D01*
X185798363Y-111504000D01*
X185857631Y-111614883D01*
X186052576Y-111852424D01*
X186290117Y-112047369D01*
X186561125Y-112192226D01*
X186855187Y-112281428D01*
X187084364Y-112304000D01*
X188435636Y-112304000D01*
X188664813Y-112281428D01*
X188958875Y-112192226D01*
X189229883Y-112047369D01*
X189467424Y-111852424D01*
X189662369Y-111614883D01*
X189807226Y-111343875D01*
X189896428Y-111049813D01*
X189926548Y-110744000D01*
X189896428Y-110438187D01*
X189807226Y-110144125D01*
X189662369Y-109873117D01*
X189467424Y-109635576D01*
X189229883Y-109440631D01*
X188958875Y-109295774D01*
X188664813Y-109206572D01*
X188435636Y-109184000D01*
X187084364Y-109184000D01*
X186855187Y-109206572D01*
X186561125Y-109295774D01*
X186290117Y-109440631D01*
X186052576Y-109635576D01*
X185857631Y-109873117D01*
X185798363Y-109984000D01*
X177221637Y-109984000D01*
X177162369Y-109873117D01*
X176967424Y-109635576D01*
X176729883Y-109440631D01*
X176458875Y-109295774D01*
X176164813Y-109206572D01*
X175935636Y-109184000D01*
X174774802Y-109184000D01*
X172972000Y-107381199D01*
X172972000Y-106112664D01*
X173145188Y-106112664D01*
X173171147Y-106223655D01*
X173293350Y-106505094D01*
X173468111Y-106757285D01*
X173688714Y-106970536D01*
X173946681Y-107136652D01*
X174232099Y-107249249D01*
X174534000Y-107304000D01*
X175133000Y-107304000D01*
X175133000Y-105871000D01*
X175387000Y-105871000D01*
X175387000Y-107304000D01*
X175986000Y-107304000D01*
X176287901Y-107249249D01*
X176573319Y-107136652D01*
X176831286Y-106970536D01*
X177051889Y-106757285D01*
X177226650Y-106505094D01*
X177348853Y-106223655D01*
X177374812Y-106112664D01*
X185645188Y-106112664D01*
X185671147Y-106223655D01*
X185793350Y-106505094D01*
X185968111Y-106757285D01*
X186188714Y-106970536D01*
X186446681Y-107136652D01*
X186732099Y-107249249D01*
X187034000Y-107304000D01*
X187633000Y-107304000D01*
X187633000Y-105871000D01*
X187887000Y-105871000D01*
X187887000Y-107304000D01*
X188486000Y-107304000D01*
X188787901Y-107249249D01*
X189073319Y-107136652D01*
X189331286Y-106970536D01*
X189551889Y-106757285D01*
X189726650Y-106505094D01*
X189848853Y-106223655D01*
X189874812Y-106112664D01*
X189834979Y-106032664D01*
X191433188Y-106032664D01*
X191459147Y-106143655D01*
X191581350Y-106425094D01*
X191756111Y-106677285D01*
X191976714Y-106890536D01*
X192234681Y-107056652D01*
X192520099Y-107169249D01*
X192822000Y-107224000D01*
X193421000Y-107224000D01*
X193421000Y-105791000D01*
X193675000Y-105791000D01*
X193675000Y-107224000D01*
X194274000Y-107224000D01*
X194575901Y-107169249D01*
X194861319Y-107056652D01*
X195119286Y-106890536D01*
X195339889Y-106677285D01*
X195514650Y-106425094D01*
X195636853Y-106143655D01*
X195662812Y-106032664D01*
X203933188Y-106032664D01*
X203959147Y-106143655D01*
X204081350Y-106425094D01*
X204256111Y-106677285D01*
X204476714Y-106890536D01*
X204734681Y-107056652D01*
X205020099Y-107169249D01*
X205322000Y-107224000D01*
X205921000Y-107224000D01*
X205921000Y-105791000D01*
X204053517Y-105791000D01*
X203933188Y-106032664D01*
X195662812Y-106032664D01*
X195542483Y-105791000D01*
X193675000Y-105791000D01*
X193421000Y-105791000D01*
X191553517Y-105791000D01*
X191433188Y-106032664D01*
X189834979Y-106032664D01*
X189754483Y-105871000D01*
X187887000Y-105871000D01*
X187633000Y-105871000D01*
X185765517Y-105871000D01*
X185645188Y-106112664D01*
X177374812Y-106112664D01*
X177254483Y-105871000D01*
X175387000Y-105871000D01*
X175133000Y-105871000D01*
X173265517Y-105871000D01*
X173145188Y-106112664D01*
X172972000Y-106112664D01*
X172972000Y-105375336D01*
X173145188Y-105375336D01*
X173265517Y-105617000D01*
X175133000Y-105617000D01*
X175133000Y-104184000D01*
X175387000Y-104184000D01*
X175387000Y-105617000D01*
X177254483Y-105617000D01*
X177374812Y-105375336D01*
X185645188Y-105375336D01*
X185765517Y-105617000D01*
X187633000Y-105617000D01*
X187633000Y-104184000D01*
X187887000Y-104184000D01*
X187887000Y-105617000D01*
X189754483Y-105617000D01*
X189874812Y-105375336D01*
X189856102Y-105295336D01*
X191433188Y-105295336D01*
X191553517Y-105537000D01*
X193421000Y-105537000D01*
X193421000Y-104104000D01*
X193675000Y-104104000D01*
X193675000Y-105537000D01*
X195542483Y-105537000D01*
X195662812Y-105295336D01*
X203933188Y-105295336D01*
X204053517Y-105537000D01*
X205921000Y-105537000D01*
X205921000Y-104104000D01*
X205322000Y-104104000D01*
X205020099Y-104158751D01*
X204734681Y-104271348D01*
X204476714Y-104437464D01*
X204256111Y-104650715D01*
X204081350Y-104902906D01*
X203959147Y-105184345D01*
X203933188Y-105295336D01*
X195662812Y-105295336D01*
X195636853Y-105184345D01*
X195514650Y-104902906D01*
X195339889Y-104650715D01*
X195119286Y-104437464D01*
X194861319Y-104271348D01*
X194575901Y-104158751D01*
X194274000Y-104104000D01*
X193675000Y-104104000D01*
X193421000Y-104104000D01*
X192822000Y-104104000D01*
X192520099Y-104158751D01*
X192234681Y-104271348D01*
X191976714Y-104437464D01*
X191756111Y-104650715D01*
X191581350Y-104902906D01*
X191459147Y-105184345D01*
X191433188Y-105295336D01*
X189856102Y-105295336D01*
X189848853Y-105264345D01*
X189726650Y-104982906D01*
X189551889Y-104730715D01*
X189331286Y-104517464D01*
X189073319Y-104351348D01*
X188787901Y-104238751D01*
X188486000Y-104184000D01*
X187887000Y-104184000D01*
X187633000Y-104184000D01*
X187034000Y-104184000D01*
X186732099Y-104238751D01*
X186446681Y-104351348D01*
X186188714Y-104517464D01*
X185968111Y-104730715D01*
X185793350Y-104982906D01*
X185671147Y-105264345D01*
X185645188Y-105375336D01*
X177374812Y-105375336D01*
X177348853Y-105264345D01*
X177226650Y-104982906D01*
X177051889Y-104730715D01*
X176831286Y-104517464D01*
X176573319Y-104351348D01*
X176287901Y-104238751D01*
X175986000Y-104184000D01*
X175387000Y-104184000D01*
X175133000Y-104184000D01*
X174534000Y-104184000D01*
X174232099Y-104238751D01*
X173946681Y-104351348D01*
X173688714Y-104517464D01*
X173468111Y-104730715D01*
X173293350Y-104982906D01*
X173171147Y-105264345D01*
X173145188Y-105375336D01*
X172972000Y-105375336D01*
X172972000Y-98410665D01*
X173317000Y-98410665D01*
X173317000Y-98693335D01*
X173372147Y-98970574D01*
X173480320Y-99231727D01*
X173637363Y-99466759D01*
X173837241Y-99666637D01*
X174072273Y-99823680D01*
X174333426Y-99931853D01*
X174610665Y-99987000D01*
X174893335Y-99987000D01*
X175170574Y-99931853D01*
X175431727Y-99823680D01*
X175666759Y-99666637D01*
X175866637Y-99466759D01*
X176023680Y-99231727D01*
X176131853Y-98970574D01*
X176187000Y-98693335D01*
X176187000Y-98410665D01*
X177381000Y-98410665D01*
X177381000Y-98693335D01*
X177436147Y-98970574D01*
X177544320Y-99231727D01*
X177701363Y-99466759D01*
X177901241Y-99666637D01*
X178136273Y-99823680D01*
X178397426Y-99931853D01*
X178674665Y-99987000D01*
X178957335Y-99987000D01*
X179234574Y-99931853D01*
X179495727Y-99823680D01*
X179730759Y-99666637D01*
X179930637Y-99466759D01*
X180087680Y-99231727D01*
X180195853Y-98970574D01*
X180251000Y-98693335D01*
X180251000Y-98410665D01*
X180195853Y-98133426D01*
X180087680Y-97872273D01*
X179930637Y-97637241D01*
X179730759Y-97437363D01*
X179495727Y-97280320D01*
X179234574Y-97172147D01*
X178957335Y-97117000D01*
X178674665Y-97117000D01*
X178397426Y-97172147D01*
X178136273Y-97280320D01*
X177901241Y-97437363D01*
X177701363Y-97637241D01*
X177544320Y-97872273D01*
X177436147Y-98133426D01*
X177381000Y-98410665D01*
X176187000Y-98410665D01*
X176131853Y-98133426D01*
X176023680Y-97872273D01*
X175866637Y-97637241D01*
X175666759Y-97437363D01*
X175431727Y-97280320D01*
X175170574Y-97172147D01*
X174893335Y-97117000D01*
X174610665Y-97117000D01*
X174333426Y-97172147D01*
X174072273Y-97280320D01*
X173837241Y-97437363D01*
X173637363Y-97637241D01*
X173480320Y-97872273D01*
X173372147Y-98133426D01*
X173317000Y-98410665D01*
X172972000Y-98410665D01*
X172972000Y-88706801D01*
X173317000Y-88361802D01*
X173317000Y-88533335D01*
X173372147Y-88810574D01*
X173480320Y-89071727D01*
X173637363Y-89306759D01*
X173837241Y-89506637D01*
X173992001Y-89610044D01*
X173992001Y-89878668D01*
X173988324Y-89916000D01*
X174002998Y-90064985D01*
X174046454Y-90208246D01*
X174117026Y-90340276D01*
X174188201Y-90427002D01*
X174212000Y-90456001D01*
X174240998Y-90479799D01*
X180712201Y-96951003D01*
X180735999Y-96980001D01*
X180851724Y-97074974D01*
X180983753Y-97145546D01*
X181127014Y-97189003D01*
X181238667Y-97200000D01*
X181238676Y-97200000D01*
X181275999Y-97203676D01*
X181313322Y-97200000D01*
X182442363Y-97200000D01*
X182501631Y-97310883D01*
X182696576Y-97548424D01*
X182934117Y-97743369D01*
X183205125Y-97888226D01*
X183499187Y-97977428D01*
X183728364Y-98000000D01*
X185079636Y-98000000D01*
X185308813Y-97977428D01*
X185602875Y-97888226D01*
X185873883Y-97743369D01*
X186111424Y-97548424D01*
X186306369Y-97310883D01*
X186365637Y-97200000D01*
X194942363Y-97200000D01*
X195001631Y-97310883D01*
X195196576Y-97548424D01*
X195434117Y-97743369D01*
X195705125Y-97888226D01*
X195999187Y-97977428D01*
X196228364Y-98000000D01*
X197579636Y-98000000D01*
X197808813Y-97977428D01*
X198102875Y-97888226D01*
X198373883Y-97743369D01*
X198611424Y-97548424D01*
X198806369Y-97310883D01*
X198951226Y-97039875D01*
X199040428Y-96745813D01*
X199070548Y-96440000D01*
X199040428Y-96134187D01*
X198951226Y-95840125D01*
X198806369Y-95569117D01*
X198611424Y-95331576D01*
X198373883Y-95136631D01*
X198102875Y-94991774D01*
X197808813Y-94902572D01*
X197579636Y-94880000D01*
X196228364Y-94880000D01*
X195999187Y-94902572D01*
X195705125Y-94991774D01*
X195434117Y-95136631D01*
X195196576Y-95331576D01*
X195001631Y-95569117D01*
X194942363Y-95680000D01*
X186365637Y-95680000D01*
X186306369Y-95569117D01*
X186111424Y-95331576D01*
X185873883Y-95136631D01*
X185602875Y-94991774D01*
X185308813Y-94902572D01*
X185079636Y-94880000D01*
X183728364Y-94880000D01*
X183499187Y-94902572D01*
X183205125Y-94991774D01*
X182934117Y-95136631D01*
X182696576Y-95331576D01*
X182501631Y-95569117D01*
X182442363Y-95680000D01*
X181590802Y-95680000D01*
X177719466Y-91808664D01*
X182289188Y-91808664D01*
X182315147Y-91919655D01*
X182437350Y-92201094D01*
X182612111Y-92453285D01*
X182832714Y-92666536D01*
X183090681Y-92832652D01*
X183376099Y-92945249D01*
X183678000Y-93000000D01*
X184277000Y-93000000D01*
X184277000Y-91567000D01*
X184531000Y-91567000D01*
X184531000Y-93000000D01*
X185130000Y-93000000D01*
X185431901Y-92945249D01*
X185717319Y-92832652D01*
X185975286Y-92666536D01*
X186195889Y-92453285D01*
X186370650Y-92201094D01*
X186492853Y-91919655D01*
X186518812Y-91808664D01*
X194789188Y-91808664D01*
X194815147Y-91919655D01*
X194937350Y-92201094D01*
X195112111Y-92453285D01*
X195332714Y-92666536D01*
X195590681Y-92832652D01*
X195876099Y-92945249D01*
X196178000Y-93000000D01*
X196777000Y-93000000D01*
X196777000Y-91567000D01*
X197031000Y-91567000D01*
X197031000Y-93000000D01*
X197630000Y-93000000D01*
X197931901Y-92945249D01*
X198217319Y-92832652D01*
X198475286Y-92666536D01*
X198695889Y-92453285D01*
X198870650Y-92201094D01*
X198992853Y-91919655D01*
X199018812Y-91808664D01*
X198898483Y-91567000D01*
X197031000Y-91567000D01*
X196777000Y-91567000D01*
X194909517Y-91567000D01*
X194789188Y-91808664D01*
X186518812Y-91808664D01*
X186398483Y-91567000D01*
X184531000Y-91567000D01*
X184277000Y-91567000D01*
X182409517Y-91567000D01*
X182289188Y-91808664D01*
X177719466Y-91808664D01*
X176982138Y-91071336D01*
X182289188Y-91071336D01*
X182409517Y-91313000D01*
X184277000Y-91313000D01*
X184277000Y-89880000D01*
X184531000Y-89880000D01*
X184531000Y-91313000D01*
X186398483Y-91313000D01*
X186518812Y-91071336D01*
X194789188Y-91071336D01*
X194909517Y-91313000D01*
X196777000Y-91313000D01*
X196777000Y-89880000D01*
X197031000Y-89880000D01*
X197031000Y-91313000D01*
X198898483Y-91313000D01*
X199018812Y-91071336D01*
X198992853Y-90960345D01*
X198870650Y-90678906D01*
X198695889Y-90426715D01*
X198475286Y-90213464D01*
X198217319Y-90047348D01*
X197931901Y-89934751D01*
X197630000Y-89880000D01*
X197031000Y-89880000D01*
X196777000Y-89880000D01*
X196178000Y-89880000D01*
X195876099Y-89934751D01*
X195590681Y-90047348D01*
X195332714Y-90213464D01*
X195112111Y-90426715D01*
X194937350Y-90678906D01*
X194815147Y-90960345D01*
X194789188Y-91071336D01*
X186518812Y-91071336D01*
X186492853Y-90960345D01*
X186370650Y-90678906D01*
X186195889Y-90426715D01*
X185975286Y-90213464D01*
X185717319Y-90047348D01*
X185431901Y-89934751D01*
X185130000Y-89880000D01*
X184531000Y-89880000D01*
X184277000Y-89880000D01*
X183678000Y-89880000D01*
X183376099Y-89934751D01*
X183090681Y-90047348D01*
X182832714Y-90213464D01*
X182612111Y-90426715D01*
X182437350Y-90678906D01*
X182315147Y-90960345D01*
X182289188Y-91071336D01*
X176982138Y-91071336D01*
X175517302Y-89606501D01*
X175666759Y-89506637D01*
X175866637Y-89306759D01*
X176023680Y-89071727D01*
X176131853Y-88810574D01*
X176187000Y-88533335D01*
X176187000Y-88250665D01*
X176131853Y-87973426D01*
X176023680Y-87712273D01*
X175866637Y-87477241D01*
X175666759Y-87277363D01*
X175512000Y-87173957D01*
X175512000Y-86674801D01*
X175574802Y-86612000D01*
X179286678Y-86612000D01*
X179324000Y-86615676D01*
X179361322Y-86612000D01*
X179361333Y-86612000D01*
X179472986Y-86601003D01*
X179616247Y-86557546D01*
X179748276Y-86486974D01*
X179864001Y-86392001D01*
X179887803Y-86362998D01*
X180343003Y-85907798D01*
X180372001Y-85884001D01*
X180466974Y-85768276D01*
X180537546Y-85636247D01*
X180581003Y-85492986D01*
X180592000Y-85381333D01*
X180592000Y-85381324D01*
X180595676Y-85344001D01*
X180592000Y-85306678D01*
X180592000Y-85038043D01*
X180746759Y-84934637D01*
X180946637Y-84734759D01*
X181102000Y-84502241D01*
X181257363Y-84734759D01*
X181457241Y-84934637D01*
X181612001Y-85038044D01*
X181612001Y-85537196D01*
X179801297Y-87347901D01*
X179730759Y-87277363D01*
X179495727Y-87120320D01*
X179234574Y-87012147D01*
X178957335Y-86957000D01*
X178674665Y-86957000D01*
X178397426Y-87012147D01*
X178136273Y-87120320D01*
X177901241Y-87277363D01*
X177701363Y-87477241D01*
X177544320Y-87712273D01*
X177436147Y-87973426D01*
X177381000Y-88250665D01*
X177381000Y-88533335D01*
X177436147Y-88810574D01*
X177544320Y-89071727D01*
X177701363Y-89306759D01*
X177901241Y-89506637D01*
X178136273Y-89663680D01*
X178397426Y-89771853D01*
X178674665Y-89827000D01*
X178957335Y-89827000D01*
X179234574Y-89771853D01*
X179495727Y-89663680D01*
X179730759Y-89506637D01*
X179930637Y-89306759D01*
X180056747Y-89118022D01*
X180124247Y-89097546D01*
X180256276Y-89026974D01*
X180372001Y-88932001D01*
X180395804Y-88902997D01*
X182883008Y-86415795D01*
X182912001Y-86392001D01*
X182935795Y-86363008D01*
X182935799Y-86363004D01*
X183006973Y-86276277D01*
X183006974Y-86276276D01*
X183077546Y-86144247D01*
X183121003Y-86000986D01*
X183132000Y-85889333D01*
X183132000Y-85889324D01*
X183135676Y-85852001D01*
X183132000Y-85814678D01*
X183132000Y-85038043D01*
X183286759Y-84934637D01*
X183486637Y-84734759D01*
X183642000Y-84502241D01*
X183797363Y-84734759D01*
X183997241Y-84934637D01*
X184232273Y-85091680D01*
X184493426Y-85199853D01*
X184770665Y-85255000D01*
X185053335Y-85255000D01*
X185330574Y-85199853D01*
X185591727Y-85091680D01*
X185826759Y-84934637D01*
X186026637Y-84734759D01*
X186182000Y-84502241D01*
X186337363Y-84734759D01*
X186537241Y-84934637D01*
X186772273Y-85091680D01*
X187033426Y-85199853D01*
X187310665Y-85255000D01*
X187593335Y-85255000D01*
X187870574Y-85199853D01*
X188131727Y-85091680D01*
X188366759Y-84934637D01*
X188566637Y-84734759D01*
X188723680Y-84499727D01*
X188831853Y-84238574D01*
X188887000Y-83961335D01*
X188887000Y-83678665D01*
X188831853Y-83401426D01*
X188723680Y-83140273D01*
X188566637Y-82905241D01*
X188366759Y-82705363D01*
X188131727Y-82548320D01*
X187870574Y-82440147D01*
X187593335Y-82385000D01*
X187310665Y-82385000D01*
X187033426Y-82440147D01*
X186772273Y-82548320D01*
X186537241Y-82705363D01*
X186337363Y-82905241D01*
X186182000Y-83137759D01*
X186026637Y-82905241D01*
X185826759Y-82705363D01*
X185591727Y-82548320D01*
X185330574Y-82440147D01*
X185053335Y-82385000D01*
X184770665Y-82385000D01*
X184493426Y-82440147D01*
X184232273Y-82548320D01*
X183997241Y-82705363D01*
X183797363Y-82905241D01*
X183642000Y-83137759D01*
X183486637Y-82905241D01*
X183286759Y-82705363D01*
X183051727Y-82548320D01*
X182790574Y-82440147D01*
X182513335Y-82385000D01*
X182230665Y-82385000D01*
X181953426Y-82440147D01*
X181692273Y-82548320D01*
X181457241Y-82705363D01*
X181257363Y-82905241D01*
X181102000Y-83137759D01*
X180946637Y-82905241D01*
X180746759Y-82705363D01*
X180511727Y-82548320D01*
X180250574Y-82440147D01*
X179973335Y-82385000D01*
X179690665Y-82385000D01*
X179413426Y-82440147D01*
X179152273Y-82548320D01*
X178917241Y-82705363D01*
X178717363Y-82905241D01*
X178562000Y-83137759D01*
X178406637Y-82905241D01*
X178206759Y-82705363D01*
X177971727Y-82548320D01*
X177710574Y-82440147D01*
X177433335Y-82385000D01*
X177150665Y-82385000D01*
X176873426Y-82440147D01*
X176612273Y-82548320D01*
X176377241Y-82705363D01*
X176177363Y-82905241D01*
X176022000Y-83137759D01*
X175866637Y-82905241D01*
X175666759Y-82705363D01*
X175431727Y-82548320D01*
X175170574Y-82440147D01*
X174893335Y-82385000D01*
X174610665Y-82385000D01*
X174333426Y-82440147D01*
X174072273Y-82548320D01*
X173837241Y-82705363D01*
X173637363Y-82905241D01*
X173482000Y-83137759D01*
X173326637Y-82905241D01*
X173126759Y-82705363D01*
X172891727Y-82548320D01*
X172630574Y-82440147D01*
X172353335Y-82385000D01*
X172070665Y-82385000D01*
X171793426Y-82440147D01*
X171532273Y-82548320D01*
X171297241Y-82705363D01*
X171097363Y-82905241D01*
X170942000Y-83137759D01*
X170786637Y-82905241D01*
X170586759Y-82705363D01*
X170351727Y-82548320D01*
X170090574Y-82440147D01*
X169813335Y-82385000D01*
X169530665Y-82385000D01*
X169253426Y-82440147D01*
X168992273Y-82548320D01*
X168757241Y-82705363D01*
X168557363Y-82905241D01*
X168400320Y-83140273D01*
X168292147Y-83401426D01*
X168237000Y-83678665D01*
X168237000Y-83961335D01*
X168292147Y-84238574D01*
X168400320Y-84499727D01*
X168557363Y-84734759D01*
X168757241Y-84934637D01*
X168912000Y-85038044D01*
X168912001Y-85141956D01*
X168757241Y-85245363D01*
X168557363Y-85445241D01*
X168400320Y-85680273D01*
X168292147Y-85941426D01*
X168237000Y-86218665D01*
X168237000Y-86501335D01*
X168292147Y-86778574D01*
X168400320Y-87039727D01*
X168557363Y-87274759D01*
X168757241Y-87474637D01*
X168992273Y-87631680D01*
X169253426Y-87739853D01*
X169530665Y-87795000D01*
X169813335Y-87795000D01*
X170090574Y-87739853D01*
X170351727Y-87631680D01*
X170436001Y-87575370D01*
X170436001Y-95304630D01*
X170351727Y-95248320D01*
X170090574Y-95140147D01*
X169813335Y-95085000D01*
X169530665Y-95085000D01*
X169348114Y-95121312D01*
X163123804Y-88897003D01*
X163100001Y-88867999D01*
X162984276Y-88773026D01*
X162852247Y-88702454D01*
X162708986Y-88658997D01*
X162597333Y-88648000D01*
X162597322Y-88648000D01*
X162560000Y-88644324D01*
X162522678Y-88648000D01*
X148150313Y-88648000D01*
X148004312Y-88429495D01*
X147790505Y-88215688D01*
X147539095Y-88047701D01*
X147259743Y-87931989D01*
X146963184Y-87873000D01*
X146660816Y-87873000D01*
X146364257Y-87931989D01*
X146084905Y-88047701D01*
X145833495Y-88215688D01*
X145767056Y-88282127D01*
X145761502Y-88263820D01*
X145702537Y-88153506D01*
X145623185Y-88056815D01*
X145526494Y-87977463D01*
X145416180Y-87918498D01*
X145296482Y-87882188D01*
X145172000Y-87869928D01*
X144557750Y-87873000D01*
X144399000Y-88031750D01*
X144145000Y-88031750D01*
X143986250Y-87873000D01*
X143372000Y-87869928D01*
X143247518Y-87882188D01*
X143127820Y-87918498D01*
X143017506Y-87977463D01*
X142920815Y-88056815D01*
X142841463Y-88153506D01*
X142782498Y-88263820D01*
X142746188Y-88383518D01*
X142733928Y-88508000D01*
X139928768Y-88508000D01*
X139876312Y-88429495D01*
X139662505Y-88215688D01*
X139411095Y-88047701D01*
X139131743Y-87931989D01*
X138835184Y-87873000D01*
X138532816Y-87873000D01*
X138236257Y-87931989D01*
X137956905Y-88047701D01*
X137705495Y-88215688D01*
X137639056Y-88282127D01*
X137633502Y-88263820D01*
X137574537Y-88153506D01*
X137495185Y-88056815D01*
X137398494Y-87977463D01*
X137288180Y-87918498D01*
X137168482Y-87882188D01*
X137044000Y-87869928D01*
X136429750Y-87873000D01*
X136271000Y-88031750D01*
X136017000Y-88031750D01*
X135858250Y-87873000D01*
X135244000Y-87869928D01*
X135119518Y-87882188D01*
X134999820Y-87918498D01*
X134889506Y-87977463D01*
X134792815Y-88056815D01*
X134713463Y-88153506D01*
X134654498Y-88263820D01*
X134618188Y-88383518D01*
X134605928Y-88508000D01*
X116967000Y-88508000D01*
X116967000Y-83678665D01*
X141317000Y-83678665D01*
X141317000Y-83961335D01*
X141372147Y-84238574D01*
X141480320Y-84499727D01*
X141637363Y-84734759D01*
X141837241Y-84934637D01*
X142072273Y-85091680D01*
X142333426Y-85199853D01*
X142610665Y-85255000D01*
X142893335Y-85255000D01*
X143170574Y-85199853D01*
X143431727Y-85091680D01*
X143666759Y-84934637D01*
X143866637Y-84734759D01*
X144022000Y-84502241D01*
X144177363Y-84734759D01*
X144377241Y-84934637D01*
X144612273Y-85091680D01*
X144873426Y-85199853D01*
X145150665Y-85255000D01*
X145433335Y-85255000D01*
X145710574Y-85199853D01*
X145971727Y-85091680D01*
X146206759Y-84934637D01*
X146406637Y-84734759D01*
X146562000Y-84502241D01*
X146717363Y-84734759D01*
X146917241Y-84934637D01*
X147152273Y-85091680D01*
X147413426Y-85199853D01*
X147690665Y-85255000D01*
X147973335Y-85255000D01*
X148250574Y-85199853D01*
X148511727Y-85091680D01*
X148746759Y-84934637D01*
X148946637Y-84734759D01*
X149103680Y-84499727D01*
X149108067Y-84489135D01*
X149219615Y-84675131D01*
X149408586Y-84883519D01*
X149634580Y-85051037D01*
X149888913Y-85171246D01*
X150022961Y-85211904D01*
X150245000Y-85089915D01*
X150245000Y-83947000D01*
X150225000Y-83947000D01*
X150225000Y-83693000D01*
X150245000Y-83693000D01*
X150245000Y-82550085D01*
X150499000Y-82550085D01*
X150499000Y-83693000D01*
X150519000Y-83693000D01*
X150519000Y-83947000D01*
X150499000Y-83947000D01*
X150499000Y-85089915D01*
X150721039Y-85211904D01*
X150855087Y-85171246D01*
X151109420Y-85051037D01*
X151335414Y-84883519D01*
X151524385Y-84675131D01*
X151635933Y-84489135D01*
X151640320Y-84499727D01*
X151797363Y-84734759D01*
X151997241Y-84934637D01*
X152232273Y-85091680D01*
X152493426Y-85199853D01*
X152770665Y-85255000D01*
X153053335Y-85255000D01*
X153330574Y-85199853D01*
X153591727Y-85091680D01*
X153826759Y-84934637D01*
X154026637Y-84734759D01*
X154182000Y-84502241D01*
X154337363Y-84734759D01*
X154537241Y-84934637D01*
X154767759Y-85088664D01*
X154533241Y-85245363D01*
X154333363Y-85445241D01*
X154176320Y-85680273D01*
X154068147Y-85941426D01*
X154013000Y-86218665D01*
X154013000Y-86501335D01*
X154068147Y-86778574D01*
X154176320Y-87039727D01*
X154333363Y-87274759D01*
X154533241Y-87474637D01*
X154768273Y-87631680D01*
X155029426Y-87739853D01*
X155306665Y-87795000D01*
X155589335Y-87795000D01*
X155866574Y-87739853D01*
X156127727Y-87631680D01*
X156362759Y-87474637D01*
X156562637Y-87274759D01*
X156719680Y-87039727D01*
X156827853Y-86778574D01*
X156883000Y-86501335D01*
X156883000Y-86218665D01*
X156846688Y-86036114D01*
X157664778Y-85218024D01*
X157850665Y-85255000D01*
X158079604Y-85255000D01*
X157889363Y-85445241D01*
X157732320Y-85680273D01*
X157624147Y-85941426D01*
X157569000Y-86218665D01*
X157569000Y-86501335D01*
X157624147Y-86778574D01*
X157732320Y-87039727D01*
X157889363Y-87274759D01*
X158089241Y-87474637D01*
X158324273Y-87631680D01*
X158585426Y-87739853D01*
X158862665Y-87795000D01*
X159145335Y-87795000D01*
X159422574Y-87739853D01*
X159683727Y-87631680D01*
X159918759Y-87474637D01*
X160118637Y-87274759D01*
X160275680Y-87039727D01*
X160383853Y-86778574D01*
X160439000Y-86501335D01*
X160439000Y-86218665D01*
X160402688Y-86036114D01*
X161043004Y-85395798D01*
X161072001Y-85372001D01*
X161166974Y-85256276D01*
X161237546Y-85124247D01*
X161256500Y-85061764D01*
X161446759Y-84934637D01*
X161646637Y-84734759D01*
X161802000Y-84502241D01*
X161957363Y-84734759D01*
X162157241Y-84934637D01*
X162206099Y-84967283D01*
X162141426Y-84980147D01*
X161880273Y-85088320D01*
X161645241Y-85245363D01*
X161445363Y-85445241D01*
X161288320Y-85680273D01*
X161180147Y-85941426D01*
X161125000Y-86218665D01*
X161125000Y-86501335D01*
X161180147Y-86778574D01*
X161288320Y-87039727D01*
X161445363Y-87274759D01*
X161645241Y-87474637D01*
X161880273Y-87631680D01*
X162141426Y-87739853D01*
X162418665Y-87795000D01*
X162701335Y-87795000D01*
X162978574Y-87739853D01*
X163239727Y-87631680D01*
X163474759Y-87474637D01*
X163674637Y-87274759D01*
X163831680Y-87039727D01*
X163939853Y-86778574D01*
X163995000Y-86501335D01*
X163995000Y-86218665D01*
X163939853Y-85941426D01*
X163831680Y-85680273D01*
X163784429Y-85609557D01*
X163821003Y-85488986D01*
X163832000Y-85377333D01*
X163832000Y-85377324D01*
X163835676Y-85340001D01*
X163832000Y-85302678D01*
X163832000Y-85038043D01*
X163986759Y-84934637D01*
X164186637Y-84734759D01*
X164342000Y-84502241D01*
X164497363Y-84734759D01*
X164697241Y-84934637D01*
X164852000Y-85038044D01*
X164852000Y-85310677D01*
X164848324Y-85348000D01*
X164852000Y-85385322D01*
X164852000Y-85385332D01*
X164862997Y-85496985D01*
X164895404Y-85603820D01*
X164844320Y-85680273D01*
X164736147Y-85941426D01*
X164681000Y-86218665D01*
X164681000Y-86501335D01*
X164736147Y-86778574D01*
X164844320Y-87039727D01*
X165001363Y-87274759D01*
X165201241Y-87474637D01*
X165436273Y-87631680D01*
X165697426Y-87739853D01*
X165974665Y-87795000D01*
X166257335Y-87795000D01*
X166534574Y-87739853D01*
X166795727Y-87631680D01*
X167030759Y-87474637D01*
X167230637Y-87274759D01*
X167387680Y-87039727D01*
X167495853Y-86778574D01*
X167551000Y-86501335D01*
X167551000Y-86218665D01*
X167495853Y-85941426D01*
X167387680Y-85680273D01*
X167230637Y-85445241D01*
X167030759Y-85245363D01*
X166795727Y-85088320D01*
X166534574Y-84980147D01*
X166476066Y-84968509D01*
X166526759Y-84934637D01*
X166726637Y-84734759D01*
X166883680Y-84499727D01*
X166991853Y-84238574D01*
X167047000Y-83961335D01*
X167047000Y-83678665D01*
X166991853Y-83401426D01*
X166883680Y-83140273D01*
X166726637Y-82905241D01*
X166526759Y-82705363D01*
X166291727Y-82548320D01*
X166030574Y-82440147D01*
X165753335Y-82385000D01*
X165470665Y-82385000D01*
X165193426Y-82440147D01*
X164932273Y-82548320D01*
X164697241Y-82705363D01*
X164497363Y-82905241D01*
X164342000Y-83137759D01*
X164186637Y-82905241D01*
X163986759Y-82705363D01*
X163751727Y-82548320D01*
X163490574Y-82440147D01*
X163213335Y-82385000D01*
X162930665Y-82385000D01*
X162653426Y-82440147D01*
X162392273Y-82548320D01*
X162157241Y-82705363D01*
X161957363Y-82905241D01*
X161802000Y-83137759D01*
X161646637Y-82905241D01*
X161446759Y-82705363D01*
X161211727Y-82548320D01*
X160950574Y-82440147D01*
X160673335Y-82385000D01*
X160390665Y-82385000D01*
X160113426Y-82440147D01*
X159852273Y-82548320D01*
X159617241Y-82705363D01*
X159417363Y-82905241D01*
X159262000Y-83137759D01*
X159106637Y-82905241D01*
X158906759Y-82705363D01*
X158671727Y-82548320D01*
X158410574Y-82440147D01*
X158133335Y-82385000D01*
X157850665Y-82385000D01*
X157573426Y-82440147D01*
X157312273Y-82548320D01*
X157077241Y-82705363D01*
X156877363Y-82905241D01*
X156722000Y-83137759D01*
X156566637Y-82905241D01*
X156366759Y-82705363D01*
X156131727Y-82548320D01*
X155870574Y-82440147D01*
X155593335Y-82385000D01*
X155310665Y-82385000D01*
X155033426Y-82440147D01*
X154772273Y-82548320D01*
X154537241Y-82705363D01*
X154337363Y-82905241D01*
X154182000Y-83137759D01*
X154026637Y-82905241D01*
X153826759Y-82705363D01*
X153591727Y-82548320D01*
X153330574Y-82440147D01*
X153053335Y-82385000D01*
X152770665Y-82385000D01*
X152493426Y-82440147D01*
X152232273Y-82548320D01*
X151997241Y-82705363D01*
X151797363Y-82905241D01*
X151640320Y-83140273D01*
X151635933Y-83150865D01*
X151524385Y-82964869D01*
X151335414Y-82756481D01*
X151109420Y-82588963D01*
X150855087Y-82468754D01*
X150721039Y-82428096D01*
X150499000Y-82550085D01*
X150245000Y-82550085D01*
X150022961Y-82428096D01*
X149888913Y-82468754D01*
X149634580Y-82588963D01*
X149408586Y-82756481D01*
X149219615Y-82964869D01*
X149108067Y-83150865D01*
X149103680Y-83140273D01*
X148946637Y-82905241D01*
X148746759Y-82705363D01*
X148511727Y-82548320D01*
X148250574Y-82440147D01*
X147973335Y-82385000D01*
X147690665Y-82385000D01*
X147413426Y-82440147D01*
X147152273Y-82548320D01*
X146917241Y-82705363D01*
X146717363Y-82905241D01*
X146562000Y-83137759D01*
X146406637Y-82905241D01*
X146206759Y-82705363D01*
X145971727Y-82548320D01*
X145710574Y-82440147D01*
X145433335Y-82385000D01*
X145150665Y-82385000D01*
X144873426Y-82440147D01*
X144612273Y-82548320D01*
X144377241Y-82705363D01*
X144177363Y-82905241D01*
X144022000Y-83137759D01*
X143866637Y-82905241D01*
X143666759Y-82705363D01*
X143431727Y-82548320D01*
X143170574Y-82440147D01*
X142893335Y-82385000D01*
X142610665Y-82385000D01*
X142333426Y-82440147D01*
X142072273Y-82548320D01*
X141837241Y-82705363D01*
X141637363Y-82905241D01*
X141480320Y-83140273D01*
X141372147Y-83401426D01*
X141317000Y-83678665D01*
X116967000Y-83678665D01*
X116967000Y-80899000D01*
X208153000Y-80899000D01*
X208153000Y-105253384D01*
%TD*%
M02*
