M48
INCH
T1C0.0157
T2C0.0315
T3C0.0350
T4C0.0354
T5C0.0394
T6C0.0512
T7C0.0550
%
G90
G05
T1
X5.98Y-5.02
X6.06Y-4.94
X6.26Y-5.12
X6.48Y-5.12
T2
X6.26Y-3.4
X6.26Y-3.8
X6.58Y-4.92
X6.98Y-4.92
X6.54Y-3.4
X6.54Y-3.8
X6.58Y-4.68
X6.98Y-4.68
X6.38Y-4.66
X6.38Y-5.06
X7.04Y-3.48
X7.04Y-3.88
X6.88Y-3.48
X6.88Y-3.88
X6.68Y-3.4
X6.68Y-3.8
X6.4Y-3.4
X6.4Y-3.8
X6.12Y-3.4
X6.12Y-3.8
T3
X5.34Y-4.2
X5.34Y-4.3
X5.34Y-4.4
X5.64Y-4.7
X5.74Y-4.7
X5.84Y-4.7
T4
X5.68Y-3.52
X5.78Y-3.52
X6.44Y-4.28
X6.54Y-4.28
X5.68Y-5.02
X5.78Y-5.02
X5.36Y-3.52
X5.46Y-3.52
X4.96Y-4.3
X5.06Y-4.3
X5.615Y-3.8
X5.615Y-4.0
X5.865Y-3.8
X5.865Y-4.0
T5
X5.6202Y-3.3
X5.7202Y-3.3
X5.8202Y-3.3
X5.9202Y-3.3
X5.98Y-5.2
X6.0202Y-3.3
X6.08Y-5.2
X6.1202Y-3.3
X6.18Y-5.2
X6.2202Y-3.3
X6.28Y-5.2
X6.3202Y-3.3
X6.38Y-5.2
X6.4202Y-3.3
X6.48Y-5.2
X6.5202Y-3.3
X6.58Y-5.2
X6.68Y-3.3
X6.68Y-5.2
X6.78Y-3.3
X6.88Y-3.3
X6.88Y-5.2
X6.98Y-3.3
X6.98Y-5.2
X7.08Y-3.3
X7.08Y-5.2
X7.18Y-3.3
X7.18Y-5.2
X7.28Y-3.3
X7.28Y-5.2
X7.38Y-3.3
X7.38Y-5.2
T6
X7.62Y-4.16
X7.62Y-4.3569
X8.1121Y-4.16
X8.1121Y-4.3569
X7.26Y-3.6
X7.26Y-3.7969
X7.7521Y-3.6
X7.7521Y-3.7969
X7.26Y-4.72
X7.26Y-4.9169
X7.7521Y-4.72
X7.7521Y-4.9169
X6.9Y-4.1631
X6.9Y-4.36
X7.3921Y-4.1631
X7.3921Y-4.36
T7
X5.44Y-4.0375
X5.44Y-4.5625
X6.04Y-4.0375
X6.04Y-4.5625
T0
M30
