%TF.GenerationSoftware,KiCad,Pcbnew,(5.1.6)-1*%
%TF.CreationDate,2020-10-24T12:20:44-07:00*%
%TF.ProjectId,Joystick_Follower_Hat,4a6f7973-7469-4636-9b5f-466f6c6c6f77,A*%
%TF.SameCoordinates,Original*%
%TF.FileFunction,Soldermask,Bot*%
%TF.FilePolarity,Negative*%
%FSLAX46Y46*%
G04 Gerber Fmt 4.6, Leading zero omitted, Abs format (unit mm)*
G04 Created by KiCad (PCBNEW (5.1.6)-1) date 2020-10-24 12:20:44*
%MOMM*%
%LPD*%
G01*
G04 APERTURE LIST*
%ADD10C,1.878000*%
%ADD11C,2.386000*%
%ADD12O,3.148000X1.950000*%
%ADD13O,1.700000X1.700000*%
%ADD14C,1.700000*%
%ADD15C,1.900000*%
%ADD16R,1.900000X1.900000*%
%ADD17R,1.700000X1.700000*%
G04 APERTURE END LIST*
D10*
%TO.C,U1*%
X135636000Y-111760000D03*
X135636000Y-109220000D03*
X135636000Y-106680000D03*
D11*
X153416000Y-102552500D03*
X153416000Y-115887500D03*
X138176000Y-115887500D03*
X138176000Y-102552500D03*
D10*
X148336000Y-119380000D03*
X145796000Y-119380000D03*
X143256000Y-119380000D03*
X148971000Y-101600000D03*
X142621000Y-101600000D03*
X148971000Y-96520000D03*
X142621000Y-96520000D03*
%TD*%
D12*
%TO.C,SW4*%
X184404000Y-124888000D03*
X184404000Y-119888000D03*
X196904000Y-124888000D03*
X196904000Y-119888000D03*
%TD*%
%TO.C,SW3*%
X175260000Y-110744000D03*
X175260000Y-105744000D03*
X187760000Y-110744000D03*
X187760000Y-105744000D03*
%TD*%
%TO.C,SW2*%
X193548000Y-110664000D03*
X193548000Y-105664000D03*
X206048000Y-110664000D03*
X206048000Y-105664000D03*
%TD*%
%TO.C,SW1*%
X184404000Y-96440000D03*
X184404000Y-91440000D03*
X196904000Y-96440000D03*
X196904000Y-91440000D03*
%TD*%
D13*
%TO.C,R10*%
X178816000Y-98552000D03*
D14*
X178816000Y-88392000D03*
%TD*%
D13*
%TO.C,R9*%
X174752000Y-88392000D03*
D14*
X174752000Y-98552000D03*
%TD*%
D13*
%TO.C,R8*%
X177292000Y-118872000D03*
D14*
X167132000Y-118872000D03*
%TD*%
D13*
%TO.C,R7*%
X162052000Y-118364000D03*
D14*
X162052000Y-128524000D03*
%TD*%
D13*
%TO.C,R6*%
X159004000Y-96520000D03*
D14*
X159004000Y-86360000D03*
%TD*%
D13*
%TO.C,R5*%
X155448000Y-96520000D03*
D14*
X155448000Y-86360000D03*
%TD*%
D13*
%TO.C,R4*%
X162560000Y-96520000D03*
D14*
X162560000Y-86360000D03*
%TD*%
D13*
%TO.C,R3*%
X166116000Y-96520000D03*
D14*
X166116000Y-86360000D03*
%TD*%
D13*
%TO.C,R2*%
X169672000Y-96520000D03*
D14*
X169672000Y-86360000D03*
%TD*%
D13*
%TO.C,R1*%
X177292000Y-124968000D03*
D14*
X167132000Y-124968000D03*
%TD*%
D15*
%TO.C,D5*%
X138684000Y-89408000D03*
D16*
X136144000Y-89408000D03*
%TD*%
D15*
%TO.C,D4*%
X128524000Y-109220000D03*
D16*
X125984000Y-109220000D03*
%TD*%
D15*
%TO.C,D3*%
X146812000Y-127508000D03*
D16*
X144272000Y-127508000D03*
%TD*%
D15*
%TO.C,D2*%
X166116000Y-108712000D03*
D16*
X163576000Y-108712000D03*
%TD*%
D15*
%TO.C,D1*%
X146812000Y-89408000D03*
D16*
X144272000Y-89408000D03*
%TD*%
D13*
%TO.C,A1*%
X184912000Y-83820000D03*
X187452000Y-83820000D03*
X147832000Y-83820000D03*
X187452000Y-132080000D03*
X150372000Y-83820000D03*
X184912000Y-132080000D03*
X152912000Y-83820000D03*
X182372000Y-132080000D03*
X155452000Y-83820000D03*
X179832000Y-132080000D03*
X157992000Y-83820000D03*
X177292000Y-132080000D03*
X160532000Y-83820000D03*
X174752000Y-132080000D03*
X163072000Y-83820000D03*
X169672000Y-132080000D03*
X165612000Y-83820000D03*
X167132000Y-132080000D03*
X169672000Y-83820000D03*
X164592000Y-132080000D03*
X172212000Y-83820000D03*
X162052000Y-132080000D03*
X174752000Y-83820000D03*
X159512000Y-132080000D03*
X177292000Y-83820000D03*
X156972000Y-132080000D03*
X179832000Y-83820000D03*
X154432000Y-132080000D03*
X182372000Y-83820000D03*
D17*
X151892000Y-132080000D03*
D13*
X145292000Y-83820000D03*
X142752000Y-83820000D03*
%TD*%
M02*
